<ttFont>
<head>
    <!-- Most of this table will be recalculated by the compiler -->
    <tableVersion value="1.0"/>
    <fontRevision value="5.0"/>
    <checkSumAdjustment value="0xcf1604bc"/>
    <magicNumber value="0x5f0f3cf5"/>
    <flags value="00000000 00001011"/>
    <unitsPerEm value="2048"/>
    <created value="Sun May 15 08:57:39 2005"/>
    <modified value="Wed Apr 13 18:20:25 2011"/>
    <xMin value="0"/>
    <yMin value="-969"/>
    <xMax value="6780"/>
    <yMax value="2295"/>
    <macStyle value="00000000 00000000"/>
    <lowestRecPPEM value="8"/>
    <fontDirectionHint value="2"/>
    <indexToLocFormat value="1"/>
    <glyphDataFormat value="0"/>
  </head>
    <TTGlyph name=".notdef" xMin="142" yMin="226" xMax="842" yMax="1588">
      <contour>
        <pt x="142" y="226" on="1"/>
        <pt x="142" y="1588" on="1"/>
        <pt x="842" y="1588" on="1"/>
        <pt x="842" y="226" on="1"/>
      </contour>
      <contour>
        <pt x="284" y="368" on="1"/>
        <pt x="700" y="368" on="1"/>
        <pt x="700" y="1447" on="1"/>
        <pt x="284" y="1447" on="1"/>
      </contour>
    </TTGlyph>
    <TTGlyph name=".null" xMin="142" yMin="226" xMax="842" yMax="1588">
      <contour>
        <pt x="142" y="226" on="1"/>
        <pt x="142" y="1588" on="1"/>
        <pt x="842" y="1588" on="1"/>
        <pt x="842" y="226" on="1"/>
      </contour>
      <contour>
        <pt x="284" y="368" on="1"/>
        <pt x="700" y="368" on="1"/>
        <pt x="700" y="1447" on="1"/>
        <pt x="284" y="1447" on="1"/>
      </contour>
    </TTGlyph>
    <TTGlyph name="afii57381" xMin="142" yMin="226" xMax="842" yMax="1588">
      <contour>
        <pt x="142" y="226" on="1"/>
        <pt x="142" y="1588" on="1"/>
        <pt x="842" y="1588" on="1"/>
        <pt x="842" y="226" on="1"/>
      </contour>
      <contour>
        <pt x="284" y="368" on="1"/>
        <pt x="700" y="368" on="1"/>
        <pt x="700" y="1447" on="1"/>
        <pt x="284" y="1447" on="1"/>
      </contour>
    </TTGlyph>
    <TTGlyph name="afii57388" xMin="142" yMin="226" xMax="842" yMax="1588">
      <contour>
        <pt x="142" y="226" on="1"/>
        <pt x="142" y="1588" on="1"/>
        <pt x="842" y="1588" on="1"/>
        <pt x="842" y="226" on="1"/>
      </contour>
      <contour>
        <pt x="284" y="368" on="1"/>
        <pt x="700" y="368" on="1"/>
        <pt x="700" y="1447" on="1"/>
        <pt x="284" y="1447" on="1"/>
      </contour>
    </TTGlyph>
    <TTGlyph name="afii57396" xMin="142" yMin="226" xMax="842" yMax="1588">
      <contour>
        <pt x="142" y="226" on="1"/>
        <pt x="142" y="1588" on="1"/>
        <pt x="842" y="1588" on="1"/>
        <pt x="842" y="226" on="1"/>
      </contour>
      <contour>
        <pt x="284" y="368" on="1"/>
        <pt x="700" y="368" on="1"/>
        <pt x="700" y="1447" on="1"/>
        <pt x="284" y="1447" on="1"/>
      </contour>
    </TTGlyph>
    <TTGlyph name="afii57397" xMin="142" yMin="226" xMax="842" yMax="1588">
      <contour>
        <pt x="142" y="226" on="1"/>
        <pt x="142" y="1588" on="1"/>
        <pt x="842" y="1588" on="1"/>
        <pt x="842" y="226" on="1"/>
      </contour>
      <contour>
        <pt x="284" y="368" on="1"/>
        <pt x="700" y="368" on="1"/>
        <pt x="700" y="1447" on="1"/>
        <pt x="284" y="1447" on="1"/>
      </contour>
    </TTGlyph>
    <TTGlyph name="afii57398" xMin="142" yMin="226" xMax="842" yMax="1588">
      <contour>
        <pt x="142" y="226" on="1"/>
        <pt x="142" y="1588" on="1"/>
        <pt x="842" y="1588" on="1"/>
        <pt x="842" y="226" on="1"/>
      </contour>
      <contour>
        <pt x="284" y="368" on="1"/>
        <pt x="700" y="368" on="1"/>
        <pt x="700" y="1447" on="1"/>
        <pt x="284" y="1447" on="1"/>
      </contour>
    </TTGlyph>
    <TTGlyph name="afii57403" xMin="142" yMin="226" xMax="842" yMax="1588">
      <contour>
        <pt x="142" y="226" on="1"/>
        <pt x="142" y="1588" on="1"/>
        <pt x="842" y="1588" on="1"/>
        <pt x="842" y="226" on="1"/>
      </contour>
      <contour>
        <pt x="284" y="368" on="1"/>
        <pt x="700" y="368" on="1"/>
        <pt x="700" y="1447" on="1"/>
        <pt x="284" y="1447" on="1"/>
      </contour>
    </TTGlyph>
    <TTGlyph name="afii57407" xMin="142" yMin="226" xMax="842" yMax="1588">
      <contour>
        <pt x="142" y="226" on="1"/>
        <pt x="142" y="1588" on="1"/>
        <pt x="842" y="1588" on="1"/>
        <pt x="842" y="226" on="1"/>
      </contour>
      <contour>
        <pt x="284" y="368" on="1"/>
        <pt x="700" y="368" on="1"/>
        <pt x="700" y="1447" on="1"/>
        <pt x="284" y="1447" on="1"/>
      </contour>
    </TTGlyph>
    <TTGlyph name="afii57440" xMin="142" yMin="226" xMax="842" yMax="1588">
      <contour>
        <pt x="142" y="226" on="1"/>
        <pt x="142" y="1588" on="1"/>
        <pt x="842" y="1588" on="1"/>
        <pt x="842" y="226" on="1"/>
      </contour>
      <contour>
        <pt x="284" y="368" on="1"/>
        <pt x="700" y="368" on="1"/>
        <pt x="700" y="1447" on="1"/>
        <pt x="284" y="1447" on="1"/>
      </contour>
    </TTGlyph>
    <TTGlyph name="afii57451" xMin="142" yMin="226" xMax="842" yMax="1588">
      <contour>
        <pt x="142" y="226" on="1"/>
        <pt x="142" y="1588" on="1"/>
        <pt x="842" y="1588" on="1"/>
        <pt x="842" y="226" on="1"/>
      </contour>
      <contour>
        <pt x="284" y="368" on="1"/>
        <pt x="700" y="368" on="1"/>
        <pt x="700" y="1447" on="1"/>
        <pt x="284" y="1447" on="1"/>
      </contour>
    </TTGlyph>
    <TTGlyph name="afii57452" xMin="142" yMin="226" xMax="842" yMax="1588">
      <contour>
        <pt x="142" y="226" on="1"/>
        <pt x="142" y="1588" on="1"/>
        <pt x="842" y="1588" on="1"/>
        <pt x="842" y="226" on="1"/>
      </contour>
      <contour>
        <pt x="284" y="368" on="1"/>
        <pt x="700" y="368" on="1"/>
        <pt x="700" y="1447" on="1"/>
        <pt x="284" y="1447" on="1"/>
      </contour>
    </TTGlyph>
    <TTGlyph name="afii57453" xMin="142" yMin="226" xMax="842" yMax="1588">
      <contour>
        <pt x="142" y="226" on="1"/>
        <pt x="142" y="1588" on="1"/>
        <pt x="842" y="1588" on="1"/>
        <pt x="842" y="226" on="1"/>
      </contour>
      <contour>
        <pt x="284" y="368" on="1"/>
        <pt x="700" y="368" on="1"/>
        <pt x="700" y="1447" on="1"/>
        <pt x="284" y="1447" on="1"/>
      </contour>
    </TTGlyph>
    <TTGlyph name="afii57454" xMin="142" yMin="226" xMax="842" yMax="1588">
      <contour>
        <pt x="142" y="226" on="1"/>
        <pt x="142" y="1588" on="1"/>
        <pt x="842" y="1588" on="1"/>
        <pt x="842" y="226" on="1"/>
      </contour>
      <contour>
        <pt x="284" y="368" on="1"/>
        <pt x="700" y="368" on="1"/>
        <pt x="700" y="1447" on="1"/>
        <pt x="284" y="1447" on="1"/>
      </contour>
    </TTGlyph>
    <TTGlyph name="afii57455" xMin="142" yMin="226" xMax="842" yMax="1588">
      <contour>
        <pt x="142" y="226" on="1"/>
        <pt x="142" y="1588" on="1"/>
        <pt x="842" y="1588" on="1"/>
        <pt x="842" y="226" on="1"/>
      </contour>
      <contour>
        <pt x="284" y="368" on="1"/>
        <pt x="700" y="368" on="1"/>
        <pt x="700" y="1447" on="1"/>
        <pt x="284" y="1447" on="1"/>
      </contour>
    </TTGlyph>
    <TTGlyph name="afii57456" xMin="142" yMin="226" xMax="842" yMax="1588">
      <contour>
        <pt x="142" y="226" on="1"/>
        <pt x="142" y="1588" on="1"/>
        <pt x="842" y="1588" on="1"/>
        <pt x="842" y="226" on="1"/>
      </contour>
      <contour>
        <pt x="284" y="368" on="1"/>
        <pt x="700" y="368" on="1"/>
        <pt x="700" y="1447" on="1"/>
        <pt x="284" y="1447" on="1"/>
      </contour>
    </TTGlyph>
    <TTGlyph name="afii57457" xMin="142" yMin="226" xMax="842" yMax="1588">
      <contour>
        <pt x="142" y="226" on="1"/>
        <pt x="142" y="1588" on="1"/>
        <pt x="842" y="1588" on="1"/>
        <pt x="842" y="226" on="1"/>
      </contour>
      <contour>
        <pt x="284" y="368" on="1"/>
        <pt x="700" y="368" on="1"/>
        <pt x="700" y="1447" on="1"/>
        <pt x="284" y="1447" on="1"/>
      </contour>
    </TTGlyph>
    <TTGlyph name="afii57458" xMin="142" yMin="226" xMax="842" yMax="1588">
      <contour>
        <pt x="142" y="226" on="1"/>
        <pt x="142" y="1588" on="1"/>
        <pt x="842" y="1588" on="1"/>
        <pt x="842" y="226" on="1"/>
      </contour>
      <contour>
        <pt x="284" y="368" on="1"/>
        <pt x="700" y="368" on="1"/>
        <pt x="700" y="1447" on="1"/>
        <pt x="284" y="1447" on="1"/>
      </contour>
    </TTGlyph>
    <TTGlyph name="afii57505" xMin="142" yMin="226" xMax="842" yMax="1588">
      <contour>
        <pt x="142" y="226" on="1"/>
        <pt x="142" y="1588" on="1"/>
        <pt x="842" y="1588" on="1"/>
        <pt x="842" y="226" on="1"/>
      </contour>
      <contour>
        <pt x="284" y="368" on="1"/>
        <pt x="700" y="368" on="1"/>
        <pt x="700" y="1447" on="1"/>
        <pt x="284" y="1447" on="1"/>
      </contour>
    </TTGlyph>
    <TTGlyph name="afii57506" xMin="142" yMin="226" xMax="842" yMax="1588">
      <contour>
        <pt x="142" y="226" on="1"/>
        <pt x="142" y="1588" on="1"/>
        <pt x="842" y="1588" on="1"/>
        <pt x="842" y="226" on="1"/>
      </contour>
      <contour>
        <pt x="284" y="368" on="1"/>
        <pt x="700" y="368" on="1"/>
        <pt x="700" y="1447" on="1"/>
        <pt x="284" y="1447" on="1"/>
      </contour>
    </TTGlyph>
    <TTGlyph name="afii57507" xMin="142" yMin="226" xMax="842" yMax="1588">
      <contour>
        <pt x="142" y="226" on="1"/>
        <pt x="142" y="1588" on="1"/>
        <pt x="842" y="1588" on="1"/>
        <pt x="842" y="226" on="1"/>
      </contour>
      <contour>
        <pt x="284" y="368" on="1"/>
        <pt x="700" y="368" on="1"/>
        <pt x="700" y="1447" on="1"/>
        <pt x="284" y="1447" on="1"/>
      </contour>
    </TTGlyph>
    <TTGlyph name="afii57508" xMin="142" yMin="226" xMax="842" yMax="1588">
      <contour>
        <pt x="142" y="226" on="1"/>
        <pt x="142" y="1588" on="1"/>
        <pt x="842" y="1588" on="1"/>
        <pt x="842" y="226" on="1"/>
      </contour>
      <contour>
        <pt x="284" y="368" on="1"/>
        <pt x="700" y="368" on="1"/>
        <pt x="700" y="1447" on="1"/>
        <pt x="284" y="1447" on="1"/>
      </contour>
    </TTGlyph>
    <TTGlyph name="afii57509" xMin="142" yMin="226" xMax="842" yMax="1588">
      <contour>
        <pt x="142" y="226" on="1"/>
        <pt x="142" y="1588" on="1"/>
        <pt x="842" y="1588" on="1"/>
        <pt x="842" y="226" on="1"/>
      </contour>
      <contour>
        <pt x="284" y="368" on="1"/>
        <pt x="700" y="368" on="1"/>
        <pt x="700" y="1447" on="1"/>
        <pt x="284" y="1447" on="1"/>
      </contour>
    </TTGlyph>
    <TTGlyph name="afii57511" xMin="142" yMin="226" xMax="842" yMax="1588">
      <contour>
        <pt x="142" y="226" on="1"/>
        <pt x="142" y="1588" on="1"/>
        <pt x="842" y="1588" on="1"/>
        <pt x="842" y="226" on="1"/>
      </contour>
      <contour>
        <pt x="284" y="368" on="1"/>
        <pt x="700" y="368" on="1"/>
        <pt x="700" y="1447" on="1"/>
        <pt x="284" y="1447" on="1"/>
      </contour>
    </TTGlyph>
    <TTGlyph name="afii57512" xMin="142" yMin="226" xMax="842" yMax="1588">
      <contour>
        <pt x="142" y="226" on="1"/>
        <pt x="142" y="1588" on="1"/>
        <pt x="842" y="1588" on="1"/>
        <pt x="842" y="226" on="1"/>
      </contour>
      <contour>
        <pt x="284" y="368" on="1"/>
        <pt x="700" y="368" on="1"/>
        <pt x="700" y="1447" on="1"/>
        <pt x="284" y="1447" on="1"/>
      </contour>
    </TTGlyph>
    <TTGlyph name="afii57513" xMin="142" yMin="226" xMax="842" yMax="1588">
      <contour>
        <pt x="142" y="226" on="1"/>
        <pt x="142" y="1588" on="1"/>
        <pt x="842" y="1588" on="1"/>
        <pt x="842" y="226" on="1"/>
      </contour>
      <contour>
        <pt x="284" y="368" on="1"/>
        <pt x="700" y="368" on="1"/>
        <pt x="700" y="1447" on="1"/>
        <pt x="284" y="1447" on="1"/>
      </contour>
    </TTGlyph>
    <TTGlyph name="afii57514" xMin="142" yMin="226" xMax="842" yMax="1588">
      <contour>
        <pt x="142" y="226" on="1"/>
        <pt x="142" y="1588" on="1"/>
        <pt x="842" y="1588" on="1"/>
        <pt x="842" y="226" on="1"/>
      </contour>
      <contour>
        <pt x="284" y="368" on="1"/>
        <pt x="700" y="368" on="1"/>
        <pt x="700" y="1447" on="1"/>
        <pt x="284" y="1447" on="1"/>
      </contour>
    </TTGlyph>
    <TTGlyph name="afii57519" xMin="142" yMin="226" xMax="842" yMax="1588">
      <contour>
        <pt x="142" y="226" on="1"/>
        <pt x="142" y="1588" on="1"/>
        <pt x="842" y="1588" on="1"/>
        <pt x="842" y="226" on="1"/>
      </contour>
      <contour>
        <pt x="284" y="368" on="1"/>
        <pt x="700" y="368" on="1"/>
        <pt x="700" y="1447" on="1"/>
        <pt x="284" y="1447" on="1"/>
      </contour>
    </TTGlyph>
    <TTGlyph name="afii57534" xMin="142" yMin="226" xMax="842" yMax="1588">
      <contour>
        <pt x="142" y="226" on="1"/>
        <pt x="142" y="1588" on="1"/>
        <pt x="842" y="1588" on="1"/>
        <pt x="842" y="226" on="1"/>
      </contour>
      <contour>
        <pt x="284" y="368" on="1"/>
        <pt x="700" y="368" on="1"/>
        <pt x="700" y="1447" on="1"/>
        <pt x="284" y="1447" on="1"/>
      </contour>
    </TTGlyph>
    <TTGlyph name="afii63167" xMin="142" yMin="226" xMax="842" yMax="1588">
      <contour>
        <pt x="142" y="226" on="1"/>
        <pt x="142" y="1588" on="1"/>
        <pt x="842" y="1588" on="1"/>
        <pt x="842" y="226" on="1"/>
      </contour>
      <contour>
        <pt x="284" y="368" on="1"/>
        <pt x="700" y="368" on="1"/>
        <pt x="700" y="1447" on="1"/>
        <pt x="284" y="1447" on="1"/>
      </contour>
    </TTGlyph>
    <TTGlyph name="alefmaksurainitial" xMin="142" yMin="226" xMax="842" yMax="1588">
      <contour>
        <pt x="142" y="226" on="1"/>
        <pt x="142" y="1588" on="1"/>
        <pt x="842" y="1588" on="1"/>
        <pt x="842" y="226" on="1"/>
      </contour>
      <contour>
        <pt x="284" y="368" on="1"/>
        <pt x="700" y="368" on="1"/>
        <pt x="700" y="1447" on="1"/>
        <pt x="284" y="1447" on="1"/>
      </contour>
    </TTGlyph>
    <TTGlyph name="alefwaslafinalarabic" xMin="142" yMin="226" xMax="842" yMax="1588">
      <contour>
        <pt x="142" y="226" on="1"/>
        <pt x="142" y="1588" on="1"/>
        <pt x="842" y="1588" on="1"/>
        <pt x="842" y="226" on="1"/>
      </contour>
      <contour>
        <pt x="284" y="368" on="1"/>
        <pt x="700" y="368" on="1"/>
        <pt x="700" y="1447" on="1"/>
        <pt x="284" y="1447" on="1"/>
      </contour>
    </TTGlyph>
    <TTGlyph name="ampersand" xMin="142" yMin="226" xMax="842" yMax="1588">
      <contour>
        <pt x="142" y="226" on="1"/>
        <pt x="142" y="1588" on="1"/>
        <pt x="842" y="1588" on="1"/>
        <pt x="842" y="226" on="1"/>
      </contour>
      <contour>
        <pt x="284" y="368" on="1"/>
        <pt x="700" y="368" on="1"/>
        <pt x="700" y="1447" on="1"/>
        <pt x="284" y="1447" on="1"/>
      </contour>
    </TTGlyph>
    <TTGlyph name="asterisk" xMin="142" yMin="226" xMax="842" yMax="1588">
      <contour>
        <pt x="142" y="226" on="1"/>
        <pt x="142" y="1588" on="1"/>
        <pt x="842" y="1588" on="1"/>
        <pt x="842" y="226" on="1"/>
      </contour>
      <contour>
        <pt x="284" y="368" on="1"/>
        <pt x="700" y="368" on="1"/>
        <pt x="700" y="1447" on="1"/>
        <pt x="284" y="1447" on="1"/>
      </contour>
    </TTGlyph>
    <TTGlyph name="behmeemisolatedarabic" xMin="142" yMin="226" xMax="842" yMax="1588">
      <contour>
        <pt x="142" y="226" on="1"/>
        <pt x="142" y="1588" on="1"/>
        <pt x="842" y="1588" on="1"/>
        <pt x="842" y="226" on="1"/>
      </contour>
      <contour>
        <pt x="284" y="368" on="1"/>
        <pt x="700" y="368" on="1"/>
        <pt x="700" y="1447" on="1"/>
        <pt x="284" y="1447" on="1"/>
      </contour>
    </TTGlyph>
    <TTGlyph name="behnoonfinalarabic" xMin="142" yMin="226" xMax="842" yMax="1588">
      <contour>
        <pt x="142" y="226" on="1"/>
        <pt x="142" y="1588" on="1"/>
        <pt x="842" y="1588" on="1"/>
        <pt x="842" y="226" on="1"/>
      </contour>
      <contour>
        <pt x="284" y="368" on="1"/>
        <pt x="700" y="368" on="1"/>
        <pt x="700" y="1447" on="1"/>
        <pt x="284" y="1447" on="1"/>
      </contour>
    </TTGlyph>
    <TTGlyph name="colon" xMin="142" yMin="226" xMax="842" yMax="1588">
      <contour>
        <pt x="142" y="226" on="1"/>
        <pt x="142" y="1588" on="1"/>
        <pt x="842" y="1588" on="1"/>
        <pt x="842" y="226" on="1"/>
      </contour>
      <contour>
        <pt x="284" y="368" on="1"/>
        <pt x="700" y="368" on="1"/>
        <pt x="700" y="1447" on="1"/>
        <pt x="284" y="1447" on="1"/>
      </contour>
    </TTGlyph>
    <TTGlyph name="dagger" xMin="142" yMin="226" xMax="842" yMax="1588">
      <contour>
        <pt x="142" y="226" on="1"/>
        <pt x="142" y="1588" on="1"/>
        <pt x="842" y="1588" on="1"/>
        <pt x="842" y="226" on="1"/>
      </contour>
      <contour>
        <pt x="284" y="368" on="1"/>
        <pt x="700" y="368" on="1"/>
        <pt x="700" y="1447" on="1"/>
        <pt x="284" y="1447" on="1"/>
      </contour>
    </TTGlyph>
    <TTGlyph name="dalringfinal" xMin="142" yMin="226" xMax="842" yMax="1588">
      <contour>
        <pt x="142" y="226" on="1"/>
        <pt x="142" y="1588" on="1"/>
        <pt x="842" y="1588" on="1"/>
        <pt x="842" y="226" on="1"/>
      </contour>
      <contour>
        <pt x="284" y="368" on="1"/>
        <pt x="700" y="368" on="1"/>
        <pt x="700" y="1447" on="1"/>
        <pt x="284" y="1447" on="1"/>
      </contour>
    </TTGlyph>
    <TTGlyph name="ddalfinalarabic" xMin="142" yMin="226" xMax="842" yMax="1588">
      <contour>
        <pt x="142" y="226" on="1"/>
        <pt x="142" y="1588" on="1"/>
        <pt x="842" y="1588" on="1"/>
        <pt x="842" y="226" on="1"/>
      </contour>
      <contour>
        <pt x="284" y="368" on="1"/>
        <pt x="700" y="368" on="1"/>
        <pt x="700" y="1447" on="1"/>
        <pt x="284" y="1447" on="1"/>
      </contour>
    </TTGlyph>
    <TTGlyph name="divide" xMin="142" yMin="226" xMax="842" yMax="1588">
      <contour>
        <pt x="142" y="226" on="1"/>
        <pt x="142" y="1588" on="1"/>
        <pt x="842" y="1588" on="1"/>
        <pt x="842" y="226" on="1"/>
      </contour>
      <contour>
        <pt x="284" y="368" on="1"/>
        <pt x="700" y="368" on="1"/>
        <pt x="700" y="1447" on="1"/>
        <pt x="284" y="1447" on="1"/>
      </contour>
    </TTGlyph>
    <TTGlyph name="dollar" xMin="142" yMin="226" xMax="842" yMax="1588">
      <contour>
        <pt x="142" y="226" on="1"/>
        <pt x="142" y="1588" on="1"/>
        <pt x="842" y="1588" on="1"/>
        <pt x="842" y="226" on="1"/>
      </contour>
      <contour>
        <pt x="284" y="368" on="1"/>
        <pt x="700" y="368" on="1"/>
        <pt x="700" y="1447" on="1"/>
        <pt x="284" y="1447" on="1"/>
      </contour>
    </TTGlyph>
    <TTGlyph name="dotlessyehfinalarabic" xMin="142" yMin="226" xMax="842" yMax="1588">
      <contour>
        <pt x="142" y="226" on="1"/>
        <pt x="142" y="1588" on="1"/>
        <pt x="842" y="1588" on="1"/>
        <pt x="842" y="226" on="1"/>
      </contour>
      <contour>
        <pt x="284" y="368" on="1"/>
        <pt x="700" y="368" on="1"/>
        <pt x="700" y="1447" on="1"/>
        <pt x="284" y="1447" on="1"/>
      </contour>
    </TTGlyph>
    <TTGlyph name="dotlessyehinitialarabic" xMin="142" yMin="226" xMax="842" yMax="1588">
      <contour>
        <pt x="142" y="226" on="1"/>
        <pt x="142" y="1588" on="1"/>
        <pt x="842" y="1588" on="1"/>
        <pt x="842" y="226" on="1"/>
      </contour>
      <contour>
        <pt x="284" y="368" on="1"/>
        <pt x="700" y="368" on="1"/>
        <pt x="700" y="1447" on="1"/>
        <pt x="284" y="1447" on="1"/>
      </contour>
    </TTGlyph>
    <TTGlyph name="dotlessyehmedialarabic" xMin="142" yMin="226" xMax="842" yMax="1588">
      <contour>
        <pt x="142" y="226" on="1"/>
        <pt x="142" y="1588" on="1"/>
        <pt x="842" y="1588" on="1"/>
        <pt x="842" y="226" on="1"/>
      </contour>
      <contour>
        <pt x="284" y="368" on="1"/>
        <pt x="700" y="368" on="1"/>
        <pt x="700" y="1447" on="1"/>
        <pt x="284" y="1447" on="1"/>
      </contour>
    </TTGlyph>
    <TTGlyph name="elefmaksuramedial" xMin="142" yMin="226" xMax="842" yMax="1588">
      <contour>
        <pt x="142" y="226" on="1"/>
        <pt x="142" y="1588" on="1"/>
        <pt x="842" y="1588" on="1"/>
        <pt x="842" y="226" on="1"/>
      </contour>
      <contour>
        <pt x="284" y="368" on="1"/>
        <pt x="700" y="368" on="1"/>
        <pt x="700" y="1447" on="1"/>
        <pt x="284" y="1447" on="1"/>
      </contour>
    </TTGlyph>
    <TTGlyph name="ellipsis" xMin="142" yMin="226" xMax="842" yMax="1588">
      <contour>
        <pt x="142" y="226" on="1"/>
        <pt x="142" y="1588" on="1"/>
        <pt x="842" y="1588" on="1"/>
        <pt x="842" y="226" on="1"/>
      </contour>
      <contour>
        <pt x="284" y="368" on="1"/>
        <pt x="700" y="368" on="1"/>
        <pt x="700" y="1447" on="1"/>
        <pt x="284" y="1447" on="1"/>
      </contour>
    </TTGlyph>
    <TTGlyph name="emdash" xMin="300" yMin="-436" xMax="2348" yMax="1642">
      <contour>
        <pt x="2348" y="1315" on="1"/>
        <pt x="2348" y="1266" on="0"/>
        <pt x="2122" y="1109" on="1"/>
        <pt x="1993" y="1022" on="0"/>
        <pt x="1864" y="936" on="1"/>
        <pt x="1831" y="936" on="1"/>
        <pt x="1808" y="957" on="0"/>
        <pt x="1808" y="987" on="1"/>
        <pt x="1808" y="1030" on="0"/>
        <pt x="2021" y="1168" on="1"/>
        <pt x="2193" y="1280" on="0"/>
        <pt x="2323" y="1345" on="1"/>
        <pt x="2331" y="1340" on="0"/>
        <pt x="2348" y="1330" on="0"/>
      </contour>
      <contour>
        <pt x="1720" y="1289" on="1"/>
        <pt x="1720" y="1240" on="0"/>
        <pt x="1520" y="1102" on="1"/>
        <pt x="1408" y="1029" on="0"/>
        <pt x="1296" y="957" on="1"/>
        <pt x="1252" y="957" on="1"/>
        <pt x="1252" y="1011" on="1"/>
        <pt x="1251" y="1046" on="0"/>
        <pt x="1459" y="1183" on="1"/>
        <pt x="1660" y="1315" on="0"/>
        <pt x="1709" y="1324" on="1"/>
        <pt x="1709" y="1321" on="0"/>
        <pt x="1720" y="1303" on="0"/>
      </contour>
      <contour>
        <pt x="1122" y="1584" on="1"/>
        <pt x="1123" y="1547" on="0"/>
        <pt x="964" y="1455" on="1"/>
        <pt x="844" y="1389" on="0"/>
        <pt x="609" y="1243" on="1"/>
        <pt x="603" y="1248" on="0"/>
        <pt x="579" y="1262" on="0"/>
        <pt x="575" y="1266" on="1"/>
        <pt x="575" y="1299" on="0"/>
        <pt x="588" y="1322" on="1"/>
        <pt x="608" y="1359" on="0"/>
        <pt x="686" y="1405" on="1"/>
        <pt x="744" y="1438" on="0"/>
        <pt x="802" y="1470" on="1"/>
        <pt x="928" y="1550" on="0"/>
        <pt x="1099" y="1642" on="1"/>
        <pt x="1113" y="1630" on="0"/>
        <pt x="1122" y="1630" on="1"/>
      </contour>
      <contour>
        <pt x="2337" y="173" on="1"/>
        <pt x="2337" y="-58" on="0"/>
        <pt x="2218" y="-218" on="1"/>
        <pt x="2087" y="-395" on="0"/>
        <pt x="1867" y="-395" on="1"/>
        <pt x="1840" y="-395" on="0"/>
        <pt x="1735" y="-382" on="1"/>
        <pt x="1728" y="-381" on="0"/>
        <pt x="1673" y="-353" on="1"/>
        <pt x="1672" y="-345" on="0"/>
        <pt x="1662" y="-328" on="1"/>
        <pt x="1690" y="-305" on="0"/>
        <pt x="1736" y="-304" on="1"/>
        <pt x="1801" y="-303" on="0"/>
        <pt x="1812" y="-300" on="1"/>
        <pt x="1955" y="-266" on="0"/>
        <pt x="2027" y="-219" on="1"/>
        <pt x="2072" y="-190" on="0"/>
        <pt x="2159" y="-110" on="1"/>
        <pt x="2191" y="-72" on="0"/>
        <pt x="2230" y="29" on="1"/>
        <pt x="2233" y="35" on="0"/>
        <pt x="2224" y="45" on="1"/>
        <pt x="2172" y="14" on="0"/>
        <pt x="2152" y="14" on="1"/>
        <pt x="2079" y="14" on="0"/>
        <pt x="2033" y="88" on="1"/>
        <pt x="1995" y="150" on="0"/>
        <pt x="1995" y="214" on="1"/>
        <pt x="1995" y="270" on="0"/>
        <pt x="2023" y="334" on="1"/>
        <pt x="2061" y="424" on="0"/>
        <pt x="2127" y="424" on="1"/>
        <pt x="2200" y="424" on="0"/>
        <pt x="2273" y="319" on="1"/>
        <pt x="2337" y="227" on="0"/>
      </contour>
      <contour>
        <pt x="1025" y="1186" on="1"/>
        <pt x="1025" y="1163" on="0"/>
        <pt x="1009" y="1120" on="1"/>
        <pt x="990" y="1066" on="0"/>
        <pt x="961" y="1042" on="1"/>
        <pt x="922" y="1010" on="0"/>
        <pt x="840" y="976" on="1"/>
        <pt x="764" y="946" on="0"/>
        <pt x="741" y="946" on="1"/>
        <pt x="663" y="946" on="0"/>
        <pt x="663" y="1033" on="1"/>
        <pt x="663" y="1099" on="0"/>
        <pt x="731" y="1171" on="1"/>
        <pt x="757" y="1135" on="0"/>
        <pt x="741" y="1085" on="1"/>
        <pt x="757" y="1069" on="0"/>
        <pt x="771" y="1069" on="1"/>
        <pt x="790" y="1069" on="0"/>
        <pt x="806" y="1097" on="1"/>
        <pt x="822" y="1136" on="0"/>
        <pt x="874" y="1212" on="1"/>
        <pt x="884" y="1189" on="0"/>
        <pt x="914" y="1130" on="1"/>
        <pt x="935" y="1139" on="0"/>
        <pt x="956" y="1243" on="0"/>
        <pt x="1002" y="1263" on="1"/>
        <pt x="1025" y="1216" on="0"/>
      </contour>
      <contour>
        <pt x="927" y="736" on="1"/>
        <pt x="927" y="705" on="0"/>
        <pt x="865" y="639" on="0"/>
        <pt x="840" y="639" on="1"/>
        <pt x="809" y="639" on="0"/>
        <pt x="741" y="691" on="0"/>
        <pt x="741" y="715" on="1"/>
        <pt x="741" y="739" on="0"/>
        <pt x="810" y="823" on="0"/>
        <pt x="829" y="823" on="1"/>
        <pt x="861" y="823" on="0"/>
        <pt x="927" y="761" on="0"/>
      </contour>
      <contour>
        <pt x="1064" y="551" on="1"/>
        <pt x="1064" y="520" on="0"/>
        <pt x="1020" y="480" on="1"/>
        <pt x="981" y="444" on="0"/>
        <pt x="966" y="444" on="1"/>
        <pt x="955" y="444" on="0"/>
        <pt x="893" y="485" on="0"/>
        <pt x="883" y="485" on="1"/>
        <pt x="870" y="485" on="0"/>
        <pt x="807" y="424" on="0"/>
        <pt x="795" y="424" on="1"/>
        <pt x="771" y="424" on="0"/>
        <pt x="683" y="481" on="0"/>
        <pt x="683" y="496" on="1"/>
        <pt x="683" y="532" on="0"/>
        <pt x="725" y="573" on="1"/>
        <pt x="762" y="608" on="0"/>
        <pt x="780" y="608" on="1"/>
        <pt x="790" y="608" on="0"/>
        <pt x="851" y="578" on="0"/>
        <pt x="863" y="578" on="1"/>
        <pt x="876" y="578" on="0"/>
        <pt x="935" y="639" on="0"/>
        <pt x="947" y="639" on="1"/>
        <pt x="969" y="639" on="0"/>
        <pt x="1013" y="612" on="1"/>
        <pt x="1064" y="581" on="0"/>
      </contour>
      <contour>
        <pt x="1701" y="203" on="1"/>
        <pt x="1701" y="119" on="0"/>
        <pt x="1666" y="57" on="1"/>
        <pt x="1623" y="-16" on="0"/>
        <pt x="1544" y="-16" on="1"/>
        <pt x="1498" y="-16" on="0"/>
        <pt x="1444" y="7" on="1"/>
        <pt x="1386" y="31" on="0"/>
        <pt x="1363" y="66" on="1"/>
        <pt x="1300" y="-16" on="0"/>
        <pt x="1076" y="-75" on="1"/>
        <pt x="874" y="-129" on="0"/>
        <pt x="697" y="-129" on="1"/>
        <pt x="571" y="-129" on="0"/>
        <pt x="449" y="-58" on="1"/>
        <pt x="300" y="29" on="0"/>
        <pt x="300" y="173" on="1"/>
        <pt x="300" y="239" on="0"/>
        <pt x="333" y="318" on="1"/>
        <pt x="343" y="345" on="0"/>
        <pt x="413" y="393" on="1"/>
        <pt x="427" y="381" on="0"/>
        <pt x="437" y="381" on="1"/>
        <pt x="437" y="352" on="0"/>
        <pt x="408" y="238" on="0"/>
        <pt x="408" y="229" on="1"/>
        <pt x="408" y="128" on="0"/>
        <pt x="551" y="74" on="1"/>
        <pt x="651" y="34" on="0"/>
        <pt x="746" y="34" on="1"/>
        <pt x="1104" y="34" on="0"/>
        <pt x="1292" y="159" on="1"/>
        <pt x="1312" y="173" on="0"/>
        <pt x="1345" y="245" on="1"/>
        <pt x="1375" y="311" on="0"/>
        <pt x="1403" y="321" on="1"/>
        <pt x="1410" y="315" on="0"/>
        <pt x="1422" y="305" on="1"/>
        <pt x="1424" y="271" on="0"/>
        <pt x="1429" y="196" on="1"/>
        <pt x="1459" y="171" on="0"/>
        <pt x="1511" y="147" on="1"/>
        <pt x="1587" y="147" on="1"/>
        <pt x="1603" y="164" on="0"/>
        <pt x="1603" y="173" on="1"/>
        <pt x="1603" y="186" on="0"/>
        <pt x="1564" y="309" on="0"/>
        <pt x="1564" y="321" on="1"/>
        <pt x="1564" y="355" on="0"/>
        <pt x="1606" y="423" on="1"/>
        <pt x="1631" y="423" on="0"/>
        <pt x="1637" y="411" on="1"/>
        <pt x="1658" y="374" on="0"/>
        <pt x="1680" y="295" on="1"/>
        <pt x="1701" y="224" on="0"/>
      </contour>
      <contour>
        <pt x="1544" y="-339" on="1"/>
        <pt x="1544" y="-361" on="0"/>
        <pt x="1476" y="-436" on="0"/>
        <pt x="1460" y="-436" on="1"/>
        <pt x="1441" y="-436" on="0"/>
        <pt x="1338" y="-357" on="0"/>
        <pt x="1338" y="-344" on="1"/>
        <pt x="1338" y="-326" on="0"/>
        <pt x="1411" y="-241" on="0"/>
        <pt x="1427" y="-241" on="1"/>
        <pt x="1453" y="-241" on="0"/>
        <pt x="1500" y="-285" on="1"/>
        <pt x="1544" y="-326" on="0"/>
      </contour>
      <contour>
        <pt x="2201" y="193" on="1"/>
        <pt x="2158" y="259" on="0"/>
        <pt x="2126" y="270" on="1"/>
        <pt x="2114" y="264" on="0"/>
        <pt x="2093" y="247" on="1"/>
        <pt x="2093" y="212" on="1"/>
        <pt x="2125" y="178" on="0"/>
        <pt x="2161" y="178" on="1"/>
        <pt x="2186" y="178" on="0"/>
      </contour>
    </TTGlyph>
    <TTGlyph name="endash" xMin="300" yMin="-436" xMax="1324" yMax="1642">
      <contour>
        <pt x="1324" y="1315" on="1"/>
        <pt x="1324" y="1266" on="0"/>
        <pt x="1211" y="1109" on="1"/>
        <pt x="1147" y="1022" on="0"/>
        <pt x="1082" y="936" on="1"/>
        <pt x="1066" y="936" on="1"/>
        <pt x="1054" y="957" on="0"/>
        <pt x="1054" y="987" on="1"/>
        <pt x="1054" y="1030" on="0"/>
        <pt x="1160" y="1168" on="1"/>
        <pt x="1247" y="1280" on="0"/>
        <pt x="1312" y="1345" on="1"/>
        <pt x="1315" y="1340" on="0"/>
        <pt x="1324" y="1330" on="0"/>
      </contour>
      <contour>
        <pt x="1010" y="1289" on="1"/>
        <pt x="1010" y="1240" on="0"/>
        <pt x="910" y="1102" on="1"/>
        <pt x="854" y="1029" on="0"/>
        <pt x="798" y="957" on="1"/>
        <pt x="776" y="957" on="1"/>
        <pt x="776" y="1011" on="1"/>
        <pt x="775" y="1046" on="0"/>
        <pt x="880" y="1183" on="1"/>
        <pt x="980" y="1315" on="0"/>
        <pt x="1005" y="1324" on="1"/>
        <pt x="1005" y="1321" on="0"/>
        <pt x="1010" y="1303" on="0"/>
      </contour>
      <contour>
        <pt x="711" y="1584" on="1"/>
        <pt x="711" y="1547" on="0"/>
        <pt x="632" y="1455" on="1"/>
        <pt x="572" y="1389" on="0"/>
        <pt x="454" y="1243" on="1"/>
        <pt x="452" y="1248" on="0"/>
        <pt x="440" y="1262" on="0"/>
        <pt x="438" y="1266" on="1"/>
        <pt x="438" y="1299" on="0"/>
        <pt x="444" y="1322" on="1"/>
        <pt x="454" y="1359" on="0"/>
        <pt x="493" y="1405" on="1"/>
        <pt x="522" y="1438" on="0"/>
        <pt x="551" y="1470" on="1"/>
        <pt x="614" y="1550" on="0"/>
        <pt x="699" y="1642" on="1"/>
        <pt x="707" y="1630" on="0"/>
        <pt x="711" y="1630" on="1"/>
      </contour>
      <contour>
        <pt x="1319" y="173" on="1"/>
        <pt x="1319" y="-58" on="0"/>
        <pt x="1259" y="-218" on="1"/>
        <pt x="1193" y="-395" on="0"/>
        <pt x="1083" y="-395" on="1"/>
        <pt x="1070" y="-395" on="0"/>
        <pt x="1017" y="-382" on="1"/>
        <pt x="1014" y="-381" on="0"/>
        <pt x="986" y="-353" on="1"/>
        <pt x="986" y="-345" on="0"/>
        <pt x="981" y="-328" on="1"/>
        <pt x="995" y="-305" on="0"/>
        <pt x="1018" y="-304" on="1"/>
        <pt x="1050" y="-303" on="0"/>
        <pt x="1056" y="-300" on="1"/>
        <pt x="1127" y="-266" on="0"/>
        <pt x="1163" y="-219" on="1"/>
        <pt x="1186" y="-190" on="0"/>
        <pt x="1229" y="-110" on="1"/>
        <pt x="1246" y="-72" on="0"/>
        <pt x="1265" y="29" on="1"/>
        <pt x="1267" y="35" on="0"/>
        <pt x="1262" y="45" on="1"/>
        <pt x="1236" y="14" on="0"/>
        <pt x="1226" y="14" on="1"/>
        <pt x="1190" y="14" on="0"/>
        <pt x="1167" y="88" on="1"/>
        <pt x="1148" y="150" on="0"/>
        <pt x="1148" y="214" on="1"/>
        <pt x="1148" y="270" on="0"/>
        <pt x="1161" y="334" on="1"/>
        <pt x="1181" y="424" on="0"/>
        <pt x="1214" y="424" on="1"/>
        <pt x="1250" y="424" on="0"/>
        <pt x="1287" y="319" on="1"/>
        <pt x="1319" y="227" on="0"/>
      </contour>
      <contour>
        <pt x="663" y="1186" on="1"/>
        <pt x="663" y="1163" on="0"/>
        <pt x="654" y="1120" on="1"/>
        <pt x="645" y="1066" on="0"/>
        <pt x="630" y="1042" on="1"/>
        <pt x="611" y="1010" on="0"/>
        <pt x="570" y="976" on="1"/>
        <pt x="532" y="946" on="0"/>
        <pt x="520" y="946" on="1"/>
        <pt x="481" y="946" on="0"/>
        <pt x="481" y="1033" on="1"/>
        <pt x="481" y="1099" on="0"/>
        <pt x="516" y="1171" on="1"/>
        <pt x="529" y="1135" on="0"/>
        <pt x="520" y="1085" on="1"/>
        <pt x="529" y="1069" on="0"/>
        <pt x="535" y="1069" on="1"/>
        <pt x="545" y="1069" on="0"/>
        <pt x="553" y="1097" on="1"/>
        <pt x="561" y="1136" on="0"/>
        <pt x="587" y="1212" on="1"/>
        <pt x="592" y="1189" on="0"/>
        <pt x="607" y="1130" on="1"/>
        <pt x="618" y="1139" on="0"/>
        <pt x="628" y="1243" on="0"/>
        <pt x="651" y="1263" on="1"/>
        <pt x="663" y="1216" on="0"/>
      </contour>
      <contour>
        <pt x="613" y="736" on="1"/>
        <pt x="613" y="705" on="0"/>
        <pt x="583" y="639" on="0"/>
        <pt x="570" y="639" on="1"/>
        <pt x="554" y="639" on="0"/>
        <pt x="520" y="691" on="0"/>
        <pt x="520" y="715" on="1"/>
        <pt x="520" y="739" on="0"/>
        <pt x="555" y="823" on="0"/>
        <pt x="564" y="823" on="1"/>
        <pt x="580" y="823" on="0"/>
        <pt x="613" y="761" on="0"/>
      </contour>
      <contour>
        <pt x="682" y="551" on="1"/>
        <pt x="682" y="520" on="0"/>
        <pt x="660" y="480" on="1"/>
        <pt x="641" y="444" on="0"/>
        <pt x="633" y="444" on="1"/>
        <pt x="628" y="444" on="0"/>
        <pt x="597" y="485" on="0"/>
        <pt x="591" y="485" on="1"/>
        <pt x="585" y="485" on="0"/>
        <pt x="553" y="424" on="0"/>
        <pt x="548" y="424" on="1"/>
        <pt x="535" y="424" on="0"/>
        <pt x="491" y="481" on="0"/>
        <pt x="491" y="496" on="1"/>
        <pt x="491" y="532" on="0"/>
        <pt x="512" y="573" on="1"/>
        <pt x="531" y="608" on="0"/>
        <pt x="540" y="608" on="1"/>
        <pt x="545" y="608" on="0"/>
        <pt x="575" y="578" on="0"/>
        <pt x="582" y="578" on="1"/>
        <pt x="588" y="578" on="0"/>
        <pt x="618" y="639" on="0"/>
        <pt x="623" y="639" on="1"/>
        <pt x="634" y="639" on="0"/>
        <pt x="656" y="612" on="1"/>
        <pt x="682" y="581" on="0"/>
      </contour>
      <contour>
        <pt x="1001" y="203" on="1"/>
        <pt x="1001" y="119" on="0"/>
        <pt x="983" y="57" on="1"/>
        <pt x="961" y="-16" on="0"/>
        <pt x="922" y="-16" on="1"/>
        <pt x="899" y="-16" on="0"/>
        <pt x="872" y="7" on="1"/>
        <pt x="843" y="31" on="0"/>
        <pt x="831" y="66" on="1"/>
        <pt x="800" y="-16" on="0"/>
        <pt x="688" y="-75" on="1"/>
        <pt x="587" y="-129" on="0"/>
        <pt x="498" y="-129" on="1"/>
        <pt x="435" y="-129" on="0"/>
        <pt x="375" y="-58" on="1"/>
        <pt x="300" y="29" on="0"/>
        <pt x="300" y="173" on="1"/>
        <pt x="300" y="239" on="0"/>
        <pt x="316" y="318" on="1"/>
        <pt x="322" y="345" on="0"/>
        <pt x="356" y="393" on="1"/>
        <pt x="364" y="381" on="0"/>
        <pt x="368" y="381" on="1"/>
        <pt x="368" y="352" on="0"/>
        <pt x="354" y="238" on="0"/>
        <pt x="354" y="229" on="1"/>
        <pt x="354" y="128" on="0"/>
        <pt x="425" y="74" on="1"/>
        <pt x="476" y="34" on="0"/>
        <pt x="523" y="34" on="1"/>
        <pt x="702" y="34" on="0"/>
        <pt x="796" y="159" on="1"/>
        <pt x="806" y="173" on="0"/>
        <pt x="822" y="245" on="1"/>
        <pt x="838" y="311" on="0"/>
        <pt x="851" y="321" on="1"/>
        <pt x="855" y="315" on="0"/>
        <pt x="861" y="305" on="1"/>
        <pt x="862" y="271" on="0"/>
        <pt x="864" y="196" on="1"/>
        <pt x="880" y="171" on="0"/>
        <pt x="906" y="147" on="1"/>
        <pt x="943" y="147" on="1"/>
        <pt x="951" y="164" on="0"/>
        <pt x="951" y="173" on="1"/>
        <pt x="951" y="186" on="0"/>
        <pt x="932" y="309" on="0"/>
        <pt x="932" y="321" on="1"/>
        <pt x="932" y="355" on="0"/>
        <pt x="953" y="423" on="1"/>
        <pt x="965" y="423" on="0"/>
        <pt x="969" y="411" on="1"/>
        <pt x="979" y="374" on="0"/>
        <pt x="990" y="295" on="1"/>
        <pt x="1001" y="224" on="0"/>
      </contour>
      <contour>
        <pt x="922" y="-339" on="1"/>
        <pt x="922" y="-361" on="0"/>
        <pt x="888" y="-436" on="0"/>
        <pt x="880" y="-436" on="1"/>
        <pt x="871" y="-436" on="0"/>
        <pt x="819" y="-357" on="0"/>
        <pt x="819" y="-344" on="1"/>
        <pt x="819" y="-326" on="0"/>
        <pt x="855" y="-241" on="0"/>
        <pt x="863" y="-241" on="1"/>
        <pt x="876" y="-241" on="0"/>
        <pt x="900" y="-285" on="1"/>
        <pt x="922" y="-326" on="0"/>
      </contour>
      <contour>
        <pt x="1250" y="193" on="1"/>
        <pt x="1229" y="259" on="0"/>
        <pt x="1213" y="270" on="1"/>
        <pt x="1207" y="264" on="0"/>
        <pt x="1196" y="247" on="1"/>
        <pt x="1196" y="212" on="1"/>
        <pt x="1213" y="178" on="0"/>
        <pt x="1231" y="178" on="1"/>
        <pt x="1243" y="178" on="0"/>
      </contour>
    </TTGlyph>
    <TTGlyph name="equal" xMin="142" yMin="226" xMax="842" yMax="1588">
      <contour>
        <pt x="142" y="226" on="1"/>
        <pt x="142" y="1588" on="1"/>
        <pt x="842" y="1588" on="1"/>
        <pt x="842" y="226" on="1"/>
      </contour>
      <contour>
        <pt x="284" y="368" on="1"/>
        <pt x="700" y="368" on="1"/>
        <pt x="700" y="1447" on="1"/>
        <pt x="284" y="1447" on="1"/>
      </contour>
    </TTGlyph>
    <TTGlyph name="exclam" xMin="142" yMin="226" xMax="842" yMax="1588">
      <contour>
        <pt x="142" y="226" on="1"/>
        <pt x="142" y="1588" on="1"/>
        <pt x="842" y="1588" on="1"/>
        <pt x="842" y="226" on="1"/>
      </contour>
      <contour>
        <pt x="284" y="368" on="1"/>
        <pt x="700" y="368" on="1"/>
        <pt x="700" y="1447" on="1"/>
        <pt x="284" y="1447" on="1"/>
      </contour>
    </TTGlyph>
    <TTGlyph name="figuredash" xMin="300" yMin="-436" xMax="2441" yMax="1642">
      <contour>
        <pt x="2441" y="1315" on="1"/>
        <pt x="2441" y="1266" on="0"/>
        <pt x="2205" y="1109" on="1"/>
        <pt x="2070" y="1022" on="0"/>
        <pt x="1935" y="936" on="1"/>
        <pt x="1901" y="936" on="1"/>
        <pt x="1877" y="957" on="0"/>
        <pt x="1877" y="987" on="1"/>
        <pt x="1877" y="1030" on="0"/>
        <pt x="2099" y="1168" on="1"/>
        <pt x="2279" y="1280" on="0"/>
        <pt x="2415" y="1345" on="1"/>
        <pt x="2423" y="1340" on="0"/>
        <pt x="2441" y="1330" on="0"/>
      </contour>
      <contour>
        <pt x="1785" y="1289" on="1"/>
        <pt x="1785" y="1240" on="0"/>
        <pt x="1575" y="1102" on="1"/>
        <pt x="1458" y="1029" on="0"/>
        <pt x="1341" y="957" on="1"/>
        <pt x="1295" y="957" on="1"/>
        <pt x="1295" y="1011" on="1"/>
        <pt x="1294" y="1046" on="0"/>
        <pt x="1512" y="1183" on="1"/>
        <pt x="1722" y="1315" on="0"/>
        <pt x="1773" y="1324" on="1"/>
        <pt x="1773" y="1321" on="0"/>
        <pt x="1785" y="1303" on="0"/>
      </contour>
      <contour>
        <pt x="1159" y="1584" on="1"/>
        <pt x="1160" y="1547" on="0"/>
        <pt x="994" y="1455" on="1"/>
        <pt x="869" y="1389" on="0"/>
        <pt x="623" y="1243" on="1"/>
        <pt x="617" y="1248" on="0"/>
        <pt x="592" y="1262" on="0"/>
        <pt x="588" y="1266" on="1"/>
        <pt x="588" y="1299" on="0"/>
        <pt x="601" y="1322" on="1"/>
        <pt x="622" y="1359" on="0"/>
        <pt x="704" y="1405" on="1"/>
        <pt x="764" y="1438" on="0"/>
        <pt x="825" y="1470" on="1"/>
        <pt x="956" y="1550" on="0"/>
        <pt x="1135" y="1642" on="1"/>
        <pt x="1150" y="1630" on="0"/>
        <pt x="1159" y="1630" on="1"/>
      </contour>
      <contour>
        <pt x="2430" y="173" on="1"/>
        <pt x="2430" y="-58" on="0"/>
        <pt x="2305" y="-218" on="1"/>
        <pt x="2168" y="-395" on="0"/>
        <pt x="1938" y="-395" on="1"/>
        <pt x="1910" y="-395" on="0"/>
        <pt x="1800" y="-382" on="1"/>
        <pt x="1793" y="-381" on="0"/>
        <pt x="1735" y="-353" on="1"/>
        <pt x="1734" y="-345" on="0"/>
        <pt x="1724" y="-328" on="1"/>
        <pt x="1753" y="-305" on="0"/>
        <pt x="1801" y="-304" on="1"/>
        <pt x="1869" y="-303" on="0"/>
        <pt x="1881" y="-300" on="1"/>
        <pt x="2030" y="-266" on="0"/>
        <pt x="2105" y="-219" on="1"/>
        <pt x="2152" y="-190" on="0"/>
        <pt x="2243" y="-110" on="1"/>
        <pt x="2277" y="-72" on="0"/>
        <pt x="2318" y="29" on="1"/>
        <pt x="2321" y="35" on="0"/>
        <pt x="2311" y="45" on="1"/>
        <pt x="2257" y="14" on="0"/>
        <pt x="2236" y="14" on="1"/>
        <pt x="2160" y="14" on="0"/>
        <pt x="2112" y="88" on="1"/>
        <pt x="2072" y="150" on="0"/>
        <pt x="2072" y="214" on="1"/>
        <pt x="2072" y="270" on="0"/>
        <pt x="2101" y="334" on="1"/>
        <pt x="2141" y="424" on="0"/>
        <pt x="2210" y="424" on="1"/>
        <pt x="2286" y="424" on="0"/>
        <pt x="2363" y="319" on="1"/>
        <pt x="2430" y="227" on="0"/>
      </contour>
      <contour>
        <pt x="1058" y="1186" on="1"/>
        <pt x="1058" y="1163" on="0"/>
        <pt x="1041" y="1120" on="1"/>
        <pt x="1021" y="1066" on="0"/>
        <pt x="991" y="1042" on="1"/>
        <pt x="950" y="1010" on="0"/>
        <pt x="864" y="976" on="1"/>
        <pt x="785" y="946" on="0"/>
        <pt x="761" y="946" on="1"/>
        <pt x="679" y="946" on="0"/>
        <pt x="679" y="1033" on="1"/>
        <pt x="679" y="1099" on="0"/>
        <pt x="751" y="1171" on="1"/>
        <pt x="778" y="1135" on="0"/>
        <pt x="761" y="1085" on="1"/>
        <pt x="778" y="1069" on="0"/>
        <pt x="792" y="1069" on="1"/>
        <pt x="812" y="1069" on="0"/>
        <pt x="829" y="1097" on="1"/>
        <pt x="846" y="1136" on="0"/>
        <pt x="900" y="1212" on="1"/>
        <pt x="910" y="1189" on="0"/>
        <pt x="942" y="1130" on="1"/>
        <pt x="964" y="1139" on="0"/>
        <pt x="986" y="1243" on="0"/>
        <pt x="1034" y="1263" on="1"/>
        <pt x="1058" y="1216" on="0"/>
      </contour>
      <contour>
        <pt x="955" y="736" on="1"/>
        <pt x="955" y="705" on="0"/>
        <pt x="891" y="639" on="0"/>
        <pt x="864" y="639" on="1"/>
        <pt x="832" y="639" on="0"/>
        <pt x="761" y="691" on="0"/>
        <pt x="761" y="715" on="1"/>
        <pt x="761" y="739" on="0"/>
        <pt x="833" y="823" on="0"/>
        <pt x="853" y="823" on="1"/>
        <pt x="886" y="823" on="0"/>
        <pt x="955" y="761" on="0"/>
      </contour>
      <contour>
        <pt x="1099" y="551" on="1"/>
        <pt x="1099" y="520" on="0"/>
        <pt x="1053" y="480" on="1"/>
        <pt x="1012" y="444" on="0"/>
        <pt x="996" y="444" on="1"/>
        <pt x="985" y="444" on="0"/>
        <pt x="920" y="485" on="0"/>
        <pt x="909" y="485" on="1"/>
        <pt x="896" y="485" on="0"/>
        <pt x="830" y="424" on="0"/>
        <pt x="818" y="424" on="1"/>
        <pt x="792" y="424" on="0"/>
        <pt x="700" y="481" on="0"/>
        <pt x="700" y="496" on="1"/>
        <pt x="700" y="532" on="0"/>
        <pt x="744" y="573" on="1"/>
        <pt x="783" y="608" on="0"/>
        <pt x="802" y="608" on="1"/>
        <pt x="812" y="608" on="0"/>
        <pt x="876" y="578" on="0"/>
        <pt x="889" y="578" on="1"/>
        <pt x="902" y="578" on="0"/>
        <pt x="964" y="639" on="0"/>
        <pt x="976" y="639" on="1"/>
        <pt x="999" y="639" on="0"/>
        <pt x="1045" y="612" on="1"/>
        <pt x="1099" y="581" on="0"/>
      </contour>
      <contour>
        <pt x="1765" y="203" on="1"/>
        <pt x="1765" y="119" on="0"/>
        <pt x="1728" y="57" on="1"/>
        <pt x="1683" y="-16" on="0"/>
        <pt x="1601" y="-16" on="1"/>
        <pt x="1552" y="-16" on="0"/>
        <pt x="1496" y="7" on="1"/>
        <pt x="1435" y="31" on="0"/>
        <pt x="1411" y="66" on="1"/>
        <pt x="1345" y="-16" on="0"/>
        <pt x="1111" y="-75" on="1"/>
        <pt x="900" y="-129" on="0"/>
        <pt x="715" y="-129" on="1"/>
        <pt x="583" y="-129" on="0"/>
        <pt x="456" y="-58" on="1"/>
        <pt x="300" y="29" on="0"/>
        <pt x="300" y="173" on="1"/>
        <pt x="300" y="239" on="0"/>
        <pt x="334" y="318" on="1"/>
        <pt x="345" y="345" on="0"/>
        <pt x="418" y="393" on="1"/>
        <pt x="433" y="381" on="0"/>
        <pt x="443" y="381" on="1"/>
        <pt x="443" y="352" on="0"/>
        <pt x="413" y="238" on="0"/>
        <pt x="413" y="229" on="1"/>
        <pt x="413" y="128" on="0"/>
        <pt x="562" y="74" on="1"/>
        <pt x="667" y="34" on="0"/>
        <pt x="766" y="34" on="1"/>
        <pt x="1140" y="34" on="0"/>
        <pt x="1337" y="159" on="1"/>
        <pt x="1358" y="173" on="0"/>
        <pt x="1392" y="245" on="1"/>
        <pt x="1424" y="311" on="0"/>
        <pt x="1453" y="321" on="1"/>
        <pt x="1460" y="315" on="0"/>
        <pt x="1473" y="305" on="1"/>
        <pt x="1475" y="271" on="0"/>
        <pt x="1480" y="196" on="1"/>
        <pt x="1512" y="171" on="0"/>
        <pt x="1566" y="147" on="1"/>
        <pt x="1645" y="147" on="1"/>
        <pt x="1662" y="164" on="0"/>
        <pt x="1662" y="173" on="1"/>
        <pt x="1662" y="186" on="0"/>
        <pt x="1621" y="309" on="0"/>
        <pt x="1621" y="321" on="1"/>
        <pt x="1621" y="355" on="0"/>
        <pt x="1665" y="423" on="1"/>
        <pt x="1691" y="423" on="0"/>
        <pt x="1698" y="411" on="1"/>
        <pt x="1720" y="374" on="0"/>
        <pt x="1743" y="295" on="1"/>
        <pt x="1765" y="224" on="0"/>
      </contour>
      <contour>
        <pt x="1601" y="-339" on="1"/>
        <pt x="1601" y="-361" on="0"/>
        <pt x="1529" y="-436" on="0"/>
        <pt x="1513" y="-436" on="1"/>
        <pt x="1493" y="-436" on="0"/>
        <pt x="1385" y="-357" on="0"/>
        <pt x="1385" y="-344" on="1"/>
        <pt x="1385" y="-326" on="0"/>
        <pt x="1461" y="-241" on="0"/>
        <pt x="1478" y="-241" on="1"/>
        <pt x="1505" y="-241" on="0"/>
        <pt x="1554" y="-285" on="1"/>
        <pt x="1601" y="-326" on="0"/>
      </contour>
      <contour>
        <pt x="2287" y="193" on="1"/>
        <pt x="2242" y="259" on="0"/>
        <pt x="2209" y="270" on="1"/>
        <pt x="2196" y="264" on="0"/>
        <pt x="2174" y="247" on="1"/>
        <pt x="2174" y="212" on="1"/>
        <pt x="2208" y="178" on="0"/>
        <pt x="2246" y="178" on="1"/>
        <pt x="2272" y="178" on="0"/>
      </contour>
    </TTGlyph>
    <TTGlyph name="gaffinalarabic" xMin="142" yMin="226" xMax="842" yMax="1588">
      <contour>
        <pt x="142" y="226" on="1"/>
        <pt x="142" y="1588" on="1"/>
        <pt x="842" y="1588" on="1"/>
        <pt x="842" y="226" on="1"/>
      </contour>
      <contour>
        <pt x="284" y="368" on="1"/>
        <pt x="700" y="368" on="1"/>
        <pt x="700" y="1447" on="1"/>
        <pt x="284" y="1447" on="1"/>
      </contour>
    </TTGlyph>
    <TTGlyph name="gafinitialarabic" xMin="142" yMin="226" xMax="842" yMax="1588">
      <contour>
        <pt x="142" y="226" on="1"/>
        <pt x="142" y="1588" on="1"/>
        <pt x="842" y="1588" on="1"/>
        <pt x="842" y="226" on="1"/>
      </contour>
      <contour>
        <pt x="284" y="368" on="1"/>
        <pt x="700" y="368" on="1"/>
        <pt x="700" y="1447" on="1"/>
        <pt x="284" y="1447" on="1"/>
      </contour>
    </TTGlyph>
    <TTGlyph name="gafmedialarabic" xMin="142" yMin="226" xMax="842" yMax="1588">
      <contour>
        <pt x="142" y="226" on="1"/>
        <pt x="142" y="1588" on="1"/>
        <pt x="842" y="1588" on="1"/>
        <pt x="842" y="226" on="1"/>
      </contour>
      <contour>
        <pt x="284" y="368" on="1"/>
        <pt x="700" y="368" on="1"/>
        <pt x="700" y="1447" on="1"/>
        <pt x="284" y="1447" on="1"/>
      </contour>
    </TTGlyph>
    <TTGlyph name="glyph41" xMin="142" yMin="226" xMax="842" yMax="1588">
      <contour>
        <pt x="142" y="226" on="1"/>
        <pt x="142" y="1588" on="1"/>
        <pt x="842" y="1588" on="1"/>
        <pt x="842" y="226" on="1"/>
      </contour>
      <contour>
        <pt x="284" y="368" on="1"/>
        <pt x="700" y="368" on="1"/>
        <pt x="700" y="1447" on="1"/>
        <pt x="284" y="1447" on="1"/>
      </contour>
    </TTGlyph>
    <TTGlyph name="glyph42" xMin="142" yMin="226" xMax="842" yMax="1588">
      <contour>
        <pt x="142" y="226" on="1"/>
        <pt x="142" y="1588" on="1"/>
        <pt x="842" y="1588" on="1"/>
        <pt x="842" y="226" on="1"/>
      </contour>
      <contour>
        <pt x="284" y="368" on="1"/>
        <pt x="700" y="368" on="1"/>
        <pt x="700" y="1447" on="1"/>
        <pt x="284" y="1447" on="1"/>
      </contour>
    </TTGlyph>
    <TTGlyph name="glyph43" xMin="142" yMin="226" xMax="842" yMax="1588">
      <contour>
        <pt x="142" y="226" on="1"/>
        <pt x="142" y="1588" on="1"/>
        <pt x="842" y="1588" on="1"/>
        <pt x="842" y="226" on="1"/>
      </contour>
      <contour>
        <pt x="284" y="368" on="1"/>
        <pt x="700" y="368" on="1"/>
        <pt x="700" y="1447" on="1"/>
        <pt x="284" y="1447" on="1"/>
      </contour>
    </TTGlyph>
    <TTGlyph name="glyph44" xMin="142" yMin="226" xMax="842" yMax="1588">
      <contour>
        <pt x="142" y="226" on="1"/>
        <pt x="142" y="1588" on="1"/>
        <pt x="842" y="1588" on="1"/>
        <pt x="842" y="226" on="1"/>
      </contour>
      <contour>
        <pt x="284" y="368" on="1"/>
        <pt x="700" y="368" on="1"/>
        <pt x="700" y="1447" on="1"/>
        <pt x="284" y="1447" on="1"/>
      </contour>
    </TTGlyph>
    <TTGlyph name="glyph45" xMin="142" yMin="226" xMax="842" yMax="1588">
      <contour>
        <pt x="142" y="226" on="1"/>
        <pt x="142" y="1588" on="1"/>
        <pt x="842" y="1588" on="1"/>
        <pt x="842" y="226" on="1"/>
      </contour>
      <contour>
        <pt x="284" y="368" on="1"/>
        <pt x="700" y="368" on="1"/>
        <pt x="700" y="1447" on="1"/>
        <pt x="284" y="1447" on="1"/>
      </contour>
    </TTGlyph>
    <TTGlyph name="glyph46" xMin="142" yMin="226" xMax="842" yMax="1588">
      <contour>
        <pt x="142" y="226" on="1"/>
        <pt x="142" y="1588" on="1"/>
        <pt x="842" y="1588" on="1"/>
        <pt x="842" y="226" on="1"/>
      </contour>
      <contour>
        <pt x="284" y="368" on="1"/>
        <pt x="700" y="368" on="1"/>
        <pt x="700" y="1447" on="1"/>
        <pt x="284" y="1447" on="1"/>
      </contour>
    </TTGlyph>
    <TTGlyph name="glyph47" xMin="142" yMin="226" xMax="842" yMax="1588">
      <contour>
        <pt x="142" y="226" on="1"/>
        <pt x="142" y="1588" on="1"/>
        <pt x="842" y="1588" on="1"/>
        <pt x="842" y="226" on="1"/>
      </contour>
      <contour>
        <pt x="284" y="368" on="1"/>
        <pt x="700" y="368" on="1"/>
        <pt x="700" y="1447" on="1"/>
        <pt x="284" y="1447" on="1"/>
      </contour>
    </TTGlyph>
    <TTGlyph name="glyph48" xMin="142" yMin="226" xMax="842" yMax="1588">
      <contour>
        <pt x="142" y="226" on="1"/>
        <pt x="142" y="1588" on="1"/>
        <pt x="842" y="1588" on="1"/>
        <pt x="842" y="226" on="1"/>
      </contour>
      <contour>
        <pt x="284" y="368" on="1"/>
        <pt x="700" y="368" on="1"/>
        <pt x="700" y="1447" on="1"/>
        <pt x="284" y="1447" on="1"/>
      </contour>
    </TTGlyph>
    <TTGlyph name="glyph50" xMin="142" yMin="226" xMax="842" yMax="1588">
      <contour>
        <pt x="142" y="226" on="1"/>
        <pt x="142" y="1588" on="1"/>
        <pt x="842" y="1588" on="1"/>
        <pt x="842" y="226" on="1"/>
      </contour>
      <contour>
        <pt x="284" y="368" on="1"/>
        <pt x="700" y="368" on="1"/>
        <pt x="700" y="1447" on="1"/>
        <pt x="284" y="1447" on="1"/>
      </contour>
    </TTGlyph>
    <TTGlyph name="glyph51" xMin="142" yMin="226" xMax="842" yMax="1588">
      <contour>
        <pt x="142" y="226" on="1"/>
        <pt x="142" y="1588" on="1"/>
        <pt x="842" y="1588" on="1"/>
        <pt x="842" y="226" on="1"/>
      </contour>
      <contour>
        <pt x="284" y="368" on="1"/>
        <pt x="700" y="368" on="1"/>
        <pt x="700" y="1447" on="1"/>
        <pt x="284" y="1447" on="1"/>
      </contour>
    </TTGlyph>
    <TTGlyph name="greater" xMin="142" yMin="226" xMax="842" yMax="1588">
      <contour>
        <pt x="142" y="226" on="1"/>
        <pt x="142" y="1588" on="1"/>
        <pt x="842" y="1588" on="1"/>
        <pt x="842" y="226" on="1"/>
      </contour>
      <contour>
        <pt x="284" y="368" on="1"/>
        <pt x="700" y="368" on="1"/>
        <pt x="700" y="1447" on="1"/>
        <pt x="284" y="1447" on="1"/>
      </contour>
    </TTGlyph>
    <TTGlyph name="hahhamzabovefinal" xMin="142" yMin="226" xMax="842" yMax="1588">
      <contour>
        <pt x="142" y="226" on="1"/>
        <pt x="142" y="1588" on="1"/>
        <pt x="842" y="1588" on="1"/>
        <pt x="842" y="226" on="1"/>
      </contour>
      <contour>
        <pt x="284" y="368" on="1"/>
        <pt x="700" y="368" on="1"/>
        <pt x="700" y="1447" on="1"/>
        <pt x="284" y="1447" on="1"/>
      </contour>
    </TTGlyph>
    <TTGlyph name="hahhamzaboveinitial" xMin="142" yMin="226" xMax="842" yMax="1588">
      <contour>
        <pt x="142" y="226" on="1"/>
        <pt x="142" y="1588" on="1"/>
        <pt x="842" y="1588" on="1"/>
        <pt x="842" y="226" on="1"/>
      </contour>
      <contour>
        <pt x="284" y="368" on="1"/>
        <pt x="700" y="368" on="1"/>
        <pt x="700" y="1447" on="1"/>
        <pt x="284" y="1447" on="1"/>
      </contour>
    </TTGlyph>
    <TTGlyph name="hahhamzabovemedial" xMin="142" yMin="226" xMax="842" yMax="1588">
      <contour>
        <pt x="142" y="226" on="1"/>
        <pt x="142" y="1588" on="1"/>
        <pt x="842" y="1588" on="1"/>
        <pt x="842" y="226" on="1"/>
      </contour>
      <contour>
        <pt x="284" y="368" on="1"/>
        <pt x="700" y="368" on="1"/>
        <pt x="700" y="1447" on="1"/>
        <pt x="284" y="1447" on="1"/>
      </contour>
    </TTGlyph>
    <TTGlyph name="hahthreedotsabovefinal" xMin="142" yMin="226" xMax="842" yMax="1588">
      <contour>
        <pt x="142" y="226" on="1"/>
        <pt x="142" y="1588" on="1"/>
        <pt x="842" y="1588" on="1"/>
        <pt x="842" y="226" on="1"/>
      </contour>
      <contour>
        <pt x="284" y="368" on="1"/>
        <pt x="700" y="368" on="1"/>
        <pt x="700" y="1447" on="1"/>
        <pt x="284" y="1447" on="1"/>
      </contour>
    </TTGlyph>
    <TTGlyph name="hahthreedotsaboveinitial" xMin="142" yMin="226" xMax="842" yMax="1588">
      <contour>
        <pt x="142" y="226" on="1"/>
        <pt x="142" y="1588" on="1"/>
        <pt x="842" y="1588" on="1"/>
        <pt x="842" y="226" on="1"/>
      </contour>
      <contour>
        <pt x="284" y="368" on="1"/>
        <pt x="700" y="368" on="1"/>
        <pt x="700" y="1447" on="1"/>
        <pt x="284" y="1447" on="1"/>
      </contour>
    </TTGlyph>
    <TTGlyph name="hahthreedotsabovemedial" xMin="142" yMin="226" xMax="842" yMax="1588">
      <contour>
        <pt x="142" y="226" on="1"/>
        <pt x="142" y="1588" on="1"/>
        <pt x="842" y="1588" on="1"/>
        <pt x="842" y="226" on="1"/>
      </contour>
      <contour>
        <pt x="284" y="368" on="1"/>
        <pt x="700" y="368" on="1"/>
        <pt x="700" y="1447" on="1"/>
        <pt x="284" y="1447" on="1"/>
      </contour>
    </TTGlyph>
    <TTGlyph name="hehdoachashmeefinalarabic" xMin="142" yMin="226" xMax="842" yMax="1588">
      <contour>
        <pt x="142" y="226" on="1"/>
        <pt x="142" y="1588" on="1"/>
        <pt x="842" y="1588" on="1"/>
        <pt x="842" y="226" on="1"/>
      </contour>
      <contour>
        <pt x="284" y="368" on="1"/>
        <pt x="700" y="368" on="1"/>
        <pt x="700" y="1447" on="1"/>
        <pt x="284" y="1447" on="1"/>
      </contour>
    </TTGlyph>
    <TTGlyph name="hehdoachashmeeinitialarabic" xMin="142" yMin="226" xMax="842" yMax="1588">
      <contour>
        <pt x="142" y="226" on="1"/>
        <pt x="142" y="1588" on="1"/>
        <pt x="842" y="1588" on="1"/>
        <pt x="842" y="226" on="1"/>
      </contour>
      <contour>
        <pt x="284" y="368" on="1"/>
        <pt x="700" y="368" on="1"/>
        <pt x="700" y="1447" on="1"/>
        <pt x="284" y="1447" on="1"/>
      </contour>
    </TTGlyph>
    <TTGlyph name="hehdoachashmeemedialarabic" xMin="142" yMin="226" xMax="842" yMax="1588">
      <contour>
        <pt x="142" y="226" on="1"/>
        <pt x="142" y="1588" on="1"/>
        <pt x="842" y="1588" on="1"/>
        <pt x="842" y="226" on="1"/>
      </contour>
      <contour>
        <pt x="284" y="368" on="1"/>
        <pt x="700" y="368" on="1"/>
        <pt x="700" y="1447" on="1"/>
        <pt x="284" y="1447" on="1"/>
      </contour>
    </TTGlyph>
    <TTGlyph name="hehfinalaltonearabic" xMin="142" yMin="226" xMax="842" yMax="1588">
      <contour>
        <pt x="142" y="226" on="1"/>
        <pt x="142" y="1588" on="1"/>
        <pt x="842" y="1588" on="1"/>
        <pt x="842" y="226" on="1"/>
      </contour>
      <contour>
        <pt x="284" y="368" on="1"/>
        <pt x="700" y="368" on="1"/>
        <pt x="700" y="1447" on="1"/>
        <pt x="284" y="1447" on="1"/>
      </contour>
    </TTGlyph>
    <TTGlyph name="hehhamzaabovefinalarabic" xMin="142" yMin="226" xMax="842" yMax="1588">
      <contour>
        <pt x="142" y="226" on="1"/>
        <pt x="142" y="1588" on="1"/>
        <pt x="842" y="1588" on="1"/>
        <pt x="842" y="226" on="1"/>
      </contour>
      <contour>
        <pt x="284" y="368" on="1"/>
        <pt x="700" y="368" on="1"/>
        <pt x="700" y="1447" on="1"/>
        <pt x="284" y="1447" on="1"/>
      </contour>
    </TTGlyph>
    <TTGlyph name="hehinitialaltonearabic" xMin="142" yMin="226" xMax="842" yMax="1588">
      <contour>
        <pt x="142" y="226" on="1"/>
        <pt x="142" y="1588" on="1"/>
        <pt x="842" y="1588" on="1"/>
        <pt x="842" y="226" on="1"/>
      </contour>
      <contour>
        <pt x="284" y="368" on="1"/>
        <pt x="700" y="368" on="1"/>
        <pt x="700" y="1447" on="1"/>
        <pt x="284" y="1447" on="1"/>
      </contour>
    </TTGlyph>
    <TTGlyph name="hehmedialaltonearabic" xMin="142" yMin="226" xMax="842" yMax="1588">
      <contour>
        <pt x="142" y="226" on="1"/>
        <pt x="142" y="1588" on="1"/>
        <pt x="842" y="1588" on="1"/>
        <pt x="842" y="226" on="1"/>
      </contour>
      <contour>
        <pt x="284" y="368" on="1"/>
        <pt x="700" y="368" on="1"/>
        <pt x="700" y="1447" on="1"/>
        <pt x="284" y="1447" on="1"/>
      </contour>
    </TTGlyph>
    <TTGlyph name="hyphen" xMin="300" yMin="-436" xMax="2441" yMax="1642">
      <contour>
        <pt x="2441" y="1315" on="1"/>
        <pt x="2441" y="1266" on="0"/>
        <pt x="2205" y="1109" on="1"/>
        <pt x="2070" y="1022" on="0"/>
        <pt x="1935" y="936" on="1"/>
        <pt x="1901" y="936" on="1"/>
        <pt x="1877" y="957" on="0"/>
        <pt x="1877" y="987" on="1"/>
        <pt x="1877" y="1030" on="0"/>
        <pt x="2099" y="1168" on="1"/>
        <pt x="2279" y="1280" on="0"/>
        <pt x="2415" y="1345" on="1"/>
        <pt x="2423" y="1340" on="0"/>
        <pt x="2441" y="1330" on="0"/>
      </contour>
      <contour>
        <pt x="1785" y="1289" on="1"/>
        <pt x="1785" y="1240" on="0"/>
        <pt x="1575" y="1102" on="1"/>
        <pt x="1458" y="1029" on="0"/>
        <pt x="1341" y="957" on="1"/>
        <pt x="1295" y="957" on="1"/>
        <pt x="1295" y="1011" on="1"/>
        <pt x="1294" y="1046" on="0"/>
        <pt x="1512" y="1183" on="1"/>
        <pt x="1722" y="1315" on="0"/>
        <pt x="1773" y="1324" on="1"/>
        <pt x="1773" y="1321" on="0"/>
        <pt x="1785" y="1303" on="0"/>
      </contour>
      <contour>
        <pt x="1159" y="1584" on="1"/>
        <pt x="1160" y="1547" on="0"/>
        <pt x="994" y="1455" on="1"/>
        <pt x="869" y="1389" on="0"/>
        <pt x="623" y="1243" on="1"/>
        <pt x="617" y="1248" on="0"/>
        <pt x="592" y="1262" on="0"/>
        <pt x="588" y="1266" on="1"/>
        <pt x="588" y="1299" on="0"/>
        <pt x="601" y="1322" on="1"/>
        <pt x="622" y="1359" on="0"/>
        <pt x="704" y="1405" on="1"/>
        <pt x="764" y="1438" on="0"/>
        <pt x="825" y="1470" on="1"/>
        <pt x="956" y="1550" on="0"/>
        <pt x="1135" y="1642" on="1"/>
        <pt x="1150" y="1630" on="0"/>
        <pt x="1159" y="1630" on="1"/>
      </contour>
      <contour>
        <pt x="2430" y="173" on="1"/>
        <pt x="2430" y="-58" on="0"/>
        <pt x="2305" y="-218" on="1"/>
        <pt x="2168" y="-395" on="0"/>
        <pt x="1938" y="-395" on="1"/>
        <pt x="1910" y="-395" on="0"/>
        <pt x="1800" y="-382" on="1"/>
        <pt x="1793" y="-381" on="0"/>
        <pt x="1735" y="-353" on="1"/>
        <pt x="1734" y="-345" on="0"/>
        <pt x="1724" y="-328" on="1"/>
        <pt x="1753" y="-305" on="0"/>
        <pt x="1801" y="-304" on="1"/>
        <pt x="1869" y="-303" on="0"/>
        <pt x="1881" y="-300" on="1"/>
        <pt x="2030" y="-266" on="0"/>
        <pt x="2105" y="-219" on="1"/>
        <pt x="2152" y="-190" on="0"/>
        <pt x="2243" y="-110" on="1"/>
        <pt x="2277" y="-72" on="0"/>
        <pt x="2318" y="29" on="1"/>
        <pt x="2321" y="35" on="0"/>
        <pt x="2311" y="45" on="1"/>
        <pt x="2257" y="14" on="0"/>
        <pt x="2236" y="14" on="1"/>
        <pt x="2160" y="14" on="0"/>
        <pt x="2112" y="88" on="1"/>
        <pt x="2072" y="150" on="0"/>
        <pt x="2072" y="214" on="1"/>
        <pt x="2072" y="270" on="0"/>
        <pt x="2101" y="334" on="1"/>
        <pt x="2141" y="424" on="0"/>
        <pt x="2210" y="424" on="1"/>
        <pt x="2286" y="424" on="0"/>
        <pt x="2363" y="319" on="1"/>
        <pt x="2430" y="227" on="0"/>
      </contour>
      <contour>
        <pt x="1058" y="1186" on="1"/>
        <pt x="1058" y="1163" on="0"/>
        <pt x="1041" y="1120" on="1"/>
        <pt x="1021" y="1066" on="0"/>
        <pt x="991" y="1042" on="1"/>
        <pt x="950" y="1010" on="0"/>
        <pt x="864" y="976" on="1"/>
        <pt x="785" y="946" on="0"/>
        <pt x="761" y="946" on="1"/>
        <pt x="679" y="946" on="0"/>
        <pt x="679" y="1033" on="1"/>
        <pt x="679" y="1099" on="0"/>
        <pt x="751" y="1171" on="1"/>
        <pt x="778" y="1135" on="0"/>
        <pt x="761" y="1085" on="1"/>
        <pt x="778" y="1069" on="0"/>
        <pt x="792" y="1069" on="1"/>
        <pt x="812" y="1069" on="0"/>
        <pt x="829" y="1097" on="1"/>
        <pt x="846" y="1136" on="0"/>
        <pt x="900" y="1212" on="1"/>
        <pt x="910" y="1189" on="0"/>
        <pt x="942" y="1130" on="1"/>
        <pt x="964" y="1139" on="0"/>
        <pt x="986" y="1243" on="0"/>
        <pt x="1034" y="1263" on="1"/>
        <pt x="1058" y="1216" on="0"/>
      </contour>
      <contour>
        <pt x="955" y="736" on="1"/>
        <pt x="955" y="705" on="0"/>
        <pt x="891" y="639" on="0"/>
        <pt x="864" y="639" on="1"/>
        <pt x="832" y="639" on="0"/>
        <pt x="761" y="691" on="0"/>
        <pt x="761" y="715" on="1"/>
        <pt x="761" y="739" on="0"/>
        <pt x="833" y="823" on="0"/>
        <pt x="853" y="823" on="1"/>
        <pt x="886" y="823" on="0"/>
        <pt x="955" y="761" on="0"/>
      </contour>
      <contour>
        <pt x="1099" y="551" on="1"/>
        <pt x="1099" y="520" on="0"/>
        <pt x="1053" y="480" on="1"/>
        <pt x="1012" y="444" on="0"/>
        <pt x="996" y="444" on="1"/>
        <pt x="985" y="444" on="0"/>
        <pt x="920" y="485" on="0"/>
        <pt x="909" y="485" on="1"/>
        <pt x="896" y="485" on="0"/>
        <pt x="830" y="424" on="0"/>
        <pt x="818" y="424" on="1"/>
        <pt x="792" y="424" on="0"/>
        <pt x="700" y="481" on="0"/>
        <pt x="700" y="496" on="1"/>
        <pt x="700" y="532" on="0"/>
        <pt x="744" y="573" on="1"/>
        <pt x="783" y="608" on="0"/>
        <pt x="802" y="608" on="1"/>
        <pt x="812" y="608" on="0"/>
        <pt x="876" y="578" on="0"/>
        <pt x="889" y="578" on="1"/>
        <pt x="902" y="578" on="0"/>
        <pt x="964" y="639" on="0"/>
        <pt x="976" y="639" on="1"/>
        <pt x="999" y="639" on="0"/>
        <pt x="1045" y="612" on="1"/>
        <pt x="1099" y="581" on="0"/>
      </contour>
      <contour>
        <pt x="1765" y="203" on="1"/>
        <pt x="1765" y="119" on="0"/>
        <pt x="1728" y="57" on="1"/>
        <pt x="1683" y="-16" on="0"/>
        <pt x="1601" y="-16" on="1"/>
        <pt x="1552" y="-16" on="0"/>
        <pt x="1496" y="7" on="1"/>
        <pt x="1435" y="31" on="0"/>
        <pt x="1411" y="66" on="1"/>
        <pt x="1345" y="-16" on="0"/>
        <pt x="1111" y="-75" on="1"/>
        <pt x="900" y="-129" on="0"/>
        <pt x="715" y="-129" on="1"/>
        <pt x="583" y="-129" on="0"/>
        <pt x="456" y="-58" on="1"/>
        <pt x="300" y="29" on="0"/>
        <pt x="300" y="173" on="1"/>
        <pt x="300" y="239" on="0"/>
        <pt x="334" y="318" on="1"/>
        <pt x="345" y="345" on="0"/>
        <pt x="418" y="393" on="1"/>
        <pt x="433" y="381" on="0"/>
        <pt x="443" y="381" on="1"/>
        <pt x="443" y="352" on="0"/>
        <pt x="413" y="238" on="0"/>
        <pt x="413" y="229" on="1"/>
        <pt x="413" y="128" on="0"/>
        <pt x="562" y="74" on="1"/>
        <pt x="667" y="34" on="0"/>
        <pt x="766" y="34" on="1"/>
        <pt x="1140" y="34" on="0"/>
        <pt x="1337" y="159" on="1"/>
        <pt x="1358" y="173" on="0"/>
        <pt x="1392" y="245" on="1"/>
        <pt x="1424" y="311" on="0"/>
        <pt x="1453" y="321" on="1"/>
        <pt x="1460" y="315" on="0"/>
        <pt x="1473" y="305" on="1"/>
        <pt x="1475" y="271" on="0"/>
        <pt x="1480" y="196" on="1"/>
        <pt x="1512" y="171" on="0"/>
        <pt x="1566" y="147" on="1"/>
        <pt x="1645" y="147" on="1"/>
        <pt x="1662" y="164" on="0"/>
        <pt x="1662" y="173" on="1"/>
        <pt x="1662" y="186" on="0"/>
        <pt x="1621" y="309" on="0"/>
        <pt x="1621" y="321" on="1"/>
        <pt x="1621" y="355" on="0"/>
        <pt x="1665" y="423" on="1"/>
        <pt x="1691" y="423" on="0"/>
        <pt x="1698" y="411" on="1"/>
        <pt x="1720" y="374" on="0"/>
        <pt x="1743" y="295" on="1"/>
        <pt x="1765" y="224" on="0"/>
      </contour>
      <contour>
        <pt x="1601" y="-339" on="1"/>
        <pt x="1601" y="-361" on="0"/>
        <pt x="1529" y="-436" on="0"/>
        <pt x="1513" y="-436" on="1"/>
        <pt x="1493" y="-436" on="0"/>
        <pt x="1385" y="-357" on="0"/>
        <pt x="1385" y="-344" on="1"/>
        <pt x="1385" y="-326" on="0"/>
        <pt x="1461" y="-241" on="0"/>
        <pt x="1478" y="-241" on="1"/>
        <pt x="1505" y="-241" on="0"/>
        <pt x="1554" y="-285" on="1"/>
        <pt x="1601" y="-326" on="0"/>
      </contour>
      <contour>
        <pt x="2287" y="193" on="1"/>
        <pt x="2242" y="259" on="0"/>
        <pt x="2209" y="270" on="1"/>
        <pt x="2196" y="264" on="0"/>
        <pt x="2174" y="247" on="1"/>
        <pt x="2174" y="212" on="1"/>
        <pt x="2208" y="178" on="0"/>
        <pt x="2246" y="178" on="1"/>
        <pt x="2272" y="178" on="0"/>
      </contour>
    </TTGlyph>
    <TTGlyph name="irghizufinal" xMin="142" yMin="226" xMax="842" yMax="1588">
      <contour>
        <pt x="142" y="226" on="1"/>
        <pt x="142" y="1588" on="1"/>
        <pt x="842" y="1588" on="1"/>
        <pt x="842" y="226" on="1"/>
      </contour>
      <contour>
        <pt x="284" y="368" on="1"/>
        <pt x="700" y="368" on="1"/>
        <pt x="700" y="1447" on="1"/>
        <pt x="284" y="1447" on="1"/>
      </contour>
    </TTGlyph>
    <TTGlyph name="jehfinalarabic" xMin="142" yMin="226" xMax="842" yMax="1588">
      <contour>
        <pt x="142" y="226" on="1"/>
        <pt x="142" y="1588" on="1"/>
        <pt x="842" y="1588" on="1"/>
        <pt x="842" y="226" on="1"/>
      </contour>
      <contour>
        <pt x="284" y="368" on="1"/>
        <pt x="700" y="368" on="1"/>
        <pt x="700" y="1447" on="1"/>
        <pt x="284" y="1447" on="1"/>
      </contour>
    </TTGlyph>
    <TTGlyph name="kafringfinal" xMin="142" yMin="226" xMax="842" yMax="1588">
      <contour>
        <pt x="142" y="226" on="1"/>
        <pt x="142" y="1588" on="1"/>
        <pt x="842" y="1588" on="1"/>
        <pt x="842" y="226" on="1"/>
      </contour>
      <contour>
        <pt x="284" y="368" on="1"/>
        <pt x="700" y="368" on="1"/>
        <pt x="700" y="1447" on="1"/>
        <pt x="284" y="1447" on="1"/>
      </contour>
    </TTGlyph>
    <TTGlyph name="kafringinitial" xMin="142" yMin="226" xMax="842" yMax="1588">
      <contour>
        <pt x="142" y="226" on="1"/>
        <pt x="142" y="1588" on="1"/>
        <pt x="842" y="1588" on="1"/>
        <pt x="842" y="226" on="1"/>
      </contour>
      <contour>
        <pt x="284" y="368" on="1"/>
        <pt x="700" y="368" on="1"/>
        <pt x="700" y="1447" on="1"/>
        <pt x="284" y="1447" on="1"/>
      </contour>
    </TTGlyph>
    <TTGlyph name="kafringmedial" xMin="142" yMin="226" xMax="842" yMax="1588">
      <contour>
        <pt x="142" y="226" on="1"/>
        <pt x="142" y="1588" on="1"/>
        <pt x="842" y="1588" on="1"/>
        <pt x="842" y="226" on="1"/>
      </contour>
      <contour>
        <pt x="284" y="368" on="1"/>
        <pt x="700" y="368" on="1"/>
        <pt x="700" y="1447" on="1"/>
        <pt x="284" y="1447" on="1"/>
      </contour>
    </TTGlyph>
    <TTGlyph name="kashidaautoarabic" xMin="142" yMin="226" xMax="842" yMax="1588">
      <contour>
        <pt x="142" y="226" on="1"/>
        <pt x="142" y="1588" on="1"/>
        <pt x="842" y="1588" on="1"/>
        <pt x="842" y="226" on="1"/>
      </contour>
      <contour>
        <pt x="284" y="368" on="1"/>
        <pt x="700" y="368" on="1"/>
        <pt x="700" y="1447" on="1"/>
        <pt x="284" y="1447" on="1"/>
      </contour>
    </TTGlyph>
    <TTGlyph name="kashidaautonosidebearingarabic" xMin="142" yMin="226" xMax="842" yMax="1588">
      <contour>
        <pt x="142" y="226" on="1"/>
        <pt x="142" y="1588" on="1"/>
        <pt x="842" y="1588" on="1"/>
        <pt x="842" y="226" on="1"/>
      </contour>
      <contour>
        <pt x="284" y="368" on="1"/>
        <pt x="700" y="368" on="1"/>
        <pt x="700" y="1447" on="1"/>
        <pt x="284" y="1447" on="1"/>
      </contour>
    </TTGlyph>
    <TTGlyph name="kehehfinalarabic" xMin="142" yMin="226" xMax="842" yMax="1588">
      <contour>
        <pt x="142" y="226" on="1"/>
        <pt x="142" y="1588" on="1"/>
        <pt x="842" y="1588" on="1"/>
        <pt x="842" y="226" on="1"/>
      </contour>
      <contour>
        <pt x="284" y="368" on="1"/>
        <pt x="700" y="368" on="1"/>
        <pt x="700" y="1447" on="1"/>
        <pt x="284" y="1447" on="1"/>
      </contour>
    </TTGlyph>
    <TTGlyph name="kehehinitialarabic" xMin="142" yMin="226" xMax="842" yMax="1588">
      <contour>
        <pt x="142" y="226" on="1"/>
        <pt x="142" y="1588" on="1"/>
        <pt x="842" y="1588" on="1"/>
        <pt x="842" y="226" on="1"/>
      </contour>
      <contour>
        <pt x="284" y="368" on="1"/>
        <pt x="700" y="368" on="1"/>
        <pt x="700" y="1447" on="1"/>
        <pt x="284" y="1447" on="1"/>
      </contour>
    </TTGlyph>
    <TTGlyph name="kehehmedialarabic" xMin="142" yMin="226" xMax="842" yMax="1588">
      <contour>
        <pt x="142" y="226" on="1"/>
        <pt x="142" y="1588" on="1"/>
        <pt x="842" y="1588" on="1"/>
        <pt x="842" y="226" on="1"/>
      </contour>
      <contour>
        <pt x="284" y="368" on="1"/>
        <pt x="700" y="368" on="1"/>
        <pt x="700" y="1447" on="1"/>
        <pt x="284" y="1447" on="1"/>
      </contour>
    </TTGlyph>
    <TTGlyph name="kirghizyifinal" xMin="142" yMin="226" xMax="842" yMax="1588">
      <contour>
        <pt x="142" y="226" on="1"/>
        <pt x="142" y="1588" on="1"/>
        <pt x="842" y="1588" on="1"/>
        <pt x="842" y="226" on="1"/>
      </contour>
      <contour>
        <pt x="284" y="368" on="1"/>
        <pt x="700" y="368" on="1"/>
        <pt x="700" y="1447" on="1"/>
        <pt x="284" y="1447" on="1"/>
      </contour>
    </TTGlyph>
    <TTGlyph name="lammeemjeeminitialarabic" xMin="142" yMin="226" xMax="842" yMax="1588">
      <contour>
        <pt x="142" y="226" on="1"/>
        <pt x="142" y="1588" on="1"/>
        <pt x="842" y="1588" on="1"/>
        <pt x="842" y="226" on="1"/>
      </contour>
      <contour>
        <pt x="284" y="368" on="1"/>
        <pt x="700" y="368" on="1"/>
        <pt x="700" y="1447" on="1"/>
        <pt x="284" y="1447" on="1"/>
      </contour>
    </TTGlyph>
    <TTGlyph name="lammeemkhahinitialarabic" xMin="142" yMin="226" xMax="842" yMax="1588">
      <contour>
        <pt x="142" y="226" on="1"/>
        <pt x="142" y="1588" on="1"/>
        <pt x="842" y="1588" on="1"/>
        <pt x="842" y="226" on="1"/>
      </contour>
      <contour>
        <pt x="284" y="368" on="1"/>
        <pt x="700" y="368" on="1"/>
        <pt x="700" y="1447" on="1"/>
        <pt x="284" y="1447" on="1"/>
      </contour>
    </TTGlyph>
    <TTGlyph name="lamthreedotsabovefinal" xMin="142" yMin="226" xMax="842" yMax="1588">
      <contour>
        <pt x="142" y="226" on="1"/>
        <pt x="142" y="1588" on="1"/>
        <pt x="842" y="1588" on="1"/>
        <pt x="842" y="226" on="1"/>
      </contour>
      <contour>
        <pt x="284" y="368" on="1"/>
        <pt x="700" y="368" on="1"/>
        <pt x="700" y="1447" on="1"/>
        <pt x="284" y="1447" on="1"/>
      </contour>
    </TTGlyph>
    <TTGlyph name="lamthreedotsaboveinitial" xMin="142" yMin="226" xMax="842" yMax="1588">
      <contour>
        <pt x="142" y="226" on="1"/>
        <pt x="142" y="1588" on="1"/>
        <pt x="842" y="1588" on="1"/>
        <pt x="842" y="226" on="1"/>
      </contour>
      <contour>
        <pt x="284" y="368" on="1"/>
        <pt x="700" y="368" on="1"/>
        <pt x="700" y="1447" on="1"/>
        <pt x="284" y="1447" on="1"/>
      </contour>
    </TTGlyph>
    <TTGlyph name="lamthreedotsabovemedial" xMin="142" yMin="226" xMax="842" yMax="1588">
      <contour>
        <pt x="142" y="226" on="1"/>
        <pt x="142" y="1588" on="1"/>
        <pt x="842" y="1588" on="1"/>
        <pt x="842" y="226" on="1"/>
      </contour>
      <contour>
        <pt x="284" y="368" on="1"/>
        <pt x="700" y="368" on="1"/>
        <pt x="700" y="1447" on="1"/>
        <pt x="284" y="1447" on="1"/>
      </contour>
    </TTGlyph>
    <TTGlyph name="less" xMin="142" yMin="226" xMax="842" yMax="1588">
      <contour>
        <pt x="142" y="226" on="1"/>
        <pt x="142" y="1588" on="1"/>
        <pt x="842" y="1588" on="1"/>
        <pt x="842" y="226" on="1"/>
      </contour>
      <contour>
        <pt x="284" y="368" on="1"/>
        <pt x="700" y="368" on="1"/>
        <pt x="700" y="1447" on="1"/>
        <pt x="284" y="1447" on="1"/>
      </contour>
    </TTGlyph>
    <TTGlyph name="meemmeemisolatedarabic" xMin="142" yMin="226" xMax="842" yMax="1588">
      <contour>
        <pt x="142" y="226" on="1"/>
        <pt x="142" y="1588" on="1"/>
        <pt x="842" y="1588" on="1"/>
        <pt x="842" y="226" on="1"/>
      </contour>
      <contour>
        <pt x="284" y="368" on="1"/>
        <pt x="700" y="368" on="1"/>
        <pt x="700" y="1447" on="1"/>
        <pt x="284" y="1447" on="1"/>
      </contour>
    </TTGlyph>
    <TTGlyph name="multiply" xMin="142" yMin="226" xMax="842" yMax="1588">
      <contour>
        <pt x="142" y="226" on="1"/>
        <pt x="142" y="1588" on="1"/>
        <pt x="842" y="1588" on="1"/>
        <pt x="842" y="226" on="1"/>
      </contour>
      <contour>
        <pt x="284" y="368" on="1"/>
        <pt x="700" y="368" on="1"/>
        <pt x="700" y="1447" on="1"/>
        <pt x="284" y="1447" on="1"/>
      </contour>
    </TTGlyph>
    <TTGlyph name="noonghunnafinalarabic" xMin="142" yMin="226" xMax="842" yMax="1588">
      <contour>
        <pt x="142" y="226" on="1"/>
        <pt x="142" y="1588" on="1"/>
        <pt x="842" y="1588" on="1"/>
        <pt x="842" y="226" on="1"/>
      </contour>
      <contour>
        <pt x="284" y="368" on="1"/>
        <pt x="700" y="368" on="1"/>
        <pt x="700" y="1447" on="1"/>
        <pt x="284" y="1447" on="1"/>
      </contour>
    </TTGlyph>
    <TTGlyph name="noonjeemisolatedarabic" xMin="142" yMin="226" xMax="842" yMax="1588">
      <contour>
        <pt x="142" y="226" on="1"/>
        <pt x="142" y="1588" on="1"/>
        <pt x="842" y="1588" on="1"/>
        <pt x="842" y="226" on="1"/>
      </contour>
      <contour>
        <pt x="284" y="368" on="1"/>
        <pt x="700" y="368" on="1"/>
        <pt x="700" y="1447" on="1"/>
        <pt x="284" y="1447" on="1"/>
      </contour>
    </TTGlyph>
    <TTGlyph name="noonmeemisolatedarabic" xMin="142" yMin="226" xMax="842" yMax="1588">
      <contour>
        <pt x="142" y="226" on="1"/>
        <pt x="142" y="1588" on="1"/>
        <pt x="842" y="1588" on="1"/>
        <pt x="842" y="226" on="1"/>
      </contour>
      <contour>
        <pt x="284" y="368" on="1"/>
        <pt x="700" y="368" on="1"/>
        <pt x="700" y="1447" on="1"/>
        <pt x="284" y="1447" on="1"/>
      </contour>
    </TTGlyph>
    <TTGlyph name="noonringfinal" xMin="142" yMin="226" xMax="842" yMax="1588">
      <contour>
        <pt x="142" y="226" on="1"/>
        <pt x="142" y="1588" on="1"/>
        <pt x="842" y="1588" on="1"/>
        <pt x="842" y="226" on="1"/>
      </contour>
      <contour>
        <pt x="284" y="368" on="1"/>
        <pt x="700" y="368" on="1"/>
        <pt x="700" y="1447" on="1"/>
        <pt x="284" y="1447" on="1"/>
      </contour>
    </TTGlyph>
    <TTGlyph name="noonringinitial" xMin="142" yMin="226" xMax="842" yMax="1588">
      <contour>
        <pt x="142" y="226" on="1"/>
        <pt x="142" y="1588" on="1"/>
        <pt x="842" y="1588" on="1"/>
        <pt x="842" y="226" on="1"/>
      </contour>
      <contour>
        <pt x="284" y="368" on="1"/>
        <pt x="700" y="368" on="1"/>
        <pt x="700" y="1447" on="1"/>
        <pt x="284" y="1447" on="1"/>
      </contour>
    </TTGlyph>
    <TTGlyph name="noonringmedial" xMin="142" yMin="226" xMax="842" yMax="1588">
      <contour>
        <pt x="142" y="226" on="1"/>
        <pt x="142" y="1588" on="1"/>
        <pt x="842" y="1588" on="1"/>
        <pt x="842" y="226" on="1"/>
      </contour>
      <contour>
        <pt x="284" y="368" on="1"/>
        <pt x="700" y="368" on="1"/>
        <pt x="700" y="1447" on="1"/>
        <pt x="284" y="1447" on="1"/>
      </contour>
    </TTGlyph>
    <TTGlyph name="numbersign" xMin="142" yMin="226" xMax="842" yMax="1588">
      <contour>
        <pt x="142" y="226" on="1"/>
        <pt x="142" y="1588" on="1"/>
        <pt x="842" y="1588" on="1"/>
        <pt x="842" y="226" on="1"/>
      </contour>
      <contour>
        <pt x="284" y="368" on="1"/>
        <pt x="700" y="368" on="1"/>
        <pt x="700" y="1447" on="1"/>
        <pt x="284" y="1447" on="1"/>
      </contour>
    </TTGlyph>
    <TTGlyph name="parenleft" xMin="142" yMin="226" xMax="842" yMax="1588">
      <contour>
        <pt x="142" y="226" on="1"/>
        <pt x="142" y="1588" on="1"/>
        <pt x="842" y="1588" on="1"/>
        <pt x="842" y="226" on="1"/>
      </contour>
      <contour>
        <pt x="284" y="368" on="1"/>
        <pt x="700" y="368" on="1"/>
        <pt x="700" y="1447" on="1"/>
        <pt x="284" y="1447" on="1"/>
      </contour>
    </TTGlyph>
    <TTGlyph name="parenright" xMin="142" yMin="226" xMax="842" yMax="1588">
      <contour>
        <pt x="142" y="226" on="1"/>
        <pt x="142" y="1588" on="1"/>
        <pt x="842" y="1588" on="1"/>
        <pt x="842" y="226" on="1"/>
      </contour>
      <contour>
        <pt x="284" y="368" on="1"/>
        <pt x="700" y="368" on="1"/>
        <pt x="700" y="1447" on="1"/>
        <pt x="284" y="1447" on="1"/>
      </contour>
    </TTGlyph>
    <TTGlyph name="pashtoefinal" xMin="142" yMin="226" xMax="842" yMax="1588">
      <contour>
        <pt x="142" y="226" on="1"/>
        <pt x="142" y="1588" on="1"/>
        <pt x="842" y="1588" on="1"/>
        <pt x="842" y="226" on="1"/>
      </contour>
      <contour>
        <pt x="284" y="368" on="1"/>
        <pt x="700" y="368" on="1"/>
        <pt x="700" y="1447" on="1"/>
        <pt x="284" y="1447" on="1"/>
      </contour>
    </TTGlyph>
    <TTGlyph name="pashtoeinitial" xMin="142" yMin="226" xMax="842" yMax="1588">
      <contour>
        <pt x="142" y="226" on="1"/>
        <pt x="142" y="1588" on="1"/>
        <pt x="842" y="1588" on="1"/>
        <pt x="842" y="226" on="1"/>
      </contour>
      <contour>
        <pt x="284" y="368" on="1"/>
        <pt x="700" y="368" on="1"/>
        <pt x="700" y="1447" on="1"/>
        <pt x="284" y="1447" on="1"/>
      </contour>
    </TTGlyph>
    <TTGlyph name="pashtoemedial" xMin="142" yMin="226" xMax="842" yMax="1588">
      <contour>
        <pt x="142" y="226" on="1"/>
        <pt x="142" y="1588" on="1"/>
        <pt x="842" y="1588" on="1"/>
        <pt x="842" y="226" on="1"/>
      </contour>
      <contour>
        <pt x="284" y="368" on="1"/>
        <pt x="700" y="368" on="1"/>
        <pt x="700" y="1447" on="1"/>
        <pt x="284" y="1447" on="1"/>
      </contour>
    </TTGlyph>
    <TTGlyph name="pehfinalarabic" xMin="142" yMin="226" xMax="842" yMax="1588">
      <contour>
        <pt x="142" y="226" on="1"/>
        <pt x="142" y="1588" on="1"/>
        <pt x="842" y="1588" on="1"/>
        <pt x="842" y="226" on="1"/>
      </contour>
      <contour>
        <pt x="284" y="368" on="1"/>
        <pt x="700" y="368" on="1"/>
        <pt x="700" y="1447" on="1"/>
        <pt x="284" y="1447" on="1"/>
      </contour>
    </TTGlyph>
    <TTGlyph name="pehinitialarabic" xMin="142" yMin="226" xMax="842" yMax="1588">
      <contour>
        <pt x="142" y="226" on="1"/>
        <pt x="142" y="1588" on="1"/>
        <pt x="842" y="1588" on="1"/>
        <pt x="842" y="226" on="1"/>
      </contour>
      <contour>
        <pt x="284" y="368" on="1"/>
        <pt x="700" y="368" on="1"/>
        <pt x="700" y="1447" on="1"/>
        <pt x="284" y="1447" on="1"/>
      </contour>
    </TTGlyph>
    <TTGlyph name="pehmedialarabic" xMin="142" yMin="226" xMax="842" yMax="1588">
      <contour>
        <pt x="142" y="226" on="1"/>
        <pt x="142" y="1588" on="1"/>
        <pt x="842" y="1588" on="1"/>
        <pt x="842" y="226" on="1"/>
      </contour>
      <contour>
        <pt x="284" y="368" on="1"/>
        <pt x="700" y="368" on="1"/>
        <pt x="700" y="1447" on="1"/>
        <pt x="284" y="1447" on="1"/>
      </contour>
    </TTGlyph>
    <TTGlyph name="percent" xMin="142" yMin="226" xMax="842" yMax="1588">
      <contour>
        <pt x="142" y="226" on="1"/>
        <pt x="142" y="1588" on="1"/>
        <pt x="842" y="1588" on="1"/>
        <pt x="842" y="226" on="1"/>
      </contour>
      <contour>
        <pt x="284" y="368" on="1"/>
        <pt x="700" y="368" on="1"/>
        <pt x="700" y="1447" on="1"/>
        <pt x="284" y="1447" on="1"/>
      </contour>
    </TTGlyph>
    <TTGlyph name="period" xMin="142" yMin="226" xMax="842" yMax="1588">
      <contour>
        <pt x="142" y="226" on="1"/>
        <pt x="142" y="1588" on="1"/>
        <pt x="842" y="1588" on="1"/>
        <pt x="842" y="226" on="1"/>
      </contour>
      <contour>
        <pt x="284" y="368" on="1"/>
        <pt x="700" y="368" on="1"/>
        <pt x="700" y="1447" on="1"/>
        <pt x="284" y="1447" on="1"/>
      </contour>
    </TTGlyph>
    <TTGlyph name="plus" xMin="142" yMin="226" xMax="842" yMax="1588">
      <contour>
        <pt x="142" y="226" on="1"/>
        <pt x="142" y="1588" on="1"/>
        <pt x="842" y="1588" on="1"/>
        <pt x="842" y="226" on="1"/>
      </contour>
      <contour>
        <pt x="284" y="368" on="1"/>
        <pt x="700" y="368" on="1"/>
        <pt x="700" y="1447" on="1"/>
        <pt x="284" y="1447" on="1"/>
      </contour>
    </TTGlyph>
    <TTGlyph name="quotedbl" xMin="142" yMin="226" xMax="842" yMax="1588">
      <contour>
        <pt x="142" y="226" on="1"/>
        <pt x="142" y="1588" on="1"/>
        <pt x="842" y="1588" on="1"/>
        <pt x="842" y="226" on="1"/>
      </contour>
      <contour>
        <pt x="284" y="368" on="1"/>
        <pt x="700" y="368" on="1"/>
        <pt x="700" y="1447" on="1"/>
        <pt x="284" y="1447" on="1"/>
      </contour>
    </TTGlyph>
    <TTGlyph name="quotesingle" xMin="142" yMin="226" xMax="842" yMax="1588">
      <contour>
        <pt x="142" y="226" on="1"/>
        <pt x="142" y="1588" on="1"/>
        <pt x="842" y="1588" on="1"/>
        <pt x="842" y="226" on="1"/>
      </contour>
      <contour>
        <pt x="284" y="368" on="1"/>
        <pt x="700" y="368" on="1"/>
        <pt x="700" y="1447" on="1"/>
        <pt x="284" y="1447" on="1"/>
      </contour>
    </TTGlyph>
    <TTGlyph name="rehdotbelowdotabovefinal" xMin="142" yMin="226" xMax="842" yMax="1588">
      <contour>
        <pt x="142" y="226" on="1"/>
        <pt x="142" y="1588" on="1"/>
        <pt x="842" y="1588" on="1"/>
        <pt x="842" y="226" on="1"/>
      </contour>
      <contour>
        <pt x="284" y="368" on="1"/>
        <pt x="700" y="368" on="1"/>
        <pt x="700" y="1447" on="1"/>
        <pt x="284" y="1447" on="1"/>
      </contour>
    </TTGlyph>
    <TTGlyph name="rehringfinal" xMin="142" yMin="226" xMax="842" yMax="1588">
      <contour>
        <pt x="142" y="226" on="1"/>
        <pt x="142" y="1588" on="1"/>
        <pt x="842" y="1588" on="1"/>
        <pt x="842" y="226" on="1"/>
      </contour>
      <contour>
        <pt x="284" y="368" on="1"/>
        <pt x="700" y="368" on="1"/>
        <pt x="700" y="1447" on="1"/>
        <pt x="284" y="1447" on="1"/>
      </contour>
    </TTGlyph>
    <TTGlyph name="rrehfinalarabic" xMin="142" yMin="226" xMax="842" yMax="1588">
      <contour>
        <pt x="142" y="226" on="1"/>
        <pt x="142" y="1588" on="1"/>
        <pt x="842" y="1588" on="1"/>
        <pt x="842" y="226" on="1"/>
      </contour>
      <contour>
        <pt x="284" y="368" on="1"/>
        <pt x="700" y="368" on="1"/>
        <pt x="700" y="1447" on="1"/>
        <pt x="284" y="1447" on="1"/>
      </contour>
    </TTGlyph>
    <TTGlyph name="seendotbelowdotabovefinal" xMin="142" yMin="226" xMax="842" yMax="1588">
      <contour>
        <pt x="142" y="226" on="1"/>
        <pt x="142" y="1588" on="1"/>
        <pt x="842" y="1588" on="1"/>
        <pt x="842" y="226" on="1"/>
      </contour>
      <contour>
        <pt x="284" y="368" on="1"/>
        <pt x="700" y="368" on="1"/>
        <pt x="700" y="1447" on="1"/>
        <pt x="284" y="1447" on="1"/>
      </contour>
    </TTGlyph>
    <TTGlyph name="seendotbelowdotaboveinitial" xMin="142" yMin="226" xMax="842" yMax="1588">
      <contour>
        <pt x="142" y="226" on="1"/>
        <pt x="142" y="1588" on="1"/>
        <pt x="842" y="1588" on="1"/>
        <pt x="842" y="226" on="1"/>
      </contour>
      <contour>
        <pt x="284" y="368" on="1"/>
        <pt x="700" y="368" on="1"/>
        <pt x="700" y="1447" on="1"/>
        <pt x="284" y="1447" on="1"/>
      </contour>
    </TTGlyph>
    <TTGlyph name="seendotbelowdotabovemedial" xMin="142" yMin="226" xMax="842" yMax="1588">
      <contour>
        <pt x="142" y="226" on="1"/>
        <pt x="142" y="1588" on="1"/>
        <pt x="842" y="1588" on="1"/>
        <pt x="842" y="226" on="1"/>
      </contour>
      <contour>
        <pt x="284" y="368" on="1"/>
        <pt x="700" y="368" on="1"/>
        <pt x="700" y="1447" on="1"/>
        <pt x="284" y="1447" on="1"/>
      </contour>
    </TTGlyph>
    <TTGlyph name="shaddadammaarabic" xMin="142" yMin="226" xMax="842" yMax="1588">
      <contour>
        <pt x="142" y="226" on="1"/>
        <pt x="142" y="1588" on="1"/>
        <pt x="842" y="1588" on="1"/>
        <pt x="842" y="226" on="1"/>
      </contour>
      <contour>
        <pt x="284" y="368" on="1"/>
        <pt x="700" y="368" on="1"/>
        <pt x="700" y="1447" on="1"/>
        <pt x="284" y="1447" on="1"/>
      </contour>
    </TTGlyph>
    <TTGlyph name="shaddadammatanarabic" xMin="142" yMin="226" xMax="842" yMax="1588">
      <contour>
        <pt x="142" y="226" on="1"/>
        <pt x="142" y="1588" on="1"/>
        <pt x="842" y="1588" on="1"/>
        <pt x="842" y="226" on="1"/>
      </contour>
      <contour>
        <pt x="284" y="368" on="1"/>
        <pt x="700" y="368" on="1"/>
        <pt x="700" y="1447" on="1"/>
        <pt x="284" y="1447" on="1"/>
      </contour>
    </TTGlyph>
    <TTGlyph name="shaddafathaarabic" xMin="142" yMin="226" xMax="842" yMax="1588">
      <contour>
        <pt x="142" y="226" on="1"/>
        <pt x="142" y="1588" on="1"/>
        <pt x="842" y="1588" on="1"/>
        <pt x="842" y="226" on="1"/>
      </contour>
      <contour>
        <pt x="284" y="368" on="1"/>
        <pt x="700" y="368" on="1"/>
        <pt x="700" y="1447" on="1"/>
        <pt x="284" y="1447" on="1"/>
      </contour>
    </TTGlyph>
    <TTGlyph name="shaddakasraarabic" xMin="142" yMin="226" xMax="842" yMax="1588">
      <contour>
        <pt x="142" y="226" on="1"/>
        <pt x="142" y="1588" on="1"/>
        <pt x="842" y="1588" on="1"/>
        <pt x="842" y="226" on="1"/>
      </contour>
      <contour>
        <pt x="284" y="368" on="1"/>
        <pt x="700" y="368" on="1"/>
        <pt x="700" y="1447" on="1"/>
        <pt x="284" y="1447" on="1"/>
      </contour>
    </TTGlyph>
    <TTGlyph name="shaddakasratanarabic" xMin="142" yMin="226" xMax="842" yMax="1588">
      <contour>
        <pt x="142" y="226" on="1"/>
        <pt x="142" y="1588" on="1"/>
        <pt x="842" y="1588" on="1"/>
        <pt x="842" y="226" on="1"/>
      </contour>
      <contour>
        <pt x="284" y="368" on="1"/>
        <pt x="700" y="368" on="1"/>
        <pt x="700" y="1447" on="1"/>
        <pt x="284" y="1447" on="1"/>
      </contour>
    </TTGlyph>
    <TTGlyph name="slash" xMin="142" yMin="226" xMax="842" yMax="1588">
      <contour>
        <pt x="142" y="226" on="1"/>
        <pt x="142" y="1588" on="1"/>
        <pt x="842" y="1588" on="1"/>
        <pt x="842" y="226" on="1"/>
      </contour>
      <contour>
        <pt x="284" y="368" on="1"/>
        <pt x="700" y="368" on="1"/>
        <pt x="700" y="1447" on="1"/>
        <pt x="284" y="1447" on="1"/>
      </contour>
    </TTGlyph>
    <TTGlyph name="space" xMin="142" yMin="226" xMax="842" yMax="1588">
      <contour>
        <pt x="142" y="226" on="1"/>
        <pt x="142" y="1588" on="1"/>
        <pt x="842" y="1588" on="1"/>
        <pt x="842" y="226" on="1"/>
      </contour>
      <contour>
        <pt x="284" y="368" on="1"/>
        <pt x="700" y="368" on="1"/>
        <pt x="700" y="1447" on="1"/>
        <pt x="284" y="1447" on="1"/>
      </contour>
    </TTGlyph>
    <TTGlyph name="tchehfinalarabic" xMin="142" yMin="226" xMax="842" yMax="1588">
      <contour>
        <pt x="142" y="226" on="1"/>
        <pt x="142" y="1588" on="1"/>
        <pt x="842" y="1588" on="1"/>
        <pt x="842" y="226" on="1"/>
      </contour>
      <contour>
        <pt x="284" y="368" on="1"/>
        <pt x="700" y="368" on="1"/>
        <pt x="700" y="1447" on="1"/>
        <pt x="284" y="1447" on="1"/>
      </contour>
    </TTGlyph>
    <TTGlyph name="tchehinitialarabic" xMin="142" yMin="226" xMax="842" yMax="1588">
      <contour>
        <pt x="142" y="226" on="1"/>
        <pt x="142" y="1588" on="1"/>
        <pt x="842" y="1588" on="1"/>
        <pt x="842" y="226" on="1"/>
      </contour>
      <contour>
        <pt x="284" y="368" on="1"/>
        <pt x="700" y="368" on="1"/>
        <pt x="700" y="1447" on="1"/>
        <pt x="284" y="1447" on="1"/>
      </contour>
    </TTGlyph>
    <TTGlyph name="tchehmedialarabic" xMin="142" yMin="226" xMax="842" yMax="1588">
      <contour>
        <pt x="142" y="226" on="1"/>
        <pt x="142" y="1588" on="1"/>
        <pt x="842" y="1588" on="1"/>
        <pt x="842" y="226" on="1"/>
      </contour>
      <contour>
        <pt x="284" y="368" on="1"/>
        <pt x="700" y="368" on="1"/>
        <pt x="700" y="1447" on="1"/>
        <pt x="284" y="1447" on="1"/>
      </contour>
    </TTGlyph>
    <TTGlyph name="tehhahisolatedarabic" xMin="142" yMin="226" xMax="842" yMax="1588">
      <contour>
        <pt x="142" y="226" on="1"/>
        <pt x="142" y="1588" on="1"/>
        <pt x="842" y="1588" on="1"/>
        <pt x="842" y="226" on="1"/>
      </contour>
      <contour>
        <pt x="284" y="368" on="1"/>
        <pt x="700" y="368" on="1"/>
        <pt x="700" y="1447" on="1"/>
        <pt x="284" y="1447" on="1"/>
      </contour>
    </TTGlyph>
    <TTGlyph name="tehjeemisolatedarabic" xMin="142" yMin="226" xMax="842" yMax="1588">
      <contour>
        <pt x="142" y="226" on="1"/>
        <pt x="142" y="1588" on="1"/>
        <pt x="842" y="1588" on="1"/>
        <pt x="842" y="226" on="1"/>
      </contour>
      <contour>
        <pt x="284" y="368" on="1"/>
        <pt x="700" y="368" on="1"/>
        <pt x="700" y="1447" on="1"/>
        <pt x="284" y="1447" on="1"/>
      </contour>
    </TTGlyph>
    <TTGlyph name="tehmeemisolatedarabic" xMin="142" yMin="226" xMax="842" yMax="1588">
      <contour>
        <pt x="142" y="226" on="1"/>
        <pt x="142" y="1588" on="1"/>
        <pt x="842" y="1588" on="1"/>
        <pt x="842" y="226" on="1"/>
      </contour>
      <contour>
        <pt x="284" y="368" on="1"/>
        <pt x="700" y="368" on="1"/>
        <pt x="700" y="1447" on="1"/>
        <pt x="284" y="1447" on="1"/>
      </contour>
    </TTGlyph>
    <TTGlyph name="tehnoonfinalarabic" xMin="142" yMin="226" xMax="842" yMax="1588">
      <contour>
        <pt x="142" y="226" on="1"/>
        <pt x="142" y="1588" on="1"/>
        <pt x="842" y="1588" on="1"/>
        <pt x="842" y="226" on="1"/>
      </contour>
      <contour>
        <pt x="284" y="368" on="1"/>
        <pt x="700" y="368" on="1"/>
        <pt x="700" y="1447" on="1"/>
        <pt x="284" y="1447" on="1"/>
      </contour>
    </TTGlyph>
    <TTGlyph name="tehringfinal" xMin="142" yMin="226" xMax="842" yMax="1588">
      <contour>
        <pt x="142" y="226" on="1"/>
        <pt x="142" y="1588" on="1"/>
        <pt x="842" y="1588" on="1"/>
        <pt x="842" y="226" on="1"/>
      </contour>
      <contour>
        <pt x="284" y="368" on="1"/>
        <pt x="700" y="368" on="1"/>
        <pt x="700" y="1447" on="1"/>
        <pt x="284" y="1447" on="1"/>
      </contour>
    </TTGlyph>
    <TTGlyph name="tehringinitial" xMin="142" yMin="226" xMax="842" yMax="1588">
      <contour>
        <pt x="142" y="226" on="1"/>
        <pt x="142" y="1588" on="1"/>
        <pt x="842" y="1588" on="1"/>
        <pt x="842" y="226" on="1"/>
      </contour>
      <contour>
        <pt x="284" y="368" on="1"/>
        <pt x="700" y="368" on="1"/>
        <pt x="700" y="1447" on="1"/>
        <pt x="284" y="1447" on="1"/>
      </contour>
    </TTGlyph>
    <TTGlyph name="tehringmedial" xMin="142" yMin="226" xMax="842" yMax="1588">
      <contour>
        <pt x="142" y="226" on="1"/>
        <pt x="142" y="1588" on="1"/>
        <pt x="842" y="1588" on="1"/>
        <pt x="842" y="226" on="1"/>
      </contour>
      <contour>
        <pt x="284" y="368" on="1"/>
        <pt x="700" y="368" on="1"/>
        <pt x="700" y="1447" on="1"/>
        <pt x="284" y="1447" on="1"/>
      </contour>
    </TTGlyph>
    <TTGlyph name="ttehfinalarabic" xMin="142" yMin="226" xMax="842" yMax="1588">
      <contour>
        <pt x="142" y="226" on="1"/>
        <pt x="142" y="1588" on="1"/>
        <pt x="842" y="1588" on="1"/>
        <pt x="842" y="226" on="1"/>
      </contour>
      <contour>
        <pt x="284" y="368" on="1"/>
        <pt x="700" y="368" on="1"/>
        <pt x="700" y="1447" on="1"/>
        <pt x="284" y="1447" on="1"/>
      </contour>
    </TTGlyph>
    <TTGlyph name="ttehinitialarabic" xMin="142" yMin="226" xMax="842" yMax="1588">
      <contour>
        <pt x="142" y="226" on="1"/>
        <pt x="142" y="1588" on="1"/>
        <pt x="842" y="1588" on="1"/>
        <pt x="842" y="226" on="1"/>
      </contour>
      <contour>
        <pt x="284" y="368" on="1"/>
        <pt x="700" y="368" on="1"/>
        <pt x="700" y="1447" on="1"/>
        <pt x="284" y="1447" on="1"/>
      </contour>
    </TTGlyph>
    <TTGlyph name="ttehmedialarabic" xMin="142" yMin="226" xMax="842" yMax="1588">
      <contour>
        <pt x="142" y="226" on="1"/>
        <pt x="142" y="1588" on="1"/>
        <pt x="842" y="1588" on="1"/>
        <pt x="842" y="226" on="1"/>
      </contour>
      <contour>
        <pt x="284" y="368" on="1"/>
        <pt x="700" y="368" on="1"/>
        <pt x="700" y="1447" on="1"/>
        <pt x="284" y="1447" on="1"/>
      </contour>
    </TTGlyph>
    <TTGlyph name="uni000D" xMin="142" yMin="226" xMax="842" yMax="1588">
      <contour>
        <pt x="142" y="226" on="1"/>
        <pt x="142" y="1588" on="1"/>
        <pt x="842" y="1588" on="1"/>
        <pt x="842" y="226" on="1"/>
      </contour>
      <contour>
        <pt x="284" y="368" on="1"/>
        <pt x="700" y="368" on="1"/>
        <pt x="700" y="1447" on="1"/>
        <pt x="284" y="1447" on="1"/>
      </contour>
    </TTGlyph>
    <TTGlyph name="uni00A0" xMin="142" yMin="226" xMax="842" yMax="1588">
      <contour>
        <pt x="142" y="226" on="1"/>
        <pt x="142" y="1588" on="1"/>
        <pt x="842" y="1588" on="1"/>
        <pt x="842" y="226" on="1"/>
      </contour>
      <contour>
        <pt x="284" y="368" on="1"/>
        <pt x="700" y="368" on="1"/>
        <pt x="700" y="1447" on="1"/>
        <pt x="284" y="1447" on="1"/>
      </contour>
    </TTGlyph>
    <TTGlyph name="uni00AD" xMin="142" yMin="226" xMax="842" yMax="1588">
      <contour>
        <pt x="142" y="226" on="1"/>
        <pt x="142" y="1588" on="1"/>
        <pt x="842" y="1588" on="1"/>
        <pt x="842" y="226" on="1"/>
      </contour>
      <contour>
        <pt x="284" y="368" on="1"/>
        <pt x="700" y="368" on="1"/>
        <pt x="700" y="1447" on="1"/>
        <pt x="284" y="1447" on="1"/>
      </contour>
    </TTGlyph>
    <TTGlyph name="uni0653" xMin="142" yMin="226" xMax="842" yMax="1588">
      <contour>
        <pt x="142" y="226" on="1"/>
        <pt x="142" y="1588" on="1"/>
        <pt x="842" y="1588" on="1"/>
        <pt x="842" y="226" on="1"/>
      </contour>
      <contour>
        <pt x="284" y="368" on="1"/>
        <pt x="700" y="368" on="1"/>
        <pt x="700" y="1447" on="1"/>
        <pt x="284" y="1447" on="1"/>
      </contour>
    </TTGlyph>
    <TTGlyph name="uni0654" xMin="142" yMin="226" xMax="842" yMax="1588">
      <contour>
        <pt x="142" y="226" on="1"/>
        <pt x="142" y="1588" on="1"/>
        <pt x="842" y="1588" on="1"/>
        <pt x="842" y="226" on="1"/>
      </contour>
      <contour>
        <pt x="284" y="368" on="1"/>
        <pt x="700" y="368" on="1"/>
        <pt x="700" y="1447" on="1"/>
        <pt x="284" y="1447" on="1"/>
      </contour>
    </TTGlyph>
    <TTGlyph name="uni0655" xMin="142" yMin="226" xMax="842" yMax="1588">
      <contour>
        <pt x="142" y="226" on="1"/>
        <pt x="142" y="1588" on="1"/>
        <pt x="842" y="1588" on="1"/>
        <pt x="842" y="226" on="1"/>
      </contour>
      <contour>
        <pt x="284" y="368" on="1"/>
        <pt x="700" y="368" on="1"/>
        <pt x="700" y="1447" on="1"/>
        <pt x="284" y="1447" on="1"/>
      </contour>
    </TTGlyph>
    <TTGlyph name="uni066B" xMin="142" yMin="226" xMax="842" yMax="1588">
      <contour>
        <pt x="142" y="226" on="1"/>
        <pt x="142" y="1588" on="1"/>
        <pt x="842" y="1588" on="1"/>
        <pt x="842" y="226" on="1"/>
      </contour>
      <contour>
        <pt x="284" y="368" on="1"/>
        <pt x="700" y="368" on="1"/>
        <pt x="700" y="1447" on="1"/>
        <pt x="284" y="1447" on="1"/>
      </contour>
    </TTGlyph>
    <TTGlyph name="uni066C" xMin="142" yMin="226" xMax="842" yMax="1588">
      <contour>
        <pt x="142" y="226" on="1"/>
        <pt x="142" y="1588" on="1"/>
        <pt x="842" y="1588" on="1"/>
        <pt x="842" y="226" on="1"/>
      </contour>
      <contour>
        <pt x="284" y="368" on="1"/>
        <pt x="700" y="368" on="1"/>
        <pt x="700" y="1447" on="1"/>
        <pt x="284" y="1447" on="1"/>
      </contour>
    </TTGlyph>
    <TTGlyph name="uni0671" xMin="142" yMin="226" xMax="842" yMax="1588">
      <contour>
        <pt x="142" y="226" on="1"/>
        <pt x="142" y="1588" on="1"/>
        <pt x="842" y="1588" on="1"/>
        <pt x="842" y="226" on="1"/>
      </contour>
      <contour>
        <pt x="284" y="368" on="1"/>
        <pt x="700" y="368" on="1"/>
        <pt x="700" y="1447" on="1"/>
        <pt x="284" y="1447" on="1"/>
      </contour>
    </TTGlyph>
    <TTGlyph name="uni067C" xMin="142" yMin="226" xMax="842" yMax="1588">
      <contour>
        <pt x="142" y="226" on="1"/>
        <pt x="142" y="1588" on="1"/>
        <pt x="842" y="1588" on="1"/>
        <pt x="842" y="226" on="1"/>
      </contour>
      <contour>
        <pt x="284" y="368" on="1"/>
        <pt x="700" y="368" on="1"/>
        <pt x="700" y="1447" on="1"/>
        <pt x="284" y="1447" on="1"/>
      </contour>
    </TTGlyph>
    <TTGlyph name="uni0681" xMin="142" yMin="226" xMax="842" yMax="1588">
      <contour>
        <pt x="142" y="226" on="1"/>
        <pt x="142" y="1588" on="1"/>
        <pt x="842" y="1588" on="1"/>
        <pt x="842" y="226" on="1"/>
      </contour>
      <contour>
        <pt x="284" y="368" on="1"/>
        <pt x="700" y="368" on="1"/>
        <pt x="700" y="1447" on="1"/>
        <pt x="284" y="1447" on="1"/>
      </contour>
    </TTGlyph>
    <TTGlyph name="uni0685" xMin="142" yMin="226" xMax="842" yMax="1588">
      <contour>
        <pt x="142" y="226" on="1"/>
        <pt x="142" y="1588" on="1"/>
        <pt x="842" y="1588" on="1"/>
        <pt x="842" y="226" on="1"/>
      </contour>
      <contour>
        <pt x="284" y="368" on="1"/>
        <pt x="700" y="368" on="1"/>
        <pt x="700" y="1447" on="1"/>
        <pt x="284" y="1447" on="1"/>
      </contour>
    </TTGlyph>
    <TTGlyph name="uni0689" xMin="142" yMin="226" xMax="842" yMax="1588">
      <contour>
        <pt x="142" y="226" on="1"/>
        <pt x="142" y="1588" on="1"/>
        <pt x="842" y="1588" on="1"/>
        <pt x="842" y="226" on="1"/>
      </contour>
      <contour>
        <pt x="284" y="368" on="1"/>
        <pt x="700" y="368" on="1"/>
        <pt x="700" y="1447" on="1"/>
        <pt x="284" y="1447" on="1"/>
      </contour>
    </TTGlyph>
    <TTGlyph name="uni0693" xMin="142" yMin="226" xMax="842" yMax="1588">
      <contour>
        <pt x="142" y="226" on="1"/>
        <pt x="142" y="1588" on="1"/>
        <pt x="842" y="1588" on="1"/>
        <pt x="842" y="226" on="1"/>
      </contour>
      <contour>
        <pt x="284" y="368" on="1"/>
        <pt x="700" y="368" on="1"/>
        <pt x="700" y="1447" on="1"/>
        <pt x="284" y="1447" on="1"/>
      </contour>
    </TTGlyph>
    <TTGlyph name="uni0696" xMin="142" yMin="226" xMax="842" yMax="1588">
      <contour>
        <pt x="142" y="226" on="1"/>
        <pt x="142" y="1588" on="1"/>
        <pt x="842" y="1588" on="1"/>
        <pt x="842" y="226" on="1"/>
      </contour>
      <contour>
        <pt x="284" y="368" on="1"/>
        <pt x="700" y="368" on="1"/>
        <pt x="700" y="1447" on="1"/>
        <pt x="284" y="1447" on="1"/>
      </contour>
    </TTGlyph>
    <TTGlyph name="uni069A" xMin="142" yMin="226" xMax="842" yMax="1588">
      <contour>
        <pt x="142" y="226" on="1"/>
        <pt x="142" y="1588" on="1"/>
        <pt x="842" y="1588" on="1"/>
        <pt x="842" y="226" on="1"/>
      </contour>
      <contour>
        <pt x="284" y="368" on="1"/>
        <pt x="700" y="368" on="1"/>
        <pt x="700" y="1447" on="1"/>
        <pt x="284" y="1447" on="1"/>
      </contour>
    </TTGlyph>
    <TTGlyph name="uni06A9" xMin="142" yMin="226" xMax="842" yMax="1588">
      <contour>
        <pt x="142" y="226" on="1"/>
        <pt x="142" y="1588" on="1"/>
        <pt x="842" y="1588" on="1"/>
        <pt x="842" y="226" on="1"/>
      </contour>
      <contour>
        <pt x="284" y="368" on="1"/>
        <pt x="700" y="368" on="1"/>
        <pt x="700" y="1447" on="1"/>
        <pt x="284" y="1447" on="1"/>
      </contour>
    </TTGlyph>
    <TTGlyph name="uni06AB" xMin="142" yMin="226" xMax="842" yMax="1588">
      <contour>
        <pt x="142" y="226" on="1"/>
        <pt x="142" y="1588" on="1"/>
        <pt x="842" y="1588" on="1"/>
        <pt x="842" y="226" on="1"/>
      </contour>
      <contour>
        <pt x="284" y="368" on="1"/>
        <pt x="700" y="368" on="1"/>
        <pt x="700" y="1447" on="1"/>
        <pt x="284" y="1447" on="1"/>
      </contour>
    </TTGlyph>
    <TTGlyph name="uni06B7" xMin="142" yMin="226" xMax="842" yMax="1588">
      <contour>
        <pt x="142" y="226" on="1"/>
        <pt x="142" y="1588" on="1"/>
        <pt x="842" y="1588" on="1"/>
        <pt x="842" y="226" on="1"/>
      </contour>
      <contour>
        <pt x="284" y="368" on="1"/>
        <pt x="700" y="368" on="1"/>
        <pt x="700" y="1447" on="1"/>
        <pt x="284" y="1447" on="1"/>
      </contour>
    </TTGlyph>
    <TTGlyph name="uni06BC" xMin="142" yMin="226" xMax="842" yMax="1588">
      <contour>
        <pt x="142" y="226" on="1"/>
        <pt x="142" y="1588" on="1"/>
        <pt x="842" y="1588" on="1"/>
        <pt x="842" y="226" on="1"/>
      </contour>
      <contour>
        <pt x="284" y="368" on="1"/>
        <pt x="700" y="368" on="1"/>
        <pt x="700" y="1447" on="1"/>
        <pt x="284" y="1447" on="1"/>
      </contour>
    </TTGlyph>
    <TTGlyph name="uni06BE" xMin="142" yMin="226" xMax="842" yMax="1588">
      <contour>
        <pt x="142" y="226" on="1"/>
        <pt x="142" y="1588" on="1"/>
        <pt x="842" y="1588" on="1"/>
        <pt x="842" y="226" on="1"/>
      </contour>
      <contour>
        <pt x="284" y="368" on="1"/>
        <pt x="700" y="368" on="1"/>
        <pt x="700" y="1447" on="1"/>
        <pt x="284" y="1447" on="1"/>
      </contour>
    </TTGlyph>
    <TTGlyph name="uni06C2" xMin="142" yMin="226" xMax="842" yMax="1588">
      <contour>
        <pt x="142" y="226" on="1"/>
        <pt x="142" y="1588" on="1"/>
        <pt x="842" y="1588" on="1"/>
        <pt x="842" y="226" on="1"/>
      </contour>
      <contour>
        <pt x="284" y="368" on="1"/>
        <pt x="700" y="368" on="1"/>
        <pt x="700" y="1447" on="1"/>
        <pt x="284" y="1447" on="1"/>
      </contour>
    </TTGlyph>
    <TTGlyph name="uni06C7" xMin="142" yMin="226" xMax="842" yMax="1588">
      <contour>
        <pt x="142" y="226" on="1"/>
        <pt x="142" y="1588" on="1"/>
        <pt x="842" y="1588" on="1"/>
        <pt x="842" y="226" on="1"/>
      </contour>
      <contour>
        <pt x="284" y="368" on="1"/>
        <pt x="700" y="368" on="1"/>
        <pt x="700" y="1447" on="1"/>
        <pt x="284" y="1447" on="1"/>
      </contour>
    </TTGlyph>
    <TTGlyph name="uni06C9" xMin="142" yMin="226" xMax="842" yMax="1588">
      <contour>
        <pt x="142" y="226" on="1"/>
        <pt x="142" y="1588" on="1"/>
        <pt x="842" y="1588" on="1"/>
        <pt x="842" y="226" on="1"/>
      </contour>
      <contour>
        <pt x="284" y="368" on="1"/>
        <pt x="700" y="368" on="1"/>
        <pt x="700" y="1447" on="1"/>
        <pt x="284" y="1447" on="1"/>
      </contour>
    </TTGlyph>
    <TTGlyph name="uni06CC" xMin="142" yMin="226" xMax="842" yMax="1588">
      <contour>
        <pt x="142" y="226" on="1"/>
        <pt x="142" y="1588" on="1"/>
        <pt x="842" y="1588" on="1"/>
        <pt x="842" y="226" on="1"/>
      </contour>
      <contour>
        <pt x="284" y="368" on="1"/>
        <pt x="700" y="368" on="1"/>
        <pt x="700" y="1447" on="1"/>
        <pt x="284" y="1447" on="1"/>
      </contour>
    </TTGlyph>
    <TTGlyph name="uni06CD" xMin="142" yMin="226" xMax="842" yMax="1588">
      <contour>
        <pt x="142" y="226" on="1"/>
        <pt x="142" y="1588" on="1"/>
        <pt x="842" y="1588" on="1"/>
        <pt x="842" y="226" on="1"/>
      </contour>
      <contour>
        <pt x="284" y="368" on="1"/>
        <pt x="700" y="368" on="1"/>
        <pt x="700" y="1447" on="1"/>
        <pt x="284" y="1447" on="1"/>
      </contour>
    </TTGlyph>
    <TTGlyph name="uni06D0" xMin="142" yMin="226" xMax="842" yMax="1588">
      <contour>
        <pt x="142" y="226" on="1"/>
        <pt x="142" y="1588" on="1"/>
        <pt x="842" y="1588" on="1"/>
        <pt x="842" y="226" on="1"/>
      </contour>
      <contour>
        <pt x="284" y="368" on="1"/>
        <pt x="700" y="368" on="1"/>
        <pt x="700" y="1447" on="1"/>
        <pt x="284" y="1447" on="1"/>
      </contour>
    </TTGlyph>
    <TTGlyph name="uni06D1" xMin="142" yMin="226" xMax="842" yMax="1588">
      <contour>
        <pt x="142" y="226" on="1"/>
        <pt x="142" y="1588" on="1"/>
        <pt x="842" y="1588" on="1"/>
        <pt x="842" y="226" on="1"/>
      </contour>
      <contour>
        <pt x="284" y="368" on="1"/>
        <pt x="700" y="368" on="1"/>
        <pt x="700" y="1447" on="1"/>
        <pt x="284" y="1447" on="1"/>
      </contour>
    </TTGlyph>
    <TTGlyph name="uni06D3" xMin="142" yMin="226" xMax="842" yMax="1588">
      <contour>
        <pt x="142" y="226" on="1"/>
        <pt x="142" y="1588" on="1"/>
        <pt x="842" y="1588" on="1"/>
        <pt x="842" y="226" on="1"/>
      </contour>
      <contour>
        <pt x="284" y="368" on="1"/>
        <pt x="700" y="368" on="1"/>
        <pt x="700" y="1447" on="1"/>
        <pt x="284" y="1447" on="1"/>
      </contour>
    </TTGlyph>
    <TTGlyph name="uni06D4" xMin="142" yMin="226" xMax="842" yMax="1588">
      <contour>
        <pt x="142" y="226" on="1"/>
        <pt x="142" y="1588" on="1"/>
        <pt x="842" y="1588" on="1"/>
        <pt x="842" y="226" on="1"/>
      </contour>
      <contour>
        <pt x="284" y="368" on="1"/>
        <pt x="700" y="368" on="1"/>
        <pt x="700" y="1447" on="1"/>
        <pt x="284" y="1447" on="1"/>
      </contour>
    </TTGlyph>
    <TTGlyph name="uni06F0" xMin="142" yMin="226" xMax="842" yMax="1588">
      <contour>
        <pt x="142" y="226" on="1"/>
        <pt x="142" y="1588" on="1"/>
        <pt x="842" y="1588" on="1"/>
        <pt x="842" y="226" on="1"/>
      </contour>
      <contour>
        <pt x="284" y="368" on="1"/>
        <pt x="700" y="368" on="1"/>
        <pt x="700" y="1447" on="1"/>
        <pt x="284" y="1447" on="1"/>
      </contour>
    </TTGlyph>
    <TTGlyph name="uni06F1" xMin="142" yMin="226" xMax="842" yMax="1588">
      <contour>
        <pt x="142" y="226" on="1"/>
        <pt x="142" y="1588" on="1"/>
        <pt x="842" y="1588" on="1"/>
        <pt x="842" y="226" on="1"/>
      </contour>
      <contour>
        <pt x="284" y="368" on="1"/>
        <pt x="700" y="368" on="1"/>
        <pt x="700" y="1447" on="1"/>
        <pt x="284" y="1447" on="1"/>
      </contour>
    </TTGlyph>
    <TTGlyph name="uni06F2" xMin="142" yMin="226" xMax="842" yMax="1588">
      <contour>
        <pt x="142" y="226" on="1"/>
        <pt x="142" y="1588" on="1"/>
        <pt x="842" y="1588" on="1"/>
        <pt x="842" y="226" on="1"/>
      </contour>
      <contour>
        <pt x="284" y="368" on="1"/>
        <pt x="700" y="368" on="1"/>
        <pt x="700" y="1447" on="1"/>
        <pt x="284" y="1447" on="1"/>
      </contour>
    </TTGlyph>
    <TTGlyph name="uni06F3" xMin="142" yMin="226" xMax="842" yMax="1588">
      <contour>
        <pt x="142" y="226" on="1"/>
        <pt x="142" y="1588" on="1"/>
        <pt x="842" y="1588" on="1"/>
        <pt x="842" y="226" on="1"/>
      </contour>
      <contour>
        <pt x="284" y="368" on="1"/>
        <pt x="700" y="368" on="1"/>
        <pt x="700" y="1447" on="1"/>
        <pt x="284" y="1447" on="1"/>
      </contour>
    </TTGlyph>
    <TTGlyph name="uni06F4" xMin="142" yMin="226" xMax="842" yMax="1588">
      <contour>
        <pt x="142" y="226" on="1"/>
        <pt x="142" y="1588" on="1"/>
        <pt x="842" y="1588" on="1"/>
        <pt x="842" y="226" on="1"/>
      </contour>
      <contour>
        <pt x="284" y="368" on="1"/>
        <pt x="700" y="368" on="1"/>
        <pt x="700" y="1447" on="1"/>
        <pt x="284" y="1447" on="1"/>
      </contour>
    </TTGlyph>
    <TTGlyph name="uni06F5" xMin="142" yMin="226" xMax="842" yMax="1588">
      <contour>
        <pt x="142" y="226" on="1"/>
        <pt x="142" y="1588" on="1"/>
        <pt x="842" y="1588" on="1"/>
        <pt x="842" y="226" on="1"/>
      </contour>
      <contour>
        <pt x="284" y="368" on="1"/>
        <pt x="700" y="368" on="1"/>
        <pt x="700" y="1447" on="1"/>
        <pt x="284" y="1447" on="1"/>
      </contour>
    </TTGlyph>
    <TTGlyph name="uni06F6" xMin="142" yMin="226" xMax="842" yMax="1588">
      <contour>
        <pt x="142" y="226" on="1"/>
        <pt x="142" y="1588" on="1"/>
        <pt x="842" y="1588" on="1"/>
        <pt x="842" y="226" on="1"/>
      </contour>
      <contour>
        <pt x="284" y="368" on="1"/>
        <pt x="700" y="368" on="1"/>
        <pt x="700" y="1447" on="1"/>
        <pt x="284" y="1447" on="1"/>
      </contour>
    </TTGlyph>
    <TTGlyph name="uni06F7" xMin="142" yMin="226" xMax="842" yMax="1588">
      <contour>
        <pt x="142" y="226" on="1"/>
        <pt x="142" y="1588" on="1"/>
        <pt x="842" y="1588" on="1"/>
        <pt x="842" y="226" on="1"/>
      </contour>
      <contour>
        <pt x="284" y="368" on="1"/>
        <pt x="700" y="368" on="1"/>
        <pt x="700" y="1447" on="1"/>
        <pt x="284" y="1447" on="1"/>
      </contour>
    </TTGlyph>
    <TTGlyph name="uni06F8" xMin="142" yMin="226" xMax="842" yMax="1588">
      <contour>
        <pt x="142" y="226" on="1"/>
        <pt x="142" y="1588" on="1"/>
        <pt x="842" y="1588" on="1"/>
        <pt x="842" y="226" on="1"/>
      </contour>
      <contour>
        <pt x="284" y="368" on="1"/>
        <pt x="700" y="368" on="1"/>
        <pt x="700" y="1447" on="1"/>
        <pt x="284" y="1447" on="1"/>
      </contour>
    </TTGlyph>
    <TTGlyph name="uni06F9" xMin="142" yMin="226" xMax="842" yMax="1588">
      <contour>
        <pt x="142" y="226" on="1"/>
        <pt x="142" y="1588" on="1"/>
        <pt x="842" y="1588" on="1"/>
        <pt x="842" y="226" on="1"/>
      </contour>
      <contour>
        <pt x="284" y="368" on="1"/>
        <pt x="700" y="368" on="1"/>
        <pt x="700" y="1447" on="1"/>
        <pt x="284" y="1447" on="1"/>
      </contour>
    </TTGlyph>
    <TTGlyph name="uni2010" xMin="300" yMin="-436" xMax="2441" yMax="1642">
      <contour>
        <pt x="2441" y="1315" on="1"/>
        <pt x="2441" y="1266" on="0"/>
        <pt x="2205" y="1109" on="1"/>
        <pt x="2070" y="1022" on="0"/>
        <pt x="1935" y="936" on="1"/>
        <pt x="1901" y="936" on="1"/>
        <pt x="1877" y="957" on="0"/>
        <pt x="1877" y="987" on="1"/>
        <pt x="1877" y="1030" on="0"/>
        <pt x="2099" y="1168" on="1"/>
        <pt x="2279" y="1280" on="0"/>
        <pt x="2415" y="1345" on="1"/>
        <pt x="2423" y="1340" on="0"/>
        <pt x="2441" y="1330" on="0"/>
      </contour>
      <contour>
        <pt x="1785" y="1289" on="1"/>
        <pt x="1785" y="1240" on="0"/>
        <pt x="1575" y="1102" on="1"/>
        <pt x="1458" y="1029" on="0"/>
        <pt x="1341" y="957" on="1"/>
        <pt x="1295" y="957" on="1"/>
        <pt x="1295" y="1011" on="1"/>
        <pt x="1294" y="1046" on="0"/>
        <pt x="1512" y="1183" on="1"/>
        <pt x="1722" y="1315" on="0"/>
        <pt x="1773" y="1324" on="1"/>
        <pt x="1773" y="1321" on="0"/>
        <pt x="1785" y="1303" on="0"/>
      </contour>
      <contour>
        <pt x="1159" y="1584" on="1"/>
        <pt x="1160" y="1547" on="0"/>
        <pt x="994" y="1455" on="1"/>
        <pt x="869" y="1389" on="0"/>
        <pt x="623" y="1243" on="1"/>
        <pt x="617" y="1248" on="0"/>
        <pt x="592" y="1262" on="0"/>
        <pt x="588" y="1266" on="1"/>
        <pt x="588" y="1299" on="0"/>
        <pt x="601" y="1322" on="1"/>
        <pt x="622" y="1359" on="0"/>
        <pt x="704" y="1405" on="1"/>
        <pt x="764" y="1438" on="0"/>
        <pt x="825" y="1470" on="1"/>
        <pt x="956" y="1550" on="0"/>
        <pt x="1135" y="1642" on="1"/>
        <pt x="1150" y="1630" on="0"/>
        <pt x="1159" y="1630" on="1"/>
      </contour>
      <contour>
        <pt x="2430" y="173" on="1"/>
        <pt x="2430" y="-58" on="0"/>
        <pt x="2305" y="-218" on="1"/>
        <pt x="2168" y="-395" on="0"/>
        <pt x="1938" y="-395" on="1"/>
        <pt x="1910" y="-395" on="0"/>
        <pt x="1800" y="-382" on="1"/>
        <pt x="1793" y="-381" on="0"/>
        <pt x="1735" y="-353" on="1"/>
        <pt x="1734" y="-345" on="0"/>
        <pt x="1724" y="-328" on="1"/>
        <pt x="1753" y="-305" on="0"/>
        <pt x="1801" y="-304" on="1"/>
        <pt x="1869" y="-303" on="0"/>
        <pt x="1881" y="-300" on="1"/>
        <pt x="2030" y="-266" on="0"/>
        <pt x="2105" y="-219" on="1"/>
        <pt x="2152" y="-190" on="0"/>
        <pt x="2243" y="-110" on="1"/>
        <pt x="2277" y="-72" on="0"/>
        <pt x="2318" y="29" on="1"/>
        <pt x="2321" y="35" on="0"/>
        <pt x="2311" y="45" on="1"/>
        <pt x="2257" y="14" on="0"/>
        <pt x="2236" y="14" on="1"/>
        <pt x="2160" y="14" on="0"/>
        <pt x="2112" y="88" on="1"/>
        <pt x="2072" y="150" on="0"/>
        <pt x="2072" y="214" on="1"/>
        <pt x="2072" y="270" on="0"/>
        <pt x="2101" y="334" on="1"/>
        <pt x="2141" y="424" on="0"/>
        <pt x="2210" y="424" on="1"/>
        <pt x="2286" y="424" on="0"/>
        <pt x="2363" y="319" on="1"/>
        <pt x="2430" y="227" on="0"/>
      </contour>
      <contour>
        <pt x="1058" y="1186" on="1"/>
        <pt x="1058" y="1163" on="0"/>
        <pt x="1041" y="1120" on="1"/>
        <pt x="1021" y="1066" on="0"/>
        <pt x="991" y="1042" on="1"/>
        <pt x="950" y="1010" on="0"/>
        <pt x="864" y="976" on="1"/>
        <pt x="785" y="946" on="0"/>
        <pt x="761" y="946" on="1"/>
        <pt x="679" y="946" on="0"/>
        <pt x="679" y="1033" on="1"/>
        <pt x="679" y="1099" on="0"/>
        <pt x="751" y="1171" on="1"/>
        <pt x="778" y="1135" on="0"/>
        <pt x="761" y="1085" on="1"/>
        <pt x="778" y="1069" on="0"/>
        <pt x="792" y="1069" on="1"/>
        <pt x="812" y="1069" on="0"/>
        <pt x="829" y="1097" on="1"/>
        <pt x="846" y="1136" on="0"/>
        <pt x="900" y="1212" on="1"/>
        <pt x="910" y="1189" on="0"/>
        <pt x="942" y="1130" on="1"/>
        <pt x="964" y="1139" on="0"/>
        <pt x="986" y="1243" on="0"/>
        <pt x="1034" y="1263" on="1"/>
        <pt x="1058" y="1216" on="0"/>
      </contour>
      <contour>
        <pt x="955" y="736" on="1"/>
        <pt x="955" y="705" on="0"/>
        <pt x="891" y="639" on="0"/>
        <pt x="864" y="639" on="1"/>
        <pt x="832" y="639" on="0"/>
        <pt x="761" y="691" on="0"/>
        <pt x="761" y="715" on="1"/>
        <pt x="761" y="739" on="0"/>
        <pt x="833" y="823" on="0"/>
        <pt x="853" y="823" on="1"/>
        <pt x="886" y="823" on="0"/>
        <pt x="955" y="761" on="0"/>
      </contour>
      <contour>
        <pt x="1099" y="551" on="1"/>
        <pt x="1099" y="520" on="0"/>
        <pt x="1053" y="480" on="1"/>
        <pt x="1012" y="444" on="0"/>
        <pt x="996" y="444" on="1"/>
        <pt x="985" y="444" on="0"/>
        <pt x="920" y="485" on="0"/>
        <pt x="909" y="485" on="1"/>
        <pt x="896" y="485" on="0"/>
        <pt x="830" y="424" on="0"/>
        <pt x="818" y="424" on="1"/>
        <pt x="792" y="424" on="0"/>
        <pt x="700" y="481" on="0"/>
        <pt x="700" y="496" on="1"/>
        <pt x="700" y="532" on="0"/>
        <pt x="744" y="573" on="1"/>
        <pt x="783" y="608" on="0"/>
        <pt x="802" y="608" on="1"/>
        <pt x="812" y="608" on="0"/>
        <pt x="876" y="578" on="0"/>
        <pt x="889" y="578" on="1"/>
        <pt x="902" y="578" on="0"/>
        <pt x="964" y="639" on="0"/>
        <pt x="976" y="639" on="1"/>
        <pt x="999" y="639" on="0"/>
        <pt x="1045" y="612" on="1"/>
        <pt x="1099" y="581" on="0"/>
      </contour>
      <contour>
        <pt x="1765" y="203" on="1"/>
        <pt x="1765" y="119" on="0"/>
        <pt x="1728" y="57" on="1"/>
        <pt x="1683" y="-16" on="0"/>
        <pt x="1601" y="-16" on="1"/>
        <pt x="1552" y="-16" on="0"/>
        <pt x="1496" y="7" on="1"/>
        <pt x="1435" y="31" on="0"/>
        <pt x="1411" y="66" on="1"/>
        <pt x="1345" y="-16" on="0"/>
        <pt x="1111" y="-75" on="1"/>
        <pt x="900" y="-129" on="0"/>
        <pt x="715" y="-129" on="1"/>
        <pt x="583" y="-129" on="0"/>
        <pt x="456" y="-58" on="1"/>
        <pt x="300" y="29" on="0"/>
        <pt x="300" y="173" on="1"/>
        <pt x="300" y="239" on="0"/>
        <pt x="334" y="318" on="1"/>
        <pt x="345" y="345" on="0"/>
        <pt x="418" y="393" on="1"/>
        <pt x="433" y="381" on="0"/>
        <pt x="443" y="381" on="1"/>
        <pt x="443" y="352" on="0"/>
        <pt x="413" y="238" on="0"/>
        <pt x="413" y="229" on="1"/>
        <pt x="413" y="128" on="0"/>
        <pt x="562" y="74" on="1"/>
        <pt x="667" y="34" on="0"/>
        <pt x="766" y="34" on="1"/>
        <pt x="1140" y="34" on="0"/>
        <pt x="1337" y="159" on="1"/>
        <pt x="1358" y="173" on="0"/>
        <pt x="1392" y="245" on="1"/>
        <pt x="1424" y="311" on="0"/>
        <pt x="1453" y="321" on="1"/>
        <pt x="1460" y="315" on="0"/>
        <pt x="1473" y="305" on="1"/>
        <pt x="1475" y="271" on="0"/>
        <pt x="1480" y="196" on="1"/>
        <pt x="1512" y="171" on="0"/>
        <pt x="1566" y="147" on="1"/>
        <pt x="1645" y="147" on="1"/>
        <pt x="1662" y="164" on="0"/>
        <pt x="1662" y="173" on="1"/>
        <pt x="1662" y="186" on="0"/>
        <pt x="1621" y="309" on="0"/>
        <pt x="1621" y="321" on="1"/>
        <pt x="1621" y="355" on="0"/>
        <pt x="1665" y="423" on="1"/>
        <pt x="1691" y="423" on="0"/>
        <pt x="1698" y="411" on="1"/>
        <pt x="1720" y="374" on="0"/>
        <pt x="1743" y="295" on="1"/>
        <pt x="1765" y="224" on="0"/>
      </contour>
      <contour>
        <pt x="1601" y="-339" on="1"/>
        <pt x="1601" y="-361" on="0"/>
        <pt x="1529" y="-436" on="0"/>
        <pt x="1513" y="-436" on="1"/>
        <pt x="1493" y="-436" on="0"/>
        <pt x="1385" y="-357" on="0"/>
        <pt x="1385" y="-344" on="1"/>
        <pt x="1385" y="-326" on="0"/>
        <pt x="1461" y="-241" on="0"/>
        <pt x="1478" y="-241" on="1"/>
        <pt x="1505" y="-241" on="0"/>
        <pt x="1554" y="-285" on="1"/>
        <pt x="1601" y="-326" on="0"/>
      </contour>
      <contour>
        <pt x="2287" y="193" on="1"/>
        <pt x="2242" y="259" on="0"/>
        <pt x="2209" y="270" on="1"/>
        <pt x="2196" y="264" on="0"/>
        <pt x="2174" y="247" on="1"/>
        <pt x="2174" y="212" on="1"/>
        <pt x="2208" y="178" on="0"/>
        <pt x="2246" y="178" on="1"/>
        <pt x="2272" y="178" on="0"/>
      </contour>
    </TTGlyph>
    <TTGlyph name="uni2011" xMin="300" yMin="-436" xMax="2441" yMax="1642">
      <contour>
        <pt x="2441" y="1315" on="1"/>
        <pt x="2441" y="1266" on="0"/>
        <pt x="2205" y="1109" on="1"/>
        <pt x="2070" y="1022" on="0"/>
        <pt x="1935" y="936" on="1"/>
        <pt x="1901" y="936" on="1"/>
        <pt x="1877" y="957" on="0"/>
        <pt x="1877" y="987" on="1"/>
        <pt x="1877" y="1030" on="0"/>
        <pt x="2099" y="1168" on="1"/>
        <pt x="2279" y="1280" on="0"/>
        <pt x="2415" y="1345" on="1"/>
        <pt x="2423" y="1340" on="0"/>
        <pt x="2441" y="1330" on="0"/>
      </contour>
      <contour>
        <pt x="1785" y="1289" on="1"/>
        <pt x="1785" y="1240" on="0"/>
        <pt x="1575" y="1102" on="1"/>
        <pt x="1458" y="1029" on="0"/>
        <pt x="1341" y="957" on="1"/>
        <pt x="1295" y="957" on="1"/>
        <pt x="1295" y="1011" on="1"/>
        <pt x="1294" y="1046" on="0"/>
        <pt x="1512" y="1183" on="1"/>
        <pt x="1722" y="1315" on="0"/>
        <pt x="1773" y="1324" on="1"/>
        <pt x="1773" y="1321" on="0"/>
        <pt x="1785" y="1303" on="0"/>
      </contour>
      <contour>
        <pt x="1159" y="1584" on="1"/>
        <pt x="1160" y="1547" on="0"/>
        <pt x="994" y="1455" on="1"/>
        <pt x="869" y="1389" on="0"/>
        <pt x="623" y="1243" on="1"/>
        <pt x="617" y="1248" on="0"/>
        <pt x="592" y="1262" on="0"/>
        <pt x="588" y="1266" on="1"/>
        <pt x="588" y="1299" on="0"/>
        <pt x="601" y="1322" on="1"/>
        <pt x="622" y="1359" on="0"/>
        <pt x="704" y="1405" on="1"/>
        <pt x="764" y="1438" on="0"/>
        <pt x="825" y="1470" on="1"/>
        <pt x="956" y="1550" on="0"/>
        <pt x="1135" y="1642" on="1"/>
        <pt x="1150" y="1630" on="0"/>
        <pt x="1159" y="1630" on="1"/>
      </contour>
      <contour>
        <pt x="2430" y="173" on="1"/>
        <pt x="2430" y="-58" on="0"/>
        <pt x="2305" y="-218" on="1"/>
        <pt x="2168" y="-395" on="0"/>
        <pt x="1938" y="-395" on="1"/>
        <pt x="1910" y="-395" on="0"/>
        <pt x="1800" y="-382" on="1"/>
        <pt x="1793" y="-381" on="0"/>
        <pt x="1735" y="-353" on="1"/>
        <pt x="1734" y="-345" on="0"/>
        <pt x="1724" y="-328" on="1"/>
        <pt x="1753" y="-305" on="0"/>
        <pt x="1801" y="-304" on="1"/>
        <pt x="1869" y="-303" on="0"/>
        <pt x="1881" y="-300" on="1"/>
        <pt x="2030" y="-266" on="0"/>
        <pt x="2105" y="-219" on="1"/>
        <pt x="2152" y="-190" on="0"/>
        <pt x="2243" y="-110" on="1"/>
        <pt x="2277" y="-72" on="0"/>
        <pt x="2318" y="29" on="1"/>
        <pt x="2321" y="35" on="0"/>
        <pt x="2311" y="45" on="1"/>
        <pt x="2257" y="14" on="0"/>
        <pt x="2236" y="14" on="1"/>
        <pt x="2160" y="14" on="0"/>
        <pt x="2112" y="88" on="1"/>
        <pt x="2072" y="150" on="0"/>
        <pt x="2072" y="214" on="1"/>
        <pt x="2072" y="270" on="0"/>
        <pt x="2101" y="334" on="1"/>
        <pt x="2141" y="424" on="0"/>
        <pt x="2210" y="424" on="1"/>
        <pt x="2286" y="424" on="0"/>
        <pt x="2363" y="319" on="1"/>
        <pt x="2430" y="227" on="0"/>
      </contour>
      <contour>
        <pt x="1058" y="1186" on="1"/>
        <pt x="1058" y="1163" on="0"/>
        <pt x="1041" y="1120" on="1"/>
        <pt x="1021" y="1066" on="0"/>
        <pt x="991" y="1042" on="1"/>
        <pt x="950" y="1010" on="0"/>
        <pt x="864" y="976" on="1"/>
        <pt x="785" y="946" on="0"/>
        <pt x="761" y="946" on="1"/>
        <pt x="679" y="946" on="0"/>
        <pt x="679" y="1033" on="1"/>
        <pt x="679" y="1099" on="0"/>
        <pt x="751" y="1171" on="1"/>
        <pt x="778" y="1135" on="0"/>
        <pt x="761" y="1085" on="1"/>
        <pt x="778" y="1069" on="0"/>
        <pt x="792" y="1069" on="1"/>
        <pt x="812" y="1069" on="0"/>
        <pt x="829" y="1097" on="1"/>
        <pt x="846" y="1136" on="0"/>
        <pt x="900" y="1212" on="1"/>
        <pt x="910" y="1189" on="0"/>
        <pt x="942" y="1130" on="1"/>
        <pt x="964" y="1139" on="0"/>
        <pt x="986" y="1243" on="0"/>
        <pt x="1034" y="1263" on="1"/>
        <pt x="1058" y="1216" on="0"/>
      </contour>
      <contour>
        <pt x="955" y="736" on="1"/>
        <pt x="955" y="705" on="0"/>
        <pt x="891" y="639" on="0"/>
        <pt x="864" y="639" on="1"/>
        <pt x="832" y="639" on="0"/>
        <pt x="761" y="691" on="0"/>
        <pt x="761" y="715" on="1"/>
        <pt x="761" y="739" on="0"/>
        <pt x="833" y="823" on="0"/>
        <pt x="853" y="823" on="1"/>
        <pt x="886" y="823" on="0"/>
        <pt x="955" y="761" on="0"/>
      </contour>
      <contour>
        <pt x="1099" y="551" on="1"/>
        <pt x="1099" y="520" on="0"/>
        <pt x="1053" y="480" on="1"/>
        <pt x="1012" y="444" on="0"/>
        <pt x="996" y="444" on="1"/>
        <pt x="985" y="444" on="0"/>
        <pt x="920" y="485" on="0"/>
        <pt x="909" y="485" on="1"/>
        <pt x="896" y="485" on="0"/>
        <pt x="830" y="424" on="0"/>
        <pt x="818" y="424" on="1"/>
        <pt x="792" y="424" on="0"/>
        <pt x="700" y="481" on="0"/>
        <pt x="700" y="496" on="1"/>
        <pt x="700" y="532" on="0"/>
        <pt x="744" y="573" on="1"/>
        <pt x="783" y="608" on="0"/>
        <pt x="802" y="608" on="1"/>
        <pt x="812" y="608" on="0"/>
        <pt x="876" y="578" on="0"/>
        <pt x="889" y="578" on="1"/>
        <pt x="902" y="578" on="0"/>
        <pt x="964" y="639" on="0"/>
        <pt x="976" y="639" on="1"/>
        <pt x="999" y="639" on="0"/>
        <pt x="1045" y="612" on="1"/>
        <pt x="1099" y="581" on="0"/>
      </contour>
      <contour>
        <pt x="1765" y="203" on="1"/>
        <pt x="1765" y="119" on="0"/>
        <pt x="1728" y="57" on="1"/>
        <pt x="1683" y="-16" on="0"/>
        <pt x="1601" y="-16" on="1"/>
        <pt x="1552" y="-16" on="0"/>
        <pt x="1496" y="7" on="1"/>
        <pt x="1435" y="31" on="0"/>
        <pt x="1411" y="66" on="1"/>
        <pt x="1345" y="-16" on="0"/>
        <pt x="1111" y="-75" on="1"/>
        <pt x="900" y="-129" on="0"/>
        <pt x="715" y="-129" on="1"/>
        <pt x="583" y="-129" on="0"/>
        <pt x="456" y="-58" on="1"/>
        <pt x="300" y="29" on="0"/>
        <pt x="300" y="173" on="1"/>
        <pt x="300" y="239" on="0"/>
        <pt x="334" y="318" on="1"/>
        <pt x="345" y="345" on="0"/>
        <pt x="418" y="393" on="1"/>
        <pt x="433" y="381" on="0"/>
        <pt x="443" y="381" on="1"/>
        <pt x="443" y="352" on="0"/>
        <pt x="413" y="238" on="0"/>
        <pt x="413" y="229" on="1"/>
        <pt x="413" y="128" on="0"/>
        <pt x="562" y="74" on="1"/>
        <pt x="667" y="34" on="0"/>
        <pt x="766" y="34" on="1"/>
        <pt x="1140" y="34" on="0"/>
        <pt x="1337" y="159" on="1"/>
        <pt x="1358" y="173" on="0"/>
        <pt x="1392" y="245" on="1"/>
        <pt x="1424" y="311" on="0"/>
        <pt x="1453" y="321" on="1"/>
        <pt x="1460" y="315" on="0"/>
        <pt x="1473" y="305" on="1"/>
        <pt x="1475" y="271" on="0"/>
        <pt x="1480" y="196" on="1"/>
        <pt x="1512" y="171" on="0"/>
        <pt x="1566" y="147" on="1"/>
        <pt x="1645" y="147" on="1"/>
        <pt x="1662" y="164" on="0"/>
        <pt x="1662" y="173" on="1"/>
        <pt x="1662" y="186" on="0"/>
        <pt x="1621" y="309" on="0"/>
        <pt x="1621" y="321" on="1"/>
        <pt x="1621" y="355" on="0"/>
        <pt x="1665" y="423" on="1"/>
        <pt x="1691" y="423" on="0"/>
        <pt x="1698" y="411" on="1"/>
        <pt x="1720" y="374" on="0"/>
        <pt x="1743" y="295" on="1"/>
        <pt x="1765" y="224" on="0"/>
      </contour>
      <contour>
        <pt x="1601" y="-339" on="1"/>
        <pt x="1601" y="-361" on="0"/>
        <pt x="1529" y="-436" on="0"/>
        <pt x="1513" y="-436" on="1"/>
        <pt x="1493" y="-436" on="0"/>
        <pt x="1385" y="-357" on="0"/>
        <pt x="1385" y="-344" on="1"/>
        <pt x="1385" y="-326" on="0"/>
        <pt x="1461" y="-241" on="0"/>
        <pt x="1478" y="-241" on="1"/>
        <pt x="1505" y="-241" on="0"/>
        <pt x="1554" y="-285" on="1"/>
        <pt x="1601" y="-326" on="0"/>
      </contour>
      <contour>
        <pt x="2287" y="193" on="1"/>
        <pt x="2242" y="259" on="0"/>
        <pt x="2209" y="270" on="1"/>
        <pt x="2196" y="264" on="0"/>
        <pt x="2174" y="247" on="1"/>
        <pt x="2174" y="212" on="1"/>
        <pt x="2208" y="178" on="0"/>
        <pt x="2246" y="178" on="1"/>
        <pt x="2272" y="178" on="0"/>
      </contour>
    </TTGlyph>
    <TTGlyph name="uniE000" xMin="0" yMin="0" xMax="1575" yMax="1575">
      <contour>
        <pt x="0" y="1575" on="1"/>
        <pt x="1575" y="1575" on="1"/>
        <pt x="1575" y="0" on="1"/>
        <pt x="0" y="0" on="1"/>
      </contour>
    </TTGlyph>
    <TTGlyph name="uniFB51" xMin="296" yMin="-521" xMax="2968" yMax="1710">
      <contour>
        <pt x="2896" y="1285" on="1"/>
        <pt x="2896" y="1236" on="0"/>
        <pt x="2720" y="1132" on="1"/>
        <pt x="2596" y="1063" on="0"/>
        <pt x="2473" y="993" on="1"/>
        <pt x="2468" y="993" on="0"/>
        <pt x="2442" y="1004" on="0"/>
        <pt x="2437" y="1004" on="1"/>
        <pt x="2437" y="1038" on="1"/>
        <pt x="2436" y="1094" on="0"/>
        <pt x="2641" y="1206" on="1"/>
        <pt x="2802" y="1294" on="0"/>
        <pt x="2882" y="1321" on="1"/>
        <pt x="2896" y="1307" on="0"/>
      </contour>
      <contour>
        <pt x="2016" y="1679" on="1"/>
        <pt x="2016" y="1633" on="0"/>
        <pt x="1852" y="1541" on="1"/>
        <pt x="1748" y="1482" on="0"/>
        <pt x="1644" y="1424" on="1"/>
        <pt x="1599" y="1424" on="1"/>
        <pt x="1586" y="1425" on="0"/>
        <pt x="1586" y="1448" on="1"/>
        <pt x="1586" y="1501" on="0"/>
        <pt x="1621" y="1525" on="1"/>
        <pt x="1684" y="1565" on="0"/>
        <pt x="1792" y="1620" on="1"/>
        <pt x="1947" y="1697" on="0"/>
        <pt x="1969" y="1710" on="1"/>
        <pt x="2003" y="1710" on="1"/>
        <pt x="2016" y="1696" on="0"/>
      </contour>
      <contour>
        <pt x="2691" y="931" on="1"/>
        <pt x="2691" y="851" on="0"/>
        <pt x="2517" y="772" on="1"/>
        <pt x="2373" y="706" on="0"/>
        <pt x="2323" y="706" on="1"/>
        <pt x="2311" y="706" on="0"/>
        <pt x="2176" y="737" on="0"/>
        <pt x="2165" y="737" on="1"/>
        <pt x="2151" y="737" on="0"/>
        <pt x="2124" y="707" on="1"/>
        <pt x="2088" y="664" on="0"/>
        <pt x="2078" y="655" on="1"/>
        <pt x="2056" y="669" on="0"/>
        <pt x="2056" y="696" on="1"/>
        <pt x="2056" y="726" on="0"/>
        <pt x="2095" y="796" on="1"/>
        <pt x="2135" y="870" on="0"/>
        <pt x="2159" y="870" on="1"/>
        <pt x="2172" y="870" on="0"/>
        <pt x="2336" y="829" on="0"/>
        <pt x="2349" y="829" on="1"/>
        <pt x="2450" y="829" on="0"/>
        <pt x="2542" y="883" on="1"/>
        <pt x="2670" y="958" on="0"/>
        <pt x="2679" y="961" on="1"/>
        <pt x="2679" y="958" on="0"/>
        <pt x="2691" y="946" on="0"/>
      </contour>
      <contour>
        <pt x="2036" y="1244" on="1"/>
        <pt x="2036" y="1210" on="0"/>
        <pt x="1798" y="1122" on="1"/>
        <pt x="1771" y="1109" on="0"/>
        <pt x="1722" y="1085" on="1"/>
        <pt x="1716" y="1099" on="0"/>
        <pt x="1672" y="1162" on="1"/>
        <pt x="1637" y="1214" on="0"/>
        <pt x="1637" y="1229" on="1"/>
        <pt x="1637" y="1266" on="0"/>
        <pt x="1787" y="1413" on="0"/>
        <pt x="1826" y="1413" on="1"/>
        <pt x="1846" y="1413" on="0"/>
        <pt x="1914" y="1350" on="0"/>
        <pt x="1914" y="1331" on="1"/>
        <pt x="1914" y="1308" on="0"/>
        <pt x="1870" y="1270" on="0"/>
        <pt x="1847" y="1270" on="1"/>
        <pt x="1832" y="1270" on="0"/>
        <pt x="1808" y="1281" on="1"/>
        <pt x="1775" y="1297" on="0"/>
        <pt x="1766" y="1300" on="1"/>
        <pt x="1761" y="1295" on="0"/>
        <pt x="1755" y="1280" on="0"/>
        <pt x="1750" y="1275" on="1"/>
        <pt x="1785" y="1239" on="0"/>
        <pt x="1826" y="1239" on="1"/>
        <pt x="1839" y="1239" on="0"/>
        <pt x="1938" y="1269" on="0"/>
        <pt x="1951" y="1269" on="1"/>
        <pt x="2024" y="1269" on="1"/>
        <pt x="2036" y="1267" on="0"/>
      </contour>
      <contour>
        <pt x="2835" y="230" on="1"/>
        <pt x="2835" y="103" on="0"/>
        <pt x="2762" y="34" on="1"/>
        <pt x="2738" y="12" on="0"/>
        <pt x="2554" y="-15" on="1"/>
        <pt x="2391" y="-40" on="0"/>
        <pt x="2342" y="-40" on="1"/>
        <pt x="2206" y="-40" on="1"/>
        <pt x="2107" y="-40" on="0"/>
        <pt x="2074" y="-35" on="1"/>
        <pt x="1986" y="-18" on="0"/>
        <pt x="1890" y="104" on="0"/>
        <pt x="1879" y="209" on="1"/>
        <pt x="1873" y="269" on="0"/>
        <pt x="1828" y="659" on="1"/>
        <pt x="1821" y="712" on="0"/>
        <pt x="1795" y="850" on="1"/>
        <pt x="1771" y="977" on="0"/>
        <pt x="1771" y="983" on="1"/>
        <pt x="1771" y="1029" on="0"/>
        <pt x="1834" y="1115" on="1"/>
        <pt x="1852" y="1115" on="0"/>
        <pt x="1878" y="1099" on="1"/>
        <pt x="1903" y="874" on="0"/>
        <pt x="1957" y="427" on="1"/>
        <pt x="1976" y="279" on="0"/>
        <pt x="2008" y="202" on="1"/>
        <pt x="2044" y="112" on="0"/>
        <pt x="2236" y="112" on="1"/>
        <pt x="2351" y="112" on="0"/>
        <pt x="2624" y="146" on="1"/>
        <pt x="2685" y="153" on="0"/>
        <pt x="2722" y="190" on="1"/>
        <pt x="2712" y="221" on="0"/>
        <pt x="2663" y="303" on="1"/>
        <pt x="2620" y="376" on="0"/>
        <pt x="2620" y="389" on="1"/>
        <pt x="2620" y="401" on="0"/>
        <pt x="2638" y="437" on="1"/>
        <pt x="2659" y="480" on="0"/>
        <pt x="2663" y="491" on="1"/>
        <pt x="2695" y="491" on="1"/>
        <pt x="2750" y="491" on="0"/>
        <pt x="2798" y="366" on="1"/>
        <pt x="2835" y="268" on="0"/>
      </contour>
      <contour>
        <pt x="2456" y="430" on="1"/>
        <pt x="2456" y="369" on="0"/>
        <pt x="2411" y="256" on="1"/>
        <pt x="2388" y="279" on="0"/>
        <pt x="2380" y="321" on="1"/>
        <pt x="2375" y="357" on="0"/>
        <pt x="2370" y="393" on="1"/>
        <pt x="2353" y="489" on="0"/>
        <pt x="2285" y="566" on="1"/>
        <pt x="2285" y="568" on="0"/>
        <pt x="2278" y="577" on="1"/>
        <pt x="2272" y="583" on="0"/>
        <pt x="2272" y="599" on="1"/>
        <pt x="2272" y="616" on="0"/>
        <pt x="2311" y="677" on="0"/>
        <pt x="2328" y="686" on="1"/>
        <pt x="2385" y="650" on="0"/>
        <pt x="2423" y="564" on="1"/>
        <pt x="2456" y="490" on="0"/>
      </contour>
      <contour>
        <pt x="2968" y="-235" on="1"/>
        <pt x="2968" y="-266" on="0"/>
        <pt x="2924" y="-304" on="1"/>
        <pt x="2886" y="-338" on="0"/>
        <pt x="2876" y="-338" on="1"/>
        <pt x="2866" y="-338" on="0"/>
        <pt x="2792" y="-286" on="0"/>
        <pt x="2779" y="-286" on="1"/>
        <pt x="2766" y="-286" on="0"/>
        <pt x="2704" y="-338" on="0"/>
        <pt x="2691" y="-338" on="1"/>
        <pt x="2657" y="-338" on="0"/>
        <pt x="2568" y="-277" on="0"/>
        <pt x="2568" y="-256" on="1"/>
        <pt x="2568" y="-221" on="0"/>
        <pt x="2613" y="-185" on="1"/>
        <pt x="2651" y="-154" on="0"/>
        <pt x="2671" y="-154" on="1"/>
        <pt x="2682" y="-154" on="0"/>
        <pt x="2750" y="-194" on="0"/>
        <pt x="2763" y="-194" on="1"/>
        <pt x="2776" y="-194" on="0"/>
        <pt x="2853" y="-143" on="0"/>
        <pt x="2866" y="-143" on="1"/>
        <pt x="2899" y="-143" on="0"/>
        <pt x="2968" y="-208" on="0"/>
      </contour>
      <contour>
        <pt x="1453" y="1203" on="1"/>
        <pt x="1453" y="1182" on="0"/>
        <pt x="1418" y="1136" on="0"/>
        <pt x="1402" y="1136" on="1"/>
        <pt x="1389" y="1136" on="0"/>
        <pt x="1358" y="1157" on="0"/>
        <pt x="1345" y="1157" on="1"/>
        <pt x="1331" y="1157" on="0"/>
        <pt x="1281" y="1116" on="1"/>
        <pt x="1195" y="1049" on="0"/>
        <pt x="1195" y="1048" on="1"/>
        <pt x="1127" y="1010" on="0"/>
        <pt x="987" y="931" on="1"/>
        <pt x="931" y="946" on="1"/>
        <pt x="1033" y="1029" on="0"/>
        <pt x="1248" y="1215" on="1"/>
        <pt x="1249" y="1221" on="0"/>
        <pt x="1245" y="1231" on="1"/>
        <pt x="1186" y="1309" on="0"/>
        <pt x="1186" y="1331" on="1"/>
        <pt x="1186" y="1388" on="0"/>
        <pt x="1236" y="1457" on="1"/>
        <pt x="1295" y="1536" on="0"/>
        <pt x="1366" y="1536" on="1"/>
        <pt x="1399" y="1536" on="0"/>
        <pt x="1429" y="1482" on="1"/>
        <pt x="1453" y="1438" on="0"/>
        <pt x="1453" y="1418" on="1"/>
        <pt x="1453" y="1405" on="0"/>
        <pt x="1412" y="1298" on="0"/>
        <pt x="1412" y="1285" on="1"/>
        <pt x="1412" y="1273" on="0"/>
        <pt x="1453" y="1214" on="0"/>
      </contour>
      <contour>
        <pt x="1463" y="870" on="1"/>
        <pt x="1463" y="836" on="0"/>
        <pt x="1446" y="793" on="1"/>
        <pt x="1426" y="743" on="0"/>
        <pt x="1399" y="730" on="1"/>
        <pt x="1222" y="645" on="0"/>
        <pt x="1197" y="645" on="1"/>
        <pt x="1166" y="645" on="0"/>
        <pt x="1138" y="678" on="1"/>
        <pt x="1115" y="706" on="0"/>
        <pt x="1115" y="722" on="1"/>
        <pt x="1115" y="732" on="0"/>
        <pt x="1178" y="850" on="0"/>
        <pt x="1192" y="860" on="1"/>
        <pt x="1200" y="854" on="0"/>
        <pt x="1213" y="836" on="1"/>
        <pt x="1215" y="831" on="0"/>
        <pt x="1211" y="815" on="1"/>
        <pt x="1207" y="796" on="0"/>
        <pt x="1207" y="793" on="1"/>
        <pt x="1207" y="784" on="1"/>
        <pt x="1214" y="781" on="0"/>
        <pt x="1232" y="768" on="1"/>
        <pt x="1254" y="790" on="0"/>
        <pt x="1278" y="836" on="1"/>
        <pt x="1306" y="888" on="0"/>
        <pt x="1324" y="911" on="1"/>
        <pt x="1335" y="886" on="0"/>
        <pt x="1366" y="829" on="1"/>
        <pt x="1381" y="865" on="0"/>
        <pt x="1416" y="931" on="1"/>
        <pt x="1463" y="909" on="0"/>
      </contour>
      <contour>
        <pt x="1042" y="1325" on="1"/>
        <pt x="1043" y="1292" on="0"/>
        <pt x="864" y="1199" on="1"/>
        <pt x="655" y="1092" on="0"/>
        <pt x="600" y="1035" on="1"/>
        <pt x="543" y="1035" on="1"/>
        <pt x="543" y="1039" on="0"/>
        <pt x="531" y="1055" on="0"/>
        <pt x="531" y="1070" on="1"/>
        <pt x="531" y="1141" on="0"/>
        <pt x="1018" y="1382" on="1"/>
        <pt x="1032" y="1371" on="0"/>
        <pt x="1042" y="1371" on="1"/>
      </contour>
      <contour>
        <pt x="1535" y="220" on="1"/>
        <pt x="1535" y="188" on="0"/>
        <pt x="1491" y="113" on="1"/>
        <pt x="1456" y="113" on="1"/>
        <pt x="1452" y="116" on="0"/>
        <pt x="1397" y="160" on="1"/>
        <pt x="1380" y="174" on="0"/>
        <pt x="1345" y="174" on="1"/>
        <pt x="1300" y="174" on="0"/>
        <pt x="1203" y="140" on="1"/>
        <pt x="1098" y="103" on="0"/>
        <pt x="1073" y="70" on="1"/>
        <pt x="1026" y="7" on="0"/>
        <pt x="1002" y="-56" on="0"/>
        <pt x="1002" y="-127" on="1"/>
        <pt x="1002" y="-140" on="0"/>
        <pt x="1043" y="-309" on="0"/>
        <pt x="1043" y="-322" on="1"/>
        <pt x="1043" y="-376" on="0"/>
        <pt x="948" y="-521" on="1"/>
        <pt x="913" y="-521" on="1"/>
        <pt x="861" y="-468" on="0"/>
        <pt x="819" y="-329" on="1"/>
        <pt x="779" y="-196" on="0"/>
        <pt x="779" y="-95" on="1"/>
        <pt x="779" y="-52" on="0"/>
        <pt x="788" y="-27" on="1"/>
        <pt x="766" y="-22" on="0"/>
        <pt x="707" y="-31" on="1"/>
        <pt x="637" y="-40" on="0"/>
        <pt x="634" y="-40" on="1"/>
        <pt x="563" y="-40" on="0"/>
        <pt x="504" y="-10" on="1"/>
        <pt x="425" y="29" on="0"/>
        <pt x="412" y="106" on="1"/>
        <pt x="375" y="296" on="0"/>
        <pt x="333" y="653" on="1"/>
        <pt x="296" y="962" on="0"/>
        <pt x="296" y="998" on="1"/>
        <pt x="296" y="1037" on="0"/>
        <pt x="362" y="1126" on="1"/>
        <pt x="411" y="1098" on="0"/>
        <pt x="424" y="1008" on="1"/>
        <pt x="430" y="936" on="0"/>
        <pt x="435" y="866" on="1"/>
        <pt x="439" y="836" on="0"/>
        <pt x="454" y="510" on="1"/>
        <pt x="463" y="309" on="0"/>
        <pt x="513" y="212" on="1"/>
        <pt x="559" y="123" on="0"/>
        <pt x="690" y="123" on="1"/>
        <pt x="754" y="123" on="0"/>
        <pt x="762" y="125" on="1"/>
        <pt x="810" y="136" on="0"/>
        <pt x="846" y="192" on="1"/>
        <pt x="869" y="231" on="0"/>
        <pt x="892" y="271" on="1"/>
        <pt x="919" y="316" on="0"/>
        <pt x="946" y="328" on="1"/>
        <pt x="982" y="312" on="0"/>
        <pt x="982" y="276" on="1"/>
        <pt x="982" y="239" on="0"/>
        <pt x="902" y="95" on="1"/>
        <pt x="879" y="54" on="0"/>
        <pt x="879" y="-10" on="1"/>
        <pt x="879" y="-49" on="0"/>
        <pt x="901" y="-92" on="1"/>
        <pt x="909" y="-87" on="0"/>
        <pt x="905" y="-77" on="1"/>
        <pt x="900" y="-61" on="0"/>
        <pt x="900" y="-51" on="1"/>
        <pt x="900" y="-38" on="0"/>
        <pt x="919" y="-6" on="1"/>
        <pt x="942" y="34" on="0"/>
        <pt x="947" y="48" on="1"/>
        <pt x="996" y="181" on="0"/>
        <pt x="1056" y="211" on="1"/>
        <pt x="1319" y="338" on="0"/>
        <pt x="1422" y="338" on="1"/>
        <pt x="1456" y="338" on="0"/>
        <pt x="1535" y="251" on="0"/>
      </contour>
      <contour>
        <pt x="1596" y="-250" on="1"/>
        <pt x="1596" y="-287" on="0"/>
        <pt x="1562" y="-319" on="1"/>
        <pt x="1531" y="-348" on="0"/>
        <pt x="1504" y="-348" on="1"/>
        <pt x="1491" y="-348" on="0"/>
        <pt x="1414" y="-307" on="0"/>
        <pt x="1402" y="-307" on="1"/>
        <pt x="1389" y="-307" on="0"/>
        <pt x="1296" y="-379" on="0"/>
        <pt x="1284" y="-379" on="1"/>
        <pt x="1274" y="-379" on="0"/>
        <pt x="1177" y="-313" on="1"/>
        <pt x="1211" y="-204" on="0"/>
        <pt x="1279" y="-204" on="1"/>
        <pt x="1291" y="-204" on="0"/>
        <pt x="1363" y="-245" on="0"/>
        <pt x="1376" y="-245" on="1"/>
        <pt x="1386" y="-245" on="0"/>
        <pt x="1477" y="-154" on="0"/>
        <pt x="1494" y="-154" on="1"/>
        <pt x="1528" y="-154" on="0"/>
        <pt x="1565" y="-197" on="1"/>
        <pt x="1596" y="-234" on="0"/>
      </contour>
      <contour>
        <pt x="1349" y="1332" on="1"/>
        <pt x="1349" y="1379" on="1"/>
        <pt x="1318" y="1412" on="0"/>
        <pt x="1313" y="1412" on="1"/>
        <pt x="1290" y="1389" on="0"/>
        <pt x="1290" y="1365" on="1"/>
        <pt x="1322" y="1332" on="0"/>
      </contour>
    </TTGlyph>
    <TTGlyph name="uniFB52" xMin="233" yMin="-311" xMax="3202" yMax="1695">
      <contour>
        <pt x="3202" y="1409" on="1"/>
        <pt x="3202" y="1339" on="0"/>
        <pt x="3108" y="1268" on="1"/>
        <pt x="3024" y="1204" on="0"/>
        <pt x="2972" y="1204" on="1"/>
        <pt x="2960" y="1204" on="0"/>
        <pt x="2912" y="1214" on="0"/>
        <pt x="2900" y="1214" on="1"/>
        <pt x="2886" y="1214" on="0"/>
        <pt x="2850" y="1193" on="1"/>
        <pt x="2808" y="1167" on="0"/>
        <pt x="2795" y="1163" on="1"/>
        <pt x="2782" y="1165" on="0"/>
        <pt x="2782" y="1189" on="1"/>
        <pt x="2782" y="1199" on="0"/>
        <pt x="2854" y="1312" on="0"/>
        <pt x="2866" y="1322" on="1"/>
        <pt x="2894" y="1330" on="0"/>
        <pt x="2938" y="1349" on="1"/>
        <pt x="2963" y="1365" on="0"/>
        <pt x="2994" y="1414" on="1"/>
        <pt x="3028" y="1467" on="0"/>
        <pt x="3050" y="1485" on="1"/>
        <pt x="3081" y="1511" on="0"/>
        <pt x="3126" y="1511" on="1"/>
        <pt x="3162" y="1511" on="0"/>
        <pt x="3185" y="1461" on="1"/>
        <pt x="3202" y="1426" on="0"/>
      </contour>
      <contour>
        <pt x="2393" y="1665" on="1"/>
        <pt x="2393" y="1620" on="0"/>
        <pt x="2310" y="1567" on="1"/>
        <pt x="2300" y="1561" on="0"/>
        <pt x="2196" y="1508" on="1"/>
        <pt x="2096" y="1453" on="0"/>
        <pt x="1884" y="1348" on="1"/>
        <pt x="1884" y="1351" on="0"/>
        <pt x="1871" y="1368" on="0"/>
        <pt x="1871" y="1383" on="1"/>
        <pt x="1871" y="1437" on="0"/>
        <pt x="1917" y="1466" on="1"/>
        <pt x="2041" y="1543" on="0"/>
        <pt x="2346" y="1695" on="1"/>
        <pt x="2380" y="1695" on="1"/>
        <pt x="2393" y="1682" on="0"/>
      </contour>
      <contour>
        <pt x="3120" y="237" on="1"/>
        <pt x="3120" y="91" on="0"/>
        <pt x="3076" y="16" on="1"/>
        <pt x="3034" y="29" on="0"/>
        <pt x="3031" y="61" on="1"/>
        <pt x="3030" y="118" on="0"/>
        <pt x="3024" y="225" on="1"/>
        <pt x="3011" y="274" on="0"/>
        <pt x="2990" y="369" on="1"/>
        <pt x="2915" y="834" on="0"/>
        <pt x="2915" y="973" on="1"/>
        <pt x="2915" y="1026" on="0"/>
        <pt x="2969" y="1111" on="1"/>
        <pt x="2982" y="1111" on="0"/>
        <pt x="3004" y="1078" on="1"/>
        <pt x="3035" y="940" on="0"/>
        <pt x="3080" y="591" on="1"/>
        <pt x="3120" y="279" on="0"/>
      </contour>
      <contour>
        <pt x="2311" y="1239" on="1"/>
        <pt x="2311" y="1112" on="0"/>
        <pt x="2143" y="1067" on="1"/>
        <pt x="2133" y="1064" on="0"/>
        <pt x="2087" y="1045" on="1"/>
        <pt x="2049" y="1030" on="0"/>
        <pt x="2035" y="1030" on="1"/>
        <pt x="1943" y="1030" on="0"/>
        <pt x="1943" y="1122" on="1"/>
        <pt x="1943" y="1166" on="0"/>
        <pt x="2020" y="1224" on="1"/>
        <pt x="2047" y="1172" on="0"/>
        <pt x="2044" y="1150" on="1"/>
        <pt x="2037" y="1143" on="0"/>
        <pt x="2061" y="1143" on="1"/>
        <pt x="2098" y="1143" on="0"/>
        <pt x="2114" y="1185" on="1"/>
        <pt x="2137" y="1248" on="0"/>
        <pt x="2152" y="1266" on="1"/>
        <pt x="2184" y="1246" on="0"/>
        <pt x="2205" y="1194" on="1"/>
        <pt x="2210" y="1198" on="0"/>
        <pt x="2275" y="1296" on="1"/>
        <pt x="2311" y="1260" on="0"/>
      </contour>
      <contour>
        <pt x="2332" y="543" on="1"/>
        <pt x="2332" y="513" on="0"/>
        <pt x="2269" y="446" on="0"/>
        <pt x="2245" y="446" on="1"/>
        <pt x="2205" y="446" on="0"/>
        <pt x="2169" y="482" on="1"/>
        <pt x="2138" y="512" on="0"/>
        <pt x="2138" y="533" on="1"/>
        <pt x="2138" y="560" on="0"/>
        <pt x="2190" y="641" on="0"/>
        <pt x="2214" y="641" on="1"/>
        <pt x="2245" y="641" on="0"/>
        <pt x="2287" y="609" on="1"/>
        <pt x="2332" y="576" on="0"/>
      </contour>
      <contour>
        <pt x="2710" y="247" on="1"/>
        <pt x="2667" y="74" on="0"/>
        <pt x="2664" y="66" on="1"/>
        <pt x="2629" y="-4" on="0"/>
        <pt x="2532" y="-4" on="1"/>
        <pt x="2467" y="-4" on="0"/>
        <pt x="2360" y="67" on="0"/>
        <pt x="2347" y="67" on="1"/>
        <pt x="2338" y="67" on="0"/>
        <pt x="2299" y="39" on="1"/>
        <pt x="2256" y="7" on="0"/>
        <pt x="2226" y="-1" on="1"/>
        <pt x="2106" y="-35" on="0"/>
        <pt x="2009" y="-35" on="1"/>
        <pt x="1839" y="-35" on="0"/>
        <pt x="1792" y="91" on="1"/>
        <pt x="1763" y="170" on="0"/>
        <pt x="1749" y="339" on="1"/>
        <pt x="1742" y="456" on="0"/>
        <pt x="1735" y="573" on="1"/>
        <pt x="1727" y="649" on="0"/>
        <pt x="1701" y="822" on="1"/>
        <pt x="1676" y="980" on="0"/>
        <pt x="1676" y="989" on="1"/>
        <pt x="1676" y="1040" on="0"/>
        <pt x="1730" y="1111" on="1"/>
        <pt x="1760" y="1111" on="0"/>
        <pt x="1775" y="1088" on="1"/>
        <pt x="1794" y="938" on="0"/>
        <pt x="1836" y="637" on="1"/>
        <pt x="1846" y="479" on="0"/>
        <pt x="1855" y="323" on="1"/>
        <pt x="1885" y="119" on="0"/>
        <pt x="2030" y="119" on="1"/>
        <pt x="2128" y="119" on="0"/>
        <pt x="2192" y="142" on="1"/>
        <pt x="2247" y="161" on="0"/>
        <pt x="2309" y="205" on="1"/>
        <pt x="2361" y="242" on="0"/>
        <pt x="2373" y="242" on="1"/>
        <pt x="2386" y="242" on="0"/>
        <pt x="2544" y="160" on="0"/>
        <pt x="2557" y="160" on="1"/>
        <pt x="2609" y="160" on="0"/>
        <pt x="2609" y="201" on="1"/>
        <pt x="2609" y="230" on="0"/>
        <pt x="2512" y="860" on="1"/>
        <pt x="2510" y="877" on="0"/>
        <pt x="2492" y="923" on="1"/>
        <pt x="2475" y="964" on="0"/>
        <pt x="2475" y="984" on="1"/>
        <pt x="2475" y="1082" on="0"/>
        <pt x="2551" y="1162" on="1"/>
        <pt x="2558" y="1162" on="0"/>
        <pt x="2576" y="1158" on="1"/>
        <pt x="2600" y="1094" on="0"/>
        <pt x="2600" y="1047" on="1"/>
        <pt x="2627" y="1026" on="0"/>
        <pt x="2669" y="986" on="1"/>
        <pt x="2659" y="929" on="0"/>
        <pt x="2619" y="830" on="1"/>
      </contour>
      <contour>
        <pt x="1277" y="1004" on="1"/>
        <pt x="1277" y="995" on="0"/>
        <pt x="1244" y="928" on="1"/>
        <pt x="1198" y="928" on="1"/>
        <pt x="1167" y="968" on="0"/>
        <pt x="1139" y="968" on="1"/>
        <pt x="1129" y="968" on="0"/>
        <pt x="1059" y="887" on="1"/>
        <pt x="978" y="795" on="0"/>
        <pt x="938" y="767" on="1"/>
        <pt x="859" y="714" on="0"/>
        <pt x="690" y="631" on="1"/>
        <pt x="645" y="631" on="1"/>
        <pt x="632" y="632" on="0"/>
        <pt x="632" y="656" on="1"/>
        <pt x="632" y="684" on="0"/>
        <pt x="798" y="800" on="1"/>
        <pt x="994" y="936" on="0"/>
        <pt x="1052" y="1004" on="1"/>
        <pt x="1046" y="1013" on="0"/>
        <pt x="996" y="1067" on="1"/>
        <pt x="960" y="1108" on="0"/>
        <pt x="960" y="1127" on="1"/>
        <pt x="960" y="1164" on="0"/>
        <pt x="1015" y="1244" on="1"/>
        <pt x="1080" y="1339" on="0"/>
        <pt x="1144" y="1339" on="1"/>
        <pt x="1153" y="1339" on="0"/>
        <pt x="1162" y="1336" on="1"/>
        <pt x="1206" y="1298" on="0"/>
        <pt x="1206" y="1223" on="1"/>
        <pt x="1206" y="1202" on="0"/>
        <pt x="1197" y="1118" on="0"/>
        <pt x="1197" y="1099" on="1"/>
        <pt x="1277" y="1009" on="0"/>
      </contour>
      <contour>
        <pt x="1523" y="319" on="1"/>
        <pt x="1523" y="244" on="0"/>
        <pt x="1482" y="183" on="1"/>
        <pt x="1439" y="119" on="0"/>
        <pt x="1380" y="119" on="1"/>
        <pt x="1368" y="119" on="0"/>
        <pt x="1245" y="170" on="0"/>
        <pt x="1232" y="170" on="1"/>
        <pt x="1229" y="170" on="0"/>
        <pt x="1162" y="137" on="1"/>
        <pt x="1092" y="102" on="0"/>
        <pt x="1030" y="99" on="1"/>
        <pt x="1012" y="-20" on="0"/>
        <pt x="987" y="-103" on="1"/>
        <pt x="957" y="-199" on="0"/>
        <pt x="792" y="-262" on="1"/>
        <pt x="664" y="-311" on="0"/>
        <pt x="571" y="-311" on="1"/>
        <pt x="447" y="-311" on="0"/>
        <pt x="349" y="-244" on="1"/>
        <pt x="233" y="-167" on="0"/>
        <pt x="233" y="-40" on="1"/>
        <pt x="233" y="14" on="0"/>
        <pt x="263" y="99" on="1"/>
        <pt x="299" y="200" on="0"/>
        <pt x="349" y="241" on="1"/>
        <pt x="384" y="241" on="1"/>
        <pt x="397" y="228" on="0"/>
        <pt x="397" y="211" on="1"/>
        <pt x="397" y="201" on="0"/>
        <pt x="335" y="40" on="0"/>
        <pt x="335" y="26" on="1"/>
        <pt x="335" y="-49" on="0"/>
        <pt x="435" y="-108" on="1"/>
        <pt x="518" y="-158" on="0"/>
        <pt x="577" y="-158" on="1"/>
        <pt x="626" y="-158" on="1"/>
        <pt x="661" y="-158" on="0"/>
        <pt x="774" y="-113" on="1"/>
        <pt x="896" y="-66" on="0"/>
        <pt x="909" y="-37" on="1"/>
        <pt x="919" y="-17" on="0"/>
        <pt x="919" y="16" on="1"/>
        <pt x="919" y="98" on="0"/>
        <pt x="827" y="273" on="0"/>
        <pt x="827" y="292" on="1"/>
        <pt x="827" y="304" on="0"/>
        <pt x="862" y="396" on="0"/>
        <pt x="872" y="406" on="1"/>
        <pt x="892" y="396" on="0"/>
        <pt x="926" y="349" on="1"/>
        <pt x="962" y="300" on="0"/>
        <pt x="988" y="284" on="1"/>
        <pt x="1025" y="262" on="0"/>
        <pt x="1098" y="262" on="1"/>
        <pt x="1191" y="262" on="0"/>
        <pt x="1214" y="343" on="1"/>
        <pt x="1241" y="442" on="0"/>
        <pt x="1273" y="456" on="1"/>
        <pt x="1301" y="433" on="0"/>
        <pt x="1301" y="379" on="1"/>
        <pt x="1301" y="374" on="0"/>
        <pt x="1301" y="352" on="0"/>
        <pt x="1301" y="347" on="1"/>
        <pt x="1301" y="283" on="0"/>
        <pt x="1366" y="283" on="1"/>
        <pt x="1404" y="283" on="1"/>
        <pt x="1422" y="301" on="0"/>
        <pt x="1418" y="316" on="1"/>
        <pt x="1403" y="338" on="0"/>
        <pt x="1403" y="376" on="1"/>
        <pt x="1403" y="477" on="0"/>
        <pt x="1457" y="518" on="1"/>
        <pt x="1479" y="500" on="0"/>
        <pt x="1502" y="421" on="1"/>
        <pt x="1523" y="351" on="0"/>
      </contour>
      <contour>
        <pt x="3088" y="1339" on="1"/>
        <pt x="3088" y="1377" on="1"/>
        <pt x="3041" y="1377" on="1"/>
        <pt x="3019" y="1356" on="0"/>
        <pt x="3019" y="1328" on="1"/>
        <pt x="3030" y="1328" on="0"/>
        <pt x="3077" y="1339" on="0"/>
      </contour>
      <contour>
        <pt x="1122" y="1144" on="1"/>
        <pt x="1122" y="1155" on="0"/>
        <pt x="1112" y="1198" on="0"/>
        <pt x="1112" y="1203" on="1"/>
        <pt x="1097" y="1203" on="0"/>
        <pt x="1063" y="1175" on="0"/>
        <pt x="1063" y="1167" on="1"/>
        <pt x="1086" y="1144" on="1"/>
      </contour>
    </TTGlyph>
    <TTGlyph name="uniFB53" xMin="288" yMin="-417" xMax="2602" yMax="1680">
      <contour>
        <pt x="2602" y="1333" on="1"/>
        <pt x="2602" y="1243" on="0"/>
        <pt x="2511" y="1185" on="1"/>
        <pt x="2439" y="1139" on="0"/>
        <pt x="2372" y="1139" on="1"/>
        <pt x="2361" y="1139" on="0"/>
        <pt x="2317" y="1149" on="0"/>
        <pt x="2306" y="1149" on="1"/>
        <pt x="2293" y="1149" on="0"/>
        <pt x="2257" y="1117" on="1"/>
        <pt x="2216" y="1083" on="0"/>
        <pt x="2196" y="1077" on="1"/>
        <pt x="2183" y="1079" on="0"/>
        <pt x="2183" y="1103" on="1"/>
        <pt x="2183" y="1142" on="0"/>
        <pt x="2227" y="1217" on="1"/>
        <pt x="2238" y="1237" on="0"/>
        <pt x="2277" y="1257" on="1"/>
        <pt x="2327" y="1283" on="0"/>
        <pt x="2328" y="1283" on="1"/>
        <pt x="2355" y="1303" on="0"/>
        <pt x="2391" y="1356" on="1"/>
        <pt x="2424" y="1404" on="0"/>
        <pt x="2452" y="1420" on="1"/>
        <pt x="2477" y="1435" on="0"/>
        <pt x="2510" y="1435" on="1"/>
        <pt x="2544" y="1435" on="0"/>
        <pt x="2575" y="1392" on="1"/>
        <pt x="2602" y="1355" on="0"/>
      </contour>
      <contour>
        <pt x="2121" y="1645" on="1"/>
        <pt x="2121" y="1592" on="0"/>
        <pt x="1934" y="1503" on="1"/>
        <pt x="1826" y="1444" on="0"/>
        <pt x="1604" y="1323" on="1"/>
        <pt x="1577" y="1325" on="0"/>
        <pt x="1537" y="1337" on="1"/>
        <pt x="1541" y="1370" on="0"/>
        <pt x="1570" y="1424" on="1"/>
        <pt x="1578" y="1431" on="0"/>
        <pt x="1735" y="1509" on="1"/>
        <pt x="1821" y="1553" on="0"/>
        <pt x="1907" y="1598" on="1"/>
        <pt x="2022" y="1656" on="0"/>
        <pt x="2109" y="1680" on="1"/>
        <pt x="2109" y="1677" on="0"/>
        <pt x="2121" y="1660" on="0"/>
      </contour>
      <contour>
        <pt x="2039" y="1287" on="1"/>
        <pt x="2039" y="1187" on="0"/>
        <pt x="1955" y="1131" on="1"/>
        <pt x="1927" y="1128" on="0"/>
        <pt x="1883" y="1115" on="1"/>
        <pt x="1788" y="1057" on="0"/>
        <pt x="1773" y="1057" on="1"/>
        <pt x="1726" y="1057" on="0"/>
        <pt x="1681" y="1099" on="1"/>
        <pt x="1677" y="1227" on="0"/>
        <pt x="1758" y="1282" on="1"/>
        <pt x="1775" y="1269" on="1"/>
        <pt x="1776" y="1266" on="0"/>
        <pt x="1772" y="1197" on="1"/>
        <pt x="1790" y="1180" on="0"/>
        <pt x="1799" y="1180" on="1"/>
        <pt x="1821" y="1180" on="0"/>
        <pt x="1849" y="1235" on="1"/>
        <pt x="1885" y="1307" on="0"/>
        <pt x="1890" y="1312" on="1"/>
        <pt x="1917" y="1298" on="0"/>
        <pt x="1920" y="1281" on="1"/>
        <pt x="1926" y="1253" on="0"/>
        <pt x="1934" y="1240" on="1"/>
        <pt x="1970" y="1252" on="0"/>
        <pt x="1973" y="1290" on="1"/>
        <pt x="1977" y="1335" on="0"/>
        <pt x="2004" y="1353" on="1"/>
        <pt x="2039" y="1314" on="0"/>
      </contour>
      <contour>
        <pt x="2500" y="191" on="1"/>
        <pt x="2489" y="123" on="0"/>
        <pt x="2458" y="-16" on="1"/>
        <pt x="2451" y="-18" on="0"/>
        <pt x="2433" y="-28" on="1"/>
        <pt x="2420" y="-22" on="0"/>
        <pt x="2401" y="-4" on="1"/>
        <pt x="2399" y="96" on="0"/>
        <pt x="2373" y="293" on="1"/>
        <pt x="2359" y="401" on="0"/>
        <pt x="2315" y="659" on="1"/>
        <pt x="2275" y="888" on="0"/>
        <pt x="2275" y="898" on="1"/>
        <pt x="2275" y="918" on="0"/>
        <pt x="2329" y="1025" on="1"/>
        <pt x="2334" y="1025" on="0"/>
        <pt x="2370" y="1014" on="0"/>
        <pt x="2375" y="1014" on="1"/>
      </contour>
      <contour>
        <pt x="2121" y="791" on="1"/>
        <pt x="2121" y="759" on="0"/>
        <pt x="2085" y="721" on="1"/>
        <pt x="2052" y="688" on="0"/>
        <pt x="2039" y="688" on="1"/>
        <pt x="2026" y="688" on="0"/>
        <pt x="1965" y="729" on="0"/>
        <pt x="1952" y="729" on="1"/>
        <pt x="1940" y="729" on="0"/>
        <pt x="1853" y="657" on="0"/>
        <pt x="1840" y="657" on="1"/>
        <pt x="1826" y="657" on="0"/>
        <pt x="1743" y="709" on="1"/>
        <pt x="1742" y="715" on="0"/>
        <pt x="1742" y="722" on="1"/>
        <pt x="1742" y="761" on="0"/>
        <pt x="1816" y="841" on="0"/>
        <pt x="1849" y="841" on="1"/>
        <pt x="1860" y="841" on="0"/>
        <pt x="1908" y="811" on="0"/>
        <pt x="1921" y="811" on="1"/>
        <pt x="1933" y="811" on="0"/>
        <pt x="2003" y="882" on="0"/>
        <pt x="2013" y="882" on="1"/>
        <pt x="2048" y="882" on="0"/>
        <pt x="2086" y="845" on="1"/>
        <pt x="2121" y="812" on="0"/>
      </contour>
      <contour>
        <pt x="1302" y="1323" on="1"/>
        <pt x="1302" y="1284" on="0"/>
        <pt x="1267" y="1251" on="1"/>
        <pt x="1255" y="1255" on="0"/>
        <pt x="1221" y="1275" on="1"/>
        <pt x="1193" y="1292" on="0"/>
        <pt x="1179" y="1292" on="1"/>
        <pt x="1188" y="1292" on="0"/>
        <pt x="830" y="985" on="0"/>
        <pt x="770" y="985" on="1"/>
        <pt x="743" y="985" on="0"/>
        <pt x="718" y="1009" on="1"/>
        <pt x="732" y="1041" on="0"/>
        <pt x="771" y="1072" on="1"/>
        <pt x="848" y="1127" on="0"/>
        <pt x="925" y="1182" on="1"/>
        <pt x="1066" y="1290" on="0"/>
        <pt x="1066" y="1323" on="1"/>
        <pt x="1066" y="1332" on="0"/>
        <pt x="995" y="1417" on="0"/>
        <pt x="995" y="1440" on="1"/>
        <pt x="995" y="1485" on="0"/>
        <pt x="1127" y="1650" on="0"/>
        <pt x="1174" y="1650" on="1"/>
        <pt x="1246" y="1650" on="0"/>
        <pt x="1246" y="1534" on="1"/>
        <pt x="1246" y="1476" on="0"/>
        <pt x="1233" y="1422" on="1"/>
        <pt x="1302" y="1343" on="0"/>
      </contour>
      <contour>
        <pt x="1466" y="872" on="1"/>
        <pt x="1466" y="846" on="0"/>
        <pt x="1400" y="759" on="0"/>
        <pt x="1384" y="759" on="1"/>
        <pt x="1373" y="759" on="0"/>
        <pt x="1300" y="811" on="0"/>
        <pt x="1287" y="811" on="1"/>
        <pt x="1273" y="811" on="0"/>
        <pt x="1202" y="739" on="0"/>
        <pt x="1189" y="739" on="1"/>
        <pt x="1152" y="739" on="0"/>
        <pt x="1119" y="769" on="1"/>
        <pt x="1087" y="797" on="0"/>
        <pt x="1087" y="821" on="1"/>
        <pt x="1087" y="855" on="0"/>
        <pt x="1152" y="923" on="0"/>
        <pt x="1179" y="923" on="1"/>
        <pt x="1190" y="923" on="0"/>
        <pt x="1243" y="903" on="0"/>
        <pt x="1256" y="903" on="1"/>
        <pt x="1269" y="903" on="0"/>
        <pt x="1341" y="964" on="0"/>
        <pt x="1353" y="964" on="1"/>
        <pt x="1392" y="964" on="0"/>
        <pt x="1432" y="921" on="1"/>
        <pt x="1466" y="886" on="0"/>
      </contour>
      <contour>
        <pt x="534" y="1338" on="1"/>
        <pt x="534" y="1286" on="0"/>
        <pt x="490" y="1219" on="1"/>
        <pt x="442" y="1149" on="0"/>
        <pt x="401" y="1149" on="1"/>
        <pt x="370" y="1149" on="1"/>
        <pt x="336" y="1149" on="0"/>
        <pt x="309" y="1193" on="1"/>
        <pt x="288" y="1228" on="0"/>
        <pt x="288" y="1251" on="1"/>
        <pt x="288" y="1297" on="0"/>
        <pt x="332" y="1371" on="1"/>
        <pt x="381" y="1456" on="0"/>
        <pt x="431" y="1456" on="1"/>
        <pt x="534" y="1456" on="0"/>
      </contour>
      <contour>
        <pt x="2142" y="232" on="1"/>
        <pt x="2142" y="185" on="0"/>
        <pt x="2121" y="126" on="1"/>
        <pt x="2099" y="62" on="0"/>
        <pt x="2068" y="36" on="1"/>
        <pt x="2051" y="22" on="0"/>
        <pt x="1973" y="8" on="1"/>
        <pt x="1821" y="-18" on="0"/>
        <pt x="1727" y="-18" on="1"/>
        <pt x="1614" y="-18" on="0"/>
        <pt x="1511" y="5" on="1"/>
        <pt x="1481" y="11" on="0"/>
        <pt x="1409" y="43" on="1"/>
        <pt x="1343" y="74" on="0"/>
        <pt x="1332" y="74" on="1"/>
        <pt x="1334" y="74" on="0"/>
        <pt x="1084" y="-1" on="1"/>
        <pt x="1075" y="-13" on="0"/>
        <pt x="1058" y="-36" on="1"/>
        <pt x="1047" y="-142" on="0"/>
        <pt x="761" y="-417" on="0"/>
        <pt x="657" y="-417" on="1"/>
        <pt x="537" y="-417" on="0"/>
        <pt x="322" y="-376" on="1"/>
        <pt x="294" y="-348" on="0"/>
        <pt x="312" y="-316" on="1"/>
        <pt x="421" y="-326" on="0"/>
        <pt x="447" y="-326" on="1"/>
        <pt x="580" y="-326" on="0"/>
        <pt x="711" y="-258" on="1"/>
        <pt x="866" y="-180" on="0"/>
        <pt x="954" y="-35" on="1"/>
        <pt x="923" y="-15" on="0"/>
        <pt x="852" y="-2" on="1"/>
        <pt x="784" y="10" on="0"/>
        <pt x="759" y="28" on="1"/>
        <pt x="718" y="57" on="0"/>
        <pt x="718" y="130" on="1"/>
        <pt x="718" y="122" on="0"/>
        <pt x="745" y="213" on="1"/>
        <pt x="798" y="391" on="0"/>
        <pt x="897" y="391" on="1"/>
        <pt x="949" y="391" on="0"/>
        <pt x="1011" y="293" on="1"/>
        <pt x="1047" y="229" on="0"/>
        <pt x="1085" y="165" on="1"/>
        <pt x="1111" y="156" on="0"/>
        <pt x="1160" y="169" on="1"/>
        <pt x="1217" y="183" on="0"/>
        <pt x="1237" y="213" on="1"/>
        <pt x="1228" y="301" on="0"/>
        <pt x="1276" y="430" on="1"/>
        <pt x="1337" y="596" on="0"/>
        <pt x="1446" y="596" on="1"/>
        <pt x="1589" y="596" on="0"/>
        <pt x="1589" y="365" on="1"/>
        <pt x="1589" y="288" on="0"/>
        <pt x="1527" y="190" on="1"/>
        <pt x="1527" y="181" on="0"/>
        <pt x="1545" y="168" on="1"/>
        <pt x="1729" y="135" on="0"/>
        <pt x="1767" y="135" on="1"/>
        <pt x="1828" y="135" on="0"/>
        <pt x="1982" y="168" on="1"/>
        <pt x="2013" y="175" on="0"/>
        <pt x="2039" y="202" on="1"/>
        <pt x="2029" y="233" on="0"/>
        <pt x="1985" y="310" on="1"/>
        <pt x="1947" y="378" on="0"/>
        <pt x="1947" y="391" on="1"/>
        <pt x="1947" y="412" on="0"/>
        <pt x="1973" y="463" on="1"/>
        <pt x="1996" y="509" on="0"/>
        <pt x="2003" y="514" on="1"/>
        <pt x="2053" y="492" on="0"/>
        <pt x="2100" y="387" on="1"/>
        <pt x="2142" y="291" on="0"/>
      </contour>
      <contour>
        <pt x="503" y="232" on="1"/>
        <pt x="494" y="181" on="0"/>
        <pt x="485" y="130" on="1"/>
        <pt x="470" y="69" on="0"/>
        <pt x="424" y="43" on="1"/>
        <pt x="299" y="932" on="1"/>
        <pt x="295" y="940" on="0"/>
        <pt x="295" y="949" on="1"/>
        <pt x="295" y="981" on="0"/>
        <pt x="349" y="1064" on="0"/>
        <pt x="378" y="1076" on="1"/>
      </contour>
      <contour>
        <pt x="2489" y="1299" on="1"/>
        <pt x="2431" y="1312" on="1"/>
        <pt x="2408" y="1266" on="0"/>
        <pt x="2422" y="1251" on="1"/>
        <pt x="2451" y="1265" on="0"/>
      </contour>
      <contour>
        <pt x="1159" y="1470" on="1"/>
        <pt x="1141" y="1506" on="0"/>
        <pt x="1119" y="1506" on="1"/>
        <pt x="1119" y="1457" on="1"/>
        <pt x="1146" y="1457" on="0"/>
      </contour>
      <contour>
        <pt x="1486" y="345" on="1"/>
        <pt x="1486" y="365" on="0"/>
        <pt x="1468" y="399" on="1"/>
        <pt x="1446" y="442" on="0"/>
        <pt x="1414" y="442" on="1"/>
        <pt x="1391" y="442" on="0"/>
        <pt x="1360" y="398" on="1"/>
        <pt x="1332" y="360" on="0"/>
        <pt x="1332" y="345" on="1"/>
        <pt x="1360" y="258" on="0"/>
        <pt x="1394" y="258" on="1"/>
        <pt x="1419" y="258" on="0"/>
        <pt x="1486" y="318" on="0"/>
      </contour>
      <contour>
        <pt x="431" y="1284" on="1"/>
        <pt x="431" y="1321" on="1"/>
        <pt x="393" y="1321" on="1"/>
        <pt x="381" y="1284" on="1"/>
      </contour>
      <contour>
        <pt x="931" y="136" on="1"/>
        <pt x="933" y="144" on="0"/>
        <pt x="933" y="152" on="1"/>
        <pt x="933" y="173" on="0"/>
        <pt x="914" y="193" on="1"/>
        <pt x="893" y="216" on="0"/>
        <pt x="891" y="226" on="1"/>
        <pt x="855" y="226" on="1"/>
        <pt x="832" y="205" on="0"/>
        <pt x="832" y="178" on="1"/>
        <pt x="846" y="174" on="0"/>
        <pt x="917" y="140" on="0"/>
      </contour>
    </TTGlyph>
    <TTGlyph name="uniFB54" xMin="185" yMin="-788" xMax="2714" yMax="1720">
      <contour>
        <pt x="2714" y="1126" on="1"/>
        <pt x="2714" y="1083" on="0"/>
        <pt x="2582" y="993" on="1"/>
        <pt x="2330" y="821" on="0"/>
        <pt x="2301" y="800" on="1"/>
        <pt x="2255" y="800" on="1"/>
        <pt x="2255" y="803" on="0"/>
        <pt x="2244" y="819" on="0"/>
        <pt x="2244" y="834" on="1"/>
        <pt x="2244" y="890" on="0"/>
        <pt x="2449" y="1025" on="1"/>
        <pt x="2558" y="1090" on="0"/>
        <pt x="2666" y="1157" on="1"/>
        <pt x="2702" y="1157" on="1"/>
        <pt x="2714" y="1143" on="0"/>
      </contour>
      <contour>
        <pt x="2100" y="1182" on="1"/>
        <pt x="2100" y="1130" on="0"/>
        <pt x="1941" y="1045" on="1"/>
        <pt x="1861" y="1008" on="0"/>
        <pt x="1780" y="969" on="1"/>
        <pt x="1703" y="920" on="0"/>
        <pt x="1543" y="819" on="1"/>
        <pt x="1509" y="819" on="1"/>
        <pt x="1496" y="832" on="0"/>
        <pt x="1496" y="860" on="1"/>
        <pt x="1496" y="918" on="0"/>
        <pt x="1529" y="937" on="1"/>
        <pt x="1699" y="1026" on="0"/>
        <pt x="2042" y="1218" on="1"/>
        <pt x="2087" y="1218" on="1"/>
        <pt x="2100" y="1204" on="0"/>
      </contour>
      <contour>
        <pt x="2059" y="824" on="1"/>
        <pt x="2059" y="659" on="0"/>
        <pt x="1860" y="610" on="1"/>
        <pt x="1850" y="608" on="0"/>
        <pt x="1815" y="589" on="1"/>
        <pt x="1785" y="573" on="0"/>
        <pt x="1767" y="573" on="1"/>
        <pt x="1733" y="573" on="0"/>
        <pt x="1680" y="619" on="0"/>
        <pt x="1680" y="645" on="1"/>
        <pt x="1680" y="698" on="0"/>
        <pt x="1755" y="798" on="1"/>
        <pt x="1786" y="788" on="0"/>
        <pt x="1788" y="763" on="1"/>
        <pt x="1787" y="768" on="0"/>
        <pt x="1782" y="713" on="1"/>
        <pt x="1789" y="706" on="0"/>
        <pt x="1803" y="706" on="1"/>
        <pt x="1833" y="706" on="0"/>
        <pt x="1850" y="755" on="1"/>
        <pt x="1873" y="821" on="0"/>
        <pt x="1877" y="824" on="1"/>
        <pt x="1883" y="827" on="0"/>
        <pt x="1901" y="840" on="1"/>
        <pt x="1909" y="828" on="0"/>
        <pt x="1919" y="787" on="1"/>
        <pt x="1927" y="758" on="0"/>
        <pt x="1941" y="758" on="1"/>
        <pt x="1957" y="758" on="0"/>
        <pt x="1973" y="785" on="1"/>
        <pt x="1976" y="807" on="0"/>
        <pt x="2022" y="901" on="1"/>
        <pt x="2059" y="864" on="0"/>
      </contour>
      <contour>
        <pt x="2714" y="117" on="1"/>
        <pt x="2714" y="67" on="0"/>
        <pt x="2686" y="-17" on="1"/>
        <pt x="2575" y="-348" on="0"/>
        <pt x="2233" y="-348" on="1"/>
        <pt x="2141" y="-348" on="0"/>
        <pt x="1999" y="-326" on="1"/>
        <pt x="1999" y="-313" on="0"/>
        <pt x="1977" y="-292" on="1"/>
        <pt x="2000" y="-262" on="0"/>
        <pt x="2081" y="-259" on="1"/>
        <pt x="2208" y="-255" on="0"/>
        <pt x="2217" y="-253" on="1"/>
        <pt x="2334" y="-231" on="0"/>
        <pt x="2440" y="-152" on="1"/>
        <pt x="2484" y="-118" on="0"/>
        <pt x="2549" y="-46" on="1"/>
        <pt x="2633" y="45" on="0"/>
        <pt x="2633" y="87" on="1"/>
        <pt x="2633" y="100" on="0"/>
        <pt x="2479" y="253" on="0"/>
        <pt x="2479" y="266" on="1"/>
        <pt x="2479" y="300" on="0"/>
        <pt x="2523" y="388" on="1"/>
        <pt x="2714" y="301" on="0"/>
      </contour>
      <contour>
        <pt x="1148" y="1387" on="1"/>
        <pt x="1148" y="1354" on="0"/>
        <pt x="1135" y="1331" on="1"/>
        <pt x="1132" y="1331" on="0"/>
        <pt x="1121" y="1321" on="0"/>
        <pt x="1107" y="1321" on="1"/>
        <pt x="1094" y="1321" on="0"/>
        <pt x="1012" y="1371" on="0"/>
        <pt x="999" y="1371" on="1"/>
        <pt x="998" y="1371" on="0"/>
        <pt x="876" y="1260" on="1"/>
        <pt x="744" y="1140" on="0"/>
        <pt x="609" y="1106" on="1"/>
        <pt x="595" y="1118" on="1"/>
        <pt x="595" y="1155" on="1"/>
        <pt x="673" y="1213" on="0"/>
        <pt x="750" y="1271" on="1"/>
        <pt x="853" y="1348" on="0"/>
        <pt x="881" y="1398" on="1"/>
        <pt x="878" y="1402" on="0"/>
        <pt x="839" y="1452" on="1"/>
        <pt x="810" y="1487" on="0"/>
        <pt x="810" y="1505" on="1"/>
        <pt x="810" y="1562" on="0"/>
        <pt x="857" y="1638" on="1"/>
        <pt x="908" y="1720" on="0"/>
        <pt x="963" y="1720" on="1"/>
        <pt x="1067" y="1720" on="0"/>
        <pt x="1058" y="1491" on="1"/>
        <pt x="1082" y="1478" on="0"/>
        <pt x="1122" y="1448" on="1"/>
        <pt x="1148" y="1422" on="0"/>
      </contour>
      <contour>
        <pt x="2151" y="246" on="1"/>
        <pt x="2151" y="79" on="0"/>
        <pt x="2067" y="34" on="1"/>
        <pt x="1965" y="-20" on="0"/>
        <pt x="1767" y="-20" on="1"/>
        <pt x="1696" y="-20" on="1"/>
        <pt x="1604" y="-20" on="0"/>
        <pt x="1523" y="43" on="1"/>
        <pt x="1477" y="79" on="0"/>
        <pt x="1284" y="303" on="0"/>
        <pt x="1215" y="358" on="1"/>
        <pt x="1202" y="342" on="0"/>
        <pt x="1202" y="316" on="1"/>
        <pt x="1202" y="299" on="0"/>
        <pt x="1216" y="238" on="0"/>
        <pt x="1216" y="231" on="1"/>
        <pt x="1212" y="133" on="0"/>
        <pt x="1136" y="55" on="1"/>
        <pt x="1112" y="29" on="0"/>
        <pt x="1040" y="12" on="1"/>
        <pt x="980" y="0" on="0"/>
        <pt x="921" y="-13" on="1"/>
        <pt x="905" y="-71" on="0"/>
        <pt x="889" y="-130" on="1"/>
        <pt x="858" y="-225" on="0"/>
        <pt x="810" y="-225" on="1"/>
        <pt x="745" y="-225" on="0"/>
        <pt x="702" y="-153" on="1"/>
        <pt x="665" y="-90" on="0"/>
        <pt x="665" y="-19" on="1"/>
        <pt x="665" y="16" on="0"/>
        <pt x="677" y="35" on="1"/>
        <pt x="657" y="61" on="0"/>
        <pt x="636" y="61" on="1"/>
        <pt x="578" y="61" on="0"/>
        <pt x="523" y="35" on="1"/>
        <pt x="451" y="3" on="0"/>
        <pt x="451" y="-51" on="1"/>
        <pt x="451" y="-63" on="0"/>
        <pt x="533" y="-607" on="0"/>
        <pt x="533" y="-619" on="1"/>
        <pt x="533" y="-706" on="0"/>
        <pt x="501" y="-776" on="1"/>
        <pt x="495" y="-777" on="0"/>
        <pt x="477" y="-788" on="1"/>
        <pt x="464" y="-771" on="0"/>
        <pt x="444" y="-744" on="1"/>
        <pt x="437" y="-663" on="0"/>
        <pt x="397" y="-376" on="1"/>
        <pt x="359" y="-107" on="0"/>
        <pt x="359" y="-97" on="1"/>
        <pt x="359" y="88" on="0"/>
        <pt x="495" y="179" on="1"/>
        <pt x="518" y="194" on="0"/>
        <pt x="568" y="202" on="1"/>
        <pt x="639" y="214" on="0"/>
        <pt x="649" y="217" on="1"/>
        <pt x="657" y="219" on="0"/>
        <pt x="682" y="238" on="1"/>
        <pt x="705" y="256" on="0"/>
        <pt x="717" y="256" on="1"/>
        <pt x="728" y="256" on="0"/>
        <pt x="770" y="221" on="1"/>
        <pt x="816" y="184" on="0"/>
        <pt x="837" y="176" on="1"/>
        <pt x="873" y="164" on="0"/>
        <pt x="958" y="164" on="1"/>
        <pt x="1117" y="164" on="0"/>
        <pt x="1117" y="235" on="1"/>
        <pt x="1117" y="266" on="0"/>
        <pt x="1039" y="423" on="1"/>
        <pt x="1003" y="492" on="0"/>
        <pt x="883" y="634" on="1"/>
        <pt x="799" y="732" on="0"/>
        <pt x="799" y="824" on="1"/>
        <pt x="799" y="958" on="0"/>
        <pt x="952" y="1073" on="1"/>
        <pt x="1062" y="1157" on="0"/>
        <pt x="1253" y="1229" on="1"/>
        <pt x="1361" y="1266" on="0"/>
        <pt x="1469" y="1303" on="1"/>
        <pt x="1592" y="1353" on="0"/>
        <pt x="1838" y="1453" on="1"/>
        <pt x="1875" y="1453" on="0"/>
        <pt x="1875" y="1412" on="1"/>
        <pt x="1875" y="1358" on="0"/>
        <pt x="1849" y="1332" on="1"/>
        <pt x="1811" y="1294" on="0"/>
        <pt x="1636" y="1221" on="1"/>
        <pt x="1440" y="1149" on="0"/>
        <pt x="1243" y="1076" on="1"/>
        <pt x="892" y="933" on="0"/>
        <pt x="892" y="860" on="1"/>
        <pt x="892" y="846" on="0"/>
        <pt x="1065" y="682" on="1"/>
        <pt x="1337" y="424" on="0"/>
        <pt x="1357" y="404" on="1"/>
        <pt x="1421" y="336" on="0"/>
        <pt x="1485" y="267" on="1"/>
        <pt x="1560" y="191" on="0"/>
        <pt x="1626" y="165" on="1"/>
        <pt x="1685" y="143" on="0"/>
        <pt x="1798" y="143" on="1"/>
        <pt x="1841" y="143" on="0"/>
        <pt x="2020" y="184" on="0"/>
        <pt x="2049" y="200" on="1"/>
        <pt x="2042" y="228" on="0"/>
        <pt x="1998" y="303" on="1"/>
        <pt x="1957" y="374" on="0"/>
        <pt x="1957" y="383" on="1"/>
        <pt x="1957" y="436" on="0"/>
        <pt x="2012" y="491" on="1"/>
        <pt x="2070" y="474" on="0"/>
        <pt x="2113" y="387" on="1"/>
        <pt x="2151" y="310" on="0"/>
      </contour>
      <contour>
        <pt x="1916" y="-281" on="1"/>
        <pt x="1916" y="-302" on="0"/>
        <pt x="1854" y="-389" on="0"/>
        <pt x="1834" y="-389" on="1"/>
        <pt x="1803" y="-389" on="0"/>
        <pt x="1711" y="-312" on="0"/>
        <pt x="1711" y="-291" on="1"/>
        <pt x="1711" y="-272" on="0"/>
        <pt x="1782" y="-184" on="0"/>
        <pt x="1798" y="-184" on="1"/>
        <pt x="1829" y="-184" on="0"/>
        <pt x="1916" y="-255" on="0"/>
      </contour>
      <contour>
        <pt x="687" y="752" on="1"/>
        <pt x="687" y="727" on="0"/>
        <pt x="675" y="697" on="1"/>
        <pt x="672" y="697" on="0"/>
        <pt x="661" y="686" on="0"/>
        <pt x="646" y="686" on="1"/>
        <pt x="633" y="686" on="0"/>
        <pt x="598" y="717" on="0"/>
        <pt x="585" y="717" on="1"/>
        <pt x="525" y="660" on="0"/>
        <pt x="468" y="615" on="1"/>
        <pt x="331" y="507" on="0"/>
        <pt x="233" y="471" on="1"/>
        <pt x="198" y="471" on="1"/>
        <pt x="185" y="484" on="0"/>
        <pt x="185" y="501" on="1"/>
        <pt x="185" y="528" on="0"/>
        <pt x="248" y="571" on="1"/>
        <pt x="284" y="593" on="0"/>
        <pt x="321" y="616" on="1"/>
        <pt x="381" y="659" on="0"/>
        <pt x="482" y="753" on="1"/>
        <pt x="478" y="760" on="0"/>
        <pt x="439" y="803" on="1"/>
        <pt x="410" y="836" on="0"/>
        <pt x="410" y="854" on="1"/>
        <pt x="410" y="895" on="0"/>
        <pt x="446" y="966" on="1"/>
        <pt x="492" y="1054" on="0"/>
        <pt x="549" y="1054" on="1"/>
        <pt x="622" y="1054" on="0"/>
        <pt x="632" y="966" on="1"/>
        <pt x="636" y="906" on="0"/>
        <pt x="638" y="846" on="1"/>
        <pt x="641" y="838" on="0"/>
        <pt x="667" y="800" on="1"/>
        <pt x="687" y="768" on="0"/>
      </contour>
      <contour>
        <pt x="984" y="1529" on="1"/>
        <pt x="962" y="1574" on="0"/>
        <pt x="938" y="1597" on="1"/>
        <pt x="912" y="1572" on="0"/>
        <pt x="912" y="1549" on="1"/>
        <pt x="947" y="1515" on="0"/>
        <pt x="958" y="1515" on="1"/>
        <pt x="982" y="1515" on="0"/>
      </contour>
      <contour>
        <pt x="568" y="867" on="1"/>
        <pt x="546" y="912" on="0"/>
        <pt x="523" y="935" on="1"/>
        <pt x="497" y="910" on="0"/>
        <pt x="497" y="887" on="1"/>
        <pt x="532" y="853" on="0"/>
        <pt x="543" y="853" on="1"/>
        <pt x="567" y="853" on="0"/>
      </contour>
    </TTGlyph>
    <TTGlyph name="uniFB55" xMin="202" yMin="-434" xMax="2762" yMax="1787">
      <contour>
        <pt x="2762" y="1378" on="1"/>
        <pt x="2762" y="1303" on="0"/>
        <pt x="2698" y="1238" on="1"/>
        <pt x="2644" y="1183" on="0"/>
        <pt x="2584" y="1166" on="1"/>
        <pt x="2541" y="1160" on="0"/>
        <pt x="2461" y="1149" on="1"/>
        <pt x="2435" y="1135" on="0"/>
        <pt x="2388" y="1112" on="1"/>
        <pt x="2379" y="1117" on="0"/>
        <pt x="2363" y="1127" on="0"/>
        <pt x="2363" y="1143" on="1"/>
        <pt x="2363" y="1194" on="0"/>
        <pt x="2434" y="1239" on="1"/>
        <pt x="2475" y="1262" on="0"/>
        <pt x="2518" y="1287" on="1"/>
        <pt x="2551" y="1339" on="0"/>
        <pt x="2585" y="1392" on="1"/>
        <pt x="2638" y="1470" on="0"/>
        <pt x="2680" y="1470" on="1"/>
        <pt x="2720" y="1470" on="0"/>
        <pt x="2743" y="1437" on="1"/>
        <pt x="2762" y="1410" on="0"/>
      </contour>
      <contour>
        <pt x="2311" y="1756" on="1"/>
        <pt x="2311" y="1710" on="0"/>
        <pt x="2275" y="1688" on="1"/>
        <pt x="2112" y="1600" on="0"/>
        <pt x="1785" y="1419" on="1"/>
        <pt x="1770" y="1430" on="0"/>
        <pt x="1759" y="1430" on="1"/>
        <pt x="1759" y="1484" on="1"/>
        <pt x="1758" y="1522" on="0"/>
        <pt x="1822" y="1558" on="1"/>
        <pt x="2241" y="1787" on="0"/>
        <pt x="2246" y="1787" on="1"/>
        <pt x="2289" y="1787" on="1"/>
        <pt x="2296" y="1783" on="0"/>
        <pt x="2311" y="1772" on="0"/>
      </contour>
      <contour>
        <pt x="2230" y="1373" on="1"/>
        <pt x="2230" y="1245" on="0"/>
        <pt x="2062" y="1200" on="1"/>
        <pt x="2050" y="1197" on="0"/>
        <pt x="2010" y="1173" on="1"/>
        <pt x="1976" y="1153" on="0"/>
        <pt x="1958" y="1153" on="1"/>
        <pt x="1930" y="1153" on="0"/>
        <pt x="1892" y="1205" on="0"/>
        <pt x="1892" y="1235" on="1"/>
        <pt x="1892" y="1275" on="0"/>
        <pt x="1922" y="1316" on="1"/>
        <pt x="1949" y="1353" on="0"/>
        <pt x="1980" y="1367" on="1"/>
        <pt x="1985" y="1341" on="0"/>
        <pt x="2000" y="1285" on="1"/>
        <pt x="2024" y="1331" on="0"/>
        <pt x="2068" y="1408" on="1"/>
        <pt x="2104" y="1408" on="1"/>
        <pt x="2108" y="1388" on="0"/>
        <pt x="2123" y="1347" on="1"/>
        <pt x="2139" y="1362" on="0"/>
        <pt x="2182" y="1449" on="1"/>
        <pt x="2230" y="1432" on="0"/>
      </contour>
      <contour>
        <pt x="2669" y="231" on="1"/>
        <pt x="2669" y="215" on="0"/>
        <pt x="2656" y="123" on="1"/>
        <pt x="2651" y="93" on="0"/>
        <pt x="2615" y="57" on="1"/>
        <pt x="2610" y="57" on="0"/>
        <pt x="2584" y="69" on="0"/>
        <pt x="2579" y="69" on="1"/>
        <pt x="2455" y="923" on="1"/>
        <pt x="2470" y="977" on="0"/>
        <pt x="2520" y="1060" on="1"/>
        <pt x="2532" y="1060" on="0"/>
        <pt x="2553" y="1026" on="1"/>
        <pt x="2669" y="333" on="0"/>
      </contour>
      <contour>
        <pt x="1758" y="938" on="1"/>
        <pt x="1758" y="905" on="0"/>
        <pt x="1716" y="872" on="1"/>
        <pt x="1680" y="845" on="0"/>
        <pt x="1667" y="845" on="1"/>
        <pt x="1645" y="845" on="0"/>
        <pt x="1598" y="869" on="1"/>
        <pt x="1544" y="896" on="0"/>
        <pt x="1544" y="922" on="1"/>
        <pt x="1544" y="945" on="0"/>
        <pt x="1620" y="1030" on="0"/>
        <pt x="1646" y="1030" on="1"/>
        <pt x="1686" y="1030" on="0"/>
        <pt x="1724" y="995" on="1"/>
        <pt x="1758" y="962" on="0"/>
      </contour>
      <contour>
        <pt x="2261" y="226" on="1"/>
        <pt x="2244" y="84" on="0"/>
        <pt x="2230" y="49" on="1"/>
        <pt x="2196" y="-35" on="0"/>
        <pt x="2097" y="-35" on="1"/>
        <pt x="2036" y="-35" on="0"/>
        <pt x="1979" y="5" on="1"/>
        <pt x="1912" y="52" on="0"/>
        <pt x="1908" y="122" on="1"/>
        <pt x="1908" y="130" on="0"/>
        <pt x="1897" y="149" on="1"/>
        <pt x="1746" y="-24" on="0"/>
        <pt x="1518" y="-24" on="1"/>
        <pt x="1380" y="-24" on="0"/>
        <pt x="1380" y="57" on="1"/>
        <pt x="1380" y="78" on="0"/>
        <pt x="1402" y="148" on="1"/>
        <pt x="1431" y="148" on="0"/>
        <pt x="1554" y="139" on="0"/>
        <pt x="1564" y="139" on="1"/>
        <pt x="1655" y="139" on="0"/>
        <pt x="1733" y="165" on="1"/>
        <pt x="1840" y="202" on="0"/>
        <pt x="1840" y="272" on="1"/>
        <pt x="1840" y="285" on="0"/>
        <pt x="1779" y="572" on="0"/>
        <pt x="1779" y="584" on="1"/>
        <pt x="1779" y="582" on="0"/>
        <pt x="1812" y="681" on="1"/>
        <pt x="1849" y="681" on="1"/>
        <pt x="1883" y="532" on="0"/>
        <pt x="1966" y="248" on="1"/>
        <pt x="1984" y="198" on="0"/>
        <pt x="2072" y="129" on="0"/>
        <pt x="2117" y="129" on="1"/>
        <pt x="2147" y="129" on="0"/>
        <pt x="2148" y="130" on="1"/>
        <pt x="2161" y="138" on="0"/>
        <pt x="2168" y="185" on="1"/>
        <pt x="2025" y="927" on="1"/>
        <pt x="2041" y="1015" on="0"/>
        <pt x="2089" y="1111" on="1"/>
        <pt x="2135" y="1111" on="1"/>
        <pt x="2142" y="1062" on="0"/>
        <pt x="2148" y="1012" on="1"/>
        <pt x="2159" y="943" on="0"/>
        <pt x="2229" y="927" on="1"/>
        <pt x="2211" y="838" on="0"/>
        <pt x="2179" y="768" on="1"/>
      </contour>
      <contour>
        <pt x="1738" y="-152" on="1"/>
        <pt x="1738" y="-202" on="0"/>
        <pt x="1523" y="-306" on="1"/>
        <pt x="1382" y="-370" on="0"/>
        <pt x="1243" y="-434" on="1"/>
        <pt x="1198" y="-434" on="1"/>
        <pt x="1185" y="-420" on="0"/>
        <pt x="1185" y="-398" on="1"/>
        <pt x="1185" y="-338" on="0"/>
        <pt x="1229" y="-316" on="1"/>
        <pt x="1378" y="-252" on="0"/>
        <pt x="1681" y="-117" on="1"/>
        <pt x="1725" y="-117" on="1"/>
        <pt x="1738" y="-130" on="0"/>
      </contour>
      <contour>
        <pt x="1237" y="682" on="1"/>
        <pt x="1237" y="646" on="0"/>
        <pt x="1192" y="579" on="1"/>
        <pt x="1179" y="584" on="0"/>
        <pt x="1143" y="609" on="1"/>
        <pt x="1112" y="631" on="0"/>
        <pt x="1098" y="631" on="1"/>
        <pt x="1042" y="631" on="0"/>
        <pt x="968" y="543" on="1"/>
        <pt x="898" y="460" on="0"/>
        <pt x="898" y="410" on="1"/>
        <pt x="898" y="349" on="0"/>
        <pt x="1015" y="326" on="1"/>
        <pt x="1083" y="318" on="0"/>
        <pt x="1151" y="309" on="1"/>
        <pt x="1226" y="283" on="0"/>
        <pt x="1226" y="206" on="1"/>
        <pt x="1226" y="25" on="0"/>
        <pt x="959" y="-90" on="1"/>
        <pt x="757" y="-178" on="0"/>
        <pt x="607" y="-178" on="1"/>
        <pt x="442" y="-178" on="0"/>
        <pt x="328" y="-93" on="1"/>
        <pt x="202" y="0" on="0"/>
        <pt x="202" y="154" on="1"/>
        <pt x="202" y="173" on="0"/>
        <pt x="231" y="261" on="1"/>
        <pt x="263" y="352" on="0"/>
        <pt x="287" y="402" on="1"/>
        <pt x="295" y="416" on="0"/>
        <pt x="374" y="466" on="1"/>
        <pt x="374" y="463" on="0"/>
        <pt x="386" y="446" on="0"/>
        <pt x="386" y="431" on="1"/>
        <pt x="386" y="420" on="0"/>
        <pt x="317" y="275" on="1"/>
        <pt x="315" y="271" on="0"/>
        <pt x="315" y="231" on="1"/>
        <pt x="315" y="88" on="0"/>
        <pt x="445" y="27" on="1"/>
        <pt x="533" y="-14" on="0"/>
        <pt x="658" y="-14" on="1"/>
        <pt x="751" y="-14" on="0"/>
        <pt x="882" y="29" on="1"/>
        <pt x="1021" y="75" on="0"/>
        <pt x="1093" y="136" on="1"/>
        <pt x="1093" y="143" on="0"/>
        <pt x="1043" y="170" on="0"/>
        <pt x="1032" y="170" on="1"/>
        <pt x="1019" y="170" on="0"/>
        <pt x="1009" y="160" on="0"/>
        <pt x="996" y="160" on="1"/>
        <pt x="930" y="160" on="0"/>
        <pt x="856" y="214" on="1"/>
        <pt x="775" y="272" on="0"/>
        <pt x="775" y="338" on="1"/>
        <pt x="775" y="337" on="0"/>
        <pt x="824" y="473" on="1"/>
        <pt x="861" y="581" on="0"/>
        <pt x="947" y="679" on="1"/>
        <pt x="1047" y="795" on="0"/>
        <pt x="1139" y="795" on="1"/>
        <pt x="1183" y="795" on="0"/>
        <pt x="1237" y="727" on="0"/>
      </contour>
    </TTGlyph>
</ttFont>
